{"glyphs":{"0":{"ha":652,"x_min":52,"x_max":599,"o":"m 599 496 q 586 290 599 383 q 541 129 572 197 q 457 23 510 60 q 325 -14 404 -14 q 175 39 235 -14 q 83 203 114 91 q 52 496 52 315 q 81 783 52 670 q 172 951 111 896 q 325 1006 233 1006 q 477 949 416 1006 q 568 779 538 892 q 599 496 599 665 m 239 496 q 247 301 239 378 q 273 188 254 225 q 325 151 292 151 q 377 188 359 151 q 404 301 396 225 q 411 496 411 378 q 404 687 411 610 q 377 802 396 764 q 325 840 359 840 q 273 802 292 840 q 247 688 254 764 q 239 496 239 611 z "},"1":{"ha":652,"x_min":65,"x_max":497,"o":"m 497 0 l 311 0 l 311 579 q 312 641 311 610 q 313 700 312 671 q 315 758 314 730 q 293 729 306 745 q 262 693 280 713 l 176 604 l 65 714 l 332 991 l 497 991 l 497 0 z "},"2":{"ha":652,"x_min":37,"x_max":581,"o":"m 581 0 l 40 0 l 40 135 l 231 400 q 323 541 292 485 q 367 640 355 597 q 378 728 378 683 q 353 811 378 780 q 279 842 328 842 q 206 821 241 842 q 129 749 172 801 l 37 872 q 119 950 79 921 q 204 993 159 980 q 301 1006 249 1006 q 439 972 380 1006 q 532 879 499 939 q 566 739 566 819 q 550 614 566 673 q 497 490 534 555 q 395 345 460 426 l 262 171 l 262 164 l 581 164 l 581 0 z "},"3":{"ha":652,"x_min":46,"x_max":590,"o":"m 571 754 q 552 655 571 701 q 495 575 533 610 q 403 521 458 541 l 403 517 q 543 437 496 497 q 590 279 590 376 q 552 124 590 190 q 444 22 515 58 q 275 -14 374 -14 q 158 -4 211 -14 q 46 33 105 6 l 46 208 q 149 163 97 178 q 248 147 200 147 q 359 184 323 147 q 395 288 395 221 q 375 369 395 337 q 315 415 356 400 q 210 431 275 431 l 160 431 l 160 587 l 211 587 q 308 605 269 587 q 367 655 347 622 q 387 733 387 688 q 359 816 387 787 q 277 844 331 844 q 224 837 250 844 q 172 815 198 829 q 119 778 146 800 l 46 914 q 170 985 107 964 q 313 1006 233 1006 q 502 941 432 1006 q 571 754 571 876 z "},"4":{"ha":652,"x_min":24,"x_max":635,"o":"m 635 201 l 534 201 l 534 0 l 351 0 l 351 201 l 24 201 l 24 351 l 350 994 l 534 994 l 534 355 l 635 355 l 635 201 m 350 355 l 350 585 q 350 617 350 595 q 351 664 351 639 q 353 708 352 688 q 354 734 353 728 l 349 734 q 329 678 340 705 q 306 628 318 652 l 175 355 l 350 355 z "},"5":{"ha":652,"x_min":68,"x_max":590,"o":"m 350 635 q 476 596 422 635 q 560 487 530 557 q 590 326 590 418 q 555 143 590 220 q 449 27 519 67 q 272 -14 378 -14 q 160 -2 211 -14 q 68 33 110 9 l 68 207 q 162 164 112 181 q 260 147 213 147 q 338 169 307 147 q 385 229 369 191 q 400 319 400 268 q 364 436 400 396 q 257 476 328 476 q 201 470 230 476 q 142 453 172 465 l 79 500 l 109 991 l 539 991 l 539 827 l 265 827 l 252 623 q 306 632 281 630 q 350 635 330 635 z "},"6":{"ha":652,"x_min":52,"x_max":604,"o":"m 52 421 q 63 607 52 519 q 100 767 74 694 q 169 894 125 840 q 276 977 212 947 q 428 1006 340 1006 q 493 1003 461 1006 q 555 993 526 1000 l 555 833 q 502 843 530 840 q 443 847 473 847 q 327 813 374 847 q 255 711 280 780 q 227 534 230 642 l 232 534 q 270 597 248 572 q 322 635 292 622 q 387 648 351 648 q 505 608 457 648 q 579 497 553 568 q 604 329 604 425 q 573 150 604 227 q 482 30 542 73 q 336 -14 422 -14 q 216 16 269 -14 q 126 101 163 45 q 71 237 90 157 q 52 421 52 318 m 332 149 q 395 192 372 149 q 418 325 418 235 q 397 448 418 406 q 334 489 376 489 q 283 470 304 489 q 251 420 262 452 q 240 351 240 389 q 245 277 240 313 q 262 212 251 241 q 291 166 274 183 q 332 149 309 149 z "},"7":{"ha":652,"x_min":47,"x_max":602,"o":"m 121 0 l 411 827 l 47 827 l 47 991 l 602 991 l 602 863 l 318 0 l 121 0 z "},"8":{"ha":652,"x_min":43,"x_max":607,"o":"m 326 1006 q 466 977 408 1006 q 553 896 523 949 q 583 768 583 843 q 568 670 583 715 q 521 588 553 625 q 440 521 490 551 q 534 441 497 481 q 589 357 571 401 q 607 258 607 312 q 573 113 607 174 q 476 19 539 52 q 326 -14 413 -14 q 172 18 235 -14 q 76 110 109 50 q 43 254 43 170 q 59 356 43 309 q 110 444 75 404 q 197 518 144 484 q 124 593 153 553 q 82 676 96 632 q 68 768 68 720 q 99 896 68 843 q 189 977 131 949 q 326 1006 247 1006 m 222 257 q 248 170 222 203 q 323 136 274 136 q 403 169 377 136 q 429 257 429 201 q 421 309 429 283 q 393 360 413 334 q 339 412 374 385 l 319 428 q 263 376 284 402 q 232 321 241 350 q 222 257 222 292 m 326 856 q 268 828 290 856 q 245 754 245 801 q 254 701 245 725 q 281 654 263 676 q 325 612 298 633 q 374 657 356 635 q 400 703 393 680 q 408 754 408 726 q 386 828 408 801 q 326 856 363 856 z "},"9":{"ha":652,"x_min":46,"x_max":599,"o":"m 599 576 q 586 386 599 475 q 547 223 574 296 q 475 97 519 150 q 368 15 431 44 q 221 -14 305 -14 q 155 -10 189 -14 q 93 0 121 -6 l 93 160 q 147 149 118 153 q 205 144 176 144 q 327 183 280 144 q 398 291 374 221 q 425 457 422 361 l 418 457 q 379 395 402 420 q 328 356 357 370 q 262 343 298 343 q 143 383 192 343 q 71 495 95 423 q 46 663 46 568 q 77 842 46 765 q 169 962 109 919 q 317 1006 229 1006 q 436 977 383 1006 q 525 892 488 948 q 580 758 561 837 q 599 576 599 678 m 318 843 q 255 800 279 843 q 231 667 231 756 q 252 544 231 585 q 317 503 274 503 q 370 525 350 503 q 400 580 391 547 q 410 644 410 613 q 406 702 410 668 q 393 767 403 735 q 366 821 384 800 q 318 843 348 843 z "},"\u0000":{"ha":0,"x_min":0,"x_max":0,"o":""},"\r":{"ha":249,"x_min":0,"x_max":0,"o":""}," ":{"ha":249,"x_min":0,"x_max":0,"o":""},"!":{"ha":357,"x_min":71,"x_max":285,"o":"m 254 322 l 103 322 l 72 991 l 283 991 l 254 322 m 71 98 q 98 183 71 154 q 179 212 125 212 q 257 183 229 212 q 285 98 285 155 q 256 14 285 43 q 179 -16 227 -16 q 99 14 128 -16 q 71 98 71 43 z "},"\"":{"ha":615,"x_min":64,"x_max":551,"o":"m 262 991 l 236 633 l 90 633 l 64 991 l 262 991 m 551 991 l 525 633 l 379 633 l 353 991 l 551 991 z "},"#":{"ha":711,"x_min":28,"x_max":690,"o":"m 555 587 l 532 411 l 657 411 l 657 279 l 515 279 l 478 0 l 343 0 l 382 279 l 275 279 l 239 0 l 107 0 l 143 279 l 28 279 l 28 411 l 161 411 l 184 587 l 60 587 l 60 722 l 203 722 l 240 991 l 372 991 l 335 722 l 441 722 l 478 991 l 610 991 l 572 722 l 690 722 l 690 587 l 555 587 m 294 411 l 400 411 l 424 587 l 318 587 l 294 411 z "},"$":{"ha":652,"x_min":60,"x_max":593,"o":"m 286 -81 l 286 57 q 171 73 229 59 q 65 110 113 87 l 65 275 q 171 221 111 245 q 286 196 230 198 l 286 444 q 159 511 210 475 q 84 596 109 547 q 60 710 60 644 q 89 831 60 781 q 169 913 117 882 q 286 951 220 943 l 286 1054 l 374 1054 l 374 953 q 476 935 425 950 q 575 895 528 920 l 533 757 q 455 790 496 778 q 374 807 414 803 l 374 570 q 497 507 449 541 q 569 428 546 473 q 593 318 593 382 q 536 150 593 219 q 374 61 479 81 l 374 -81 l 286 -81 m 374 207 q 431 245 412 218 q 449 306 449 271 q 440 348 449 330 q 415 380 432 366 q 374 407 399 395 l 374 207 m 286 607 l 286 806 q 241 787 258 800 q 216 753 224 773 q 208 707 208 732 q 216 666 208 684 q 241 635 224 649 q 286 607 258 621 z "},"%":{"ha":1071,"x_min":41,"x_max":1029,"o":"m 237 1006 q 382 923 329 1006 q 436 696 436 841 q 384 465 436 547 q 237 383 332 383 q 94 467 146 383 q 41 696 41 551 q 93 925 41 845 q 237 1006 144 1006 m 239 878 q 197 832 211 878 q 183 694 183 787 q 197 555 183 600 q 240 510 211 510 q 281 554 269 510 q 294 694 294 599 q 281 833 294 788 q 239 878 267 878 m 794 991 l 411 0 l 273 0 l 657 991 l 794 991 m 831 610 q 976 527 922 610 q 1029 300 1029 445 q 978 70 1029 151 q 831 -12 926 -12 q 686 72 738 -12 q 635 300 635 157 q 686 530 635 451 q 831 610 736 610 m 831 484 q 789 437 802 484 q 777 298 777 391 q 790 160 777 205 q 832 115 803 115 q 874 164 862 115 q 886 298 886 212 q 873 434 886 385 q 831 484 861 484 z "},"&":{"ha":803,"x_min":35,"x_max":808,"o":"m 345 1004 q 466 977 416 1004 q 541 900 515 950 q 567 779 567 850 q 531 638 567 701 q 428 522 494 575 l 539 358 q 563 431 553 390 q 579 524 573 473 l 770 524 q 731 357 759 442 q 660 200 704 272 l 808 0 l 579 0 l 530 75 q 461 27 497 47 q 382 -3 425 7 q 289 -14 340 -14 q 148 21 204 -14 q 63 119 91 56 q 35 265 35 182 q 52 375 35 325 q 106 467 70 425 q 197 543 142 509 q 151 618 170 582 q 124 695 133 655 q 115 781 115 734 q 144 899 115 848 q 224 977 172 949 q 345 1004 275 1004 m 283 429 q 248 386 261 409 q 228 337 234 363 q 221 277 221 310 q 247 185 221 222 q 318 149 273 149 q 380 164 354 149 q 432 210 407 180 l 283 429 m 343 869 q 302 847 318 869 q 286 781 286 825 q 299 709 286 747 q 338 636 313 670 q 385 704 370 664 q 400 786 400 743 q 385 849 400 828 q 343 869 369 869 z "},"'":{"ha":326,"x_min":64,"x_max":262,"o":"m 262 991 l 236 633 l 90 633 l 64 991 l 262 991 z "},"(":{"ha":433,"x_min":62,"x_max":416,"o":"m 62 390 q 86 628 62 516 q 153 837 110 740 q 252 1011 195 933 l 416 1011 q 282 722 326 876 q 237 392 237 567 q 258 174 237 279 q 318 -28 279 69 q 415 -220 358 -126 l 252 -220 q 151 -46 193 -140 q 85 157 109 48 q 62 390 62 266 z "},")":{"ha":433,"x_min":18,"x_max":372,"o":"m 372 390 q 349 157 372 267 q 282 -46 326 48 q 180 -220 239 -140 l 18 -220 q 115 -28 75 -125 q 175 174 155 70 q 196 392 196 279 q 176 617 196 509 q 117 823 157 724 q 18 1011 78 921 l 180 1011 q 281 837 238 933 q 348 628 324 740 q 372 390 372 515 z "},"*":{"ha":618,"x_min":29,"x_max":587,"o":"m 395 1059 l 370 861 l 549 926 l 587 766 l 406 746 l 541 593 l 401 498 l 309 676 l 214 497 l 77 593 l 210 746 l 29 765 l 66 926 l 248 861 l 224 1059 l 395 1059 z "},"+":{"ha":657,"x_min":46,"x_max":611,"o":"m 404 564 l 611 564 l 611 416 l 404 416 l 404 158 l 254 158 l 254 416 l 46 416 l 46 564 l 254 564 l 254 825 l 404 825 l 404 564 z "},",":{"ha":354,"x_min":46,"x_max":289,"o":"m 281 184 l 289 170 q 263 38 277 100 q 231 -82 248 -25 q 193 -189 214 -138 l 46 -189 q 69 -67 58 -135 q 90 67 81 1 q 102 184 98 134 l 281 184 z "},"-":{"ha":424,"x_min":39,"x_max":385,"o":"m 39 286 l 39 460 l 385 460 l 385 286 l 39 286 z "},".":{"ha":354,"x_min":71,"x_max":285,"o":"m 71 98 q 98 183 71 154 q 179 212 126 212 q 257 183 229 212 q 285 98 285 155 q 256 14 285 43 q 179 -16 228 -16 q 100 14 130 -16 q 71 98 71 43 z "},"/":{"ha":561,"x_min":12,"x_max":551,"o":"m 551 1002 l 174 -9 l 12 -9 l 392 1002 l 551 1002 z "},":":{"ha":361,"x_min":74,"x_max":286,"o":"m 74 98 q 101 183 74 154 q 182 212 129 212 q 259 183 232 212 q 286 98 286 155 q 258 14 286 43 q 182 -16 230 -16 q 102 14 131 -16 q 74 98 74 43 m 74 653 q 101 738 74 708 q 182 768 129 768 q 260 738 233 768 q 286 653 286 708 q 258 568 286 597 q 182 539 230 539 q 102 569 131 539 q 74 653 74 599 z "},";":{"ha":361,"x_min":45,"x_max":289,"o":"m 281 184 l 289 170 q 263 38 277 100 q 231 -82 248 -25 q 193 -189 214 -138 l 45 -189 q 68 -66 57 -134 q 87 67 79 1 q 100 184 96 133 l 281 184 m 74 653 q 101 738 74 708 q 182 768 129 768 q 260 738 233 768 q 286 653 286 708 q 258 568 286 597 q 182 539 230 539 q 102 569 131 539 q 74 653 74 599 z "},"<":{"ha":657,"x_min":40,"x_max":611,"o":"m 611 167 l 40 450 l 40 547 l 611 829 l 611 664 l 252 498 l 611 330 l 611 167 z "},"=":{"ha":657,"x_min":46,"x_max":611,"o":"m 46 568 l 46 715 l 611 715 l 611 568 l 46 568 m 46 262 l 46 411 l 611 411 l 611 262 l 46 262 z "},">":{"ha":657,"x_min":45,"x_max":615,"o":"m 45 330 l 404 498 l 45 664 l 45 829 l 615 547 l 615 450 l 45 167 l 45 330 z "},"?":{"ha":513,"x_min":7,"x_max":490,"o":"m 144 322 l 144 374 q 153 455 144 420 q 180 522 161 490 q 231 586 199 553 q 278 643 260 618 q 304 694 296 669 q 313 750 313 719 q 290 820 313 796 q 224 843 268 843 q 149 827 186 843 q 68 781 111 810 l 7 922 q 122 985 64 964 q 239 1006 180 1006 q 426 942 362 1006 q 490 766 490 878 q 476 662 490 707 q 435 580 463 618 q 367 500 408 542 q 319 445 335 467 q 299 402 304 422 q 294 354 294 381 l 294 322 l 144 322 m 113 98 q 140 183 113 154 q 221 212 168 212 q 299 183 271 212 q 326 98 326 155 q 298 14 326 43 q 221 -16 270 -16 q 142 14 171 -16 q 113 98 113 43 z "},"@":{"ha":1003,"x_min":56,"x_max":949,"o":"m 949 509 q 934 365 949 429 q 892 254 919 300 q 828 183 865 208 q 746 158 791 158 q 657 186 690 158 q 611 265 624 214 l 603 265 q 546 184 579 210 q 471 158 513 158 q 335 228 383 158 q 288 424 288 298 q 317 594 288 522 q 402 706 347 667 q 534 746 458 746 q 621 736 575 746 q 707 710 667 726 l 696 422 q 694 382 695 403 q 693 343 693 361 q 705 289 693 307 q 739 271 718 271 q 781 294 764 271 q 807 371 798 318 q 817 511 817 424 q 783 708 817 623 q 683 843 749 794 q 521 890 617 891 q 374 853 437 890 q 270 749 312 815 q 208 598 229 684 q 187 415 187 512 q 222 200 187 292 q 329 56 258 107 q 507 4 399 4 q 634 20 568 4 q 758 64 701 37 l 758 -57 q 641 -96 703 -83 q 509 -110 579 -110 q 262 -48 363 -110 q 109 130 161 14 q 56 408 56 245 q 89 655 56 545 q 184 843 123 765 q 332 962 246 921 q 521 1003 417 1004 q 748 940 652 1003 q 896 765 844 876 q 949 509 949 653 m 427 422 q 443 308 427 345 q 489 271 460 271 q 537 319 521 271 q 559 488 553 368 l 567 629 q 549 634 557 633 q 530 635 540 635 q 475 610 498 635 q 439 537 452 585 q 427 422 427 490 z "},"A":{"ha":730,"x_min":0,"x_max":730,"o":"m 528 0 l 476 239 l 256 239 l 204 0 l 0 0 l 240 991 l 486 991 l 730 0 l 528 0 m 447 404 l 393 667 q 383 730 388 699 q 373 790 378 762 q 366 844 369 819 q 359 792 363 821 q 350 732 355 764 q 338 669 345 701 l 285 404 l 447 404 z "},"B":{"ha":732,"x_min":89,"x_max":673,"o":"m 89 991 l 350 991 q 579 931 503 991 q 656 747 656 871 q 640 643 656 689 q 594 568 624 597 q 522 526 564 538 l 522 519 q 609 475 575 505 q 658 397 642 444 q 673 288 673 351 q 638 135 673 199 q 538 35 604 71 q 380 0 472 0 l 89 0 l 89 991 m 279 590 l 350 590 q 436 623 408 590 q 464 721 464 656 q 435 807 464 777 q 347 836 406 836 l 279 836 l 279 590 m 279 439 l 279 160 l 366 160 q 451 195 422 160 q 479 302 479 231 q 465 377 479 347 q 424 423 451 407 q 358 439 397 439 l 279 439 z "},"C":{"ha":671,"x_min":60,"x_max":637,"o":"m 429 842 q 353 816 386 842 q 299 743 321 790 q 268 632 278 696 q 257 493 257 568 q 278 306 257 382 q 340 191 299 230 q 439 151 380 151 q 526 167 485 151 q 608 204 568 182 l 608 35 q 516 -1 566 11 q 411 -14 467 -14 q 221 46 299 -14 q 101 219 142 105 q 60 494 60 332 q 83 699 60 606 q 152 861 106 792 q 263 968 197 930 q 415 1006 330 1006 q 530 991 475 1006 q 637 945 586 976 l 583 787 q 509 827 547 812 q 429 842 472 842 z "},"D":{"ha":777,"x_min":89,"x_max":717,"o":"m 717 514 q 671 233 717 348 q 537 59 625 119 q 322 0 450 0 l 89 0 l 89 991 l 336 991 q 544 937 458 991 q 673 775 629 882 q 717 514 717 669 m 521 505 q 500 688 521 616 q 437 793 479 759 q 334 827 395 827 l 279 827 l 279 167 l 321 167 q 472 250 424 167 q 521 505 521 334 z "},"E":{"ha":593,"x_min":89,"x_max":534,"o":"m 534 0 l 89 0 l 89 991 l 534 991 l 534 829 l 279 829 l 279 596 l 517 596 l 517 433 l 279 433 l 279 165 l 534 165 l 534 0 z "},"F":{"ha":575,"x_min":89,"x_max":532,"o":"m 279 0 l 89 0 l 89 991 l 532 991 l 532 829 l 279 829 l 279 559 l 515 559 l 515 397 l 279 397 l 279 0 z "},"G":{"ha":798,"x_min":60,"x_max":726,"o":"m 416 558 l 726 558 l 726 41 q 582 0 656 14 q 431 -14 507 -14 q 225 49 308 -14 q 101 227 143 112 q 60 498 60 341 q 107 767 60 654 q 245 943 154 881 q 467 1006 336 1006 q 601 988 538 1006 q 713 943 663 971 l 657 786 q 569 827 614 813 q 473 842 523 842 q 354 801 402 842 q 281 683 306 761 q 257 493 257 606 q 277 312 257 389 q 338 193 297 235 q 443 151 379 151 q 494 155 469 151 q 541 167 519 159 l 541 397 l 416 397 l 416 558 z "},"H":{"ha":804,"x_min":89,"x_max":715,"o":"m 715 0 l 525 0 l 525 433 l 279 433 l 279 0 l 89 0 l 89 991 l 279 991 l 279 599 l 525 599 l 525 991 l 715 991 l 715 0 z "},"I":{"ha":368,"x_min":89,"x_max":279,"o":"m 89 0 l 89 991 l 279 991 l 279 0 l 89 0 z "},"J":{"ha":367,"x_min":-78,"x_max":279,"o":"m 28 -294 q -27 -291 0 -294 q -78 -279 -54 -288 l -78 -117 q -42 -127 -61 -123 q -1 -131 -23 -131 q 53 -115 33 -131 q 81 -61 73 -99 q 90 43 90 -23 l 90 991 l 279 991 l 279 46 q 250 -157 279 -83 q 165 -263 221 -232 q 28 -294 109 -294 z "},"K":{"ha":710,"x_min":89,"x_max":720,"o":"m 720 0 l 509 0 l 340 404 l 279 349 l 279 0 l 89 0 l 89 991 l 279 991 l 279 534 q 301 594 286 561 q 339 668 317 627 l 513 991 l 717 991 l 475 550 l 720 0 z "},"L":{"ha":564,"x_min":89,"x_max":543,"o":"m 89 0 l 89 991 l 279 991 l 279 165 l 543 165 l 543 0 l 89 0 z "},"M":{"ha":1072,"x_min":89,"x_max":983,"o":"m 458 0 l 262 732 l 257 732 q 262 646 260 686 q 266 572 264 606 q 267 511 267 538 l 267 0 l 89 0 l 89 991 l 351 991 l 534 313 l 539 313 l 722 991 l 983 991 l 983 0 l 802 0 l 802 513 q 803 577 802 543 q 805 649 804 610 q 810 730 807 687 l 804 730 l 607 0 l 458 0 z "},"N":{"ha":864,"x_min":89,"x_max":775,"o":"m 775 0 l 551 0 l 261 692 l 256 692 q 262 601 260 644 q 266 524 264 559 q 267 460 267 488 l 267 0 l 89 0 l 89 991 l 311 991 l 600 315 l 606 315 q 601 402 603 362 q 597 477 599 443 q 596 541 596 512 l 596 991 l 775 991 l 775 0 z "},"O":{"ha":823,"x_min":60,"x_max":764,"o":"m 764 497 q 742 284 764 379 q 677 123 720 190 q 567 22 633 57 q 412 -14 501 -14 q 256 22 323 -14 q 146 125 190 58 q 81 286 103 192 q 60 498 60 380 q 100 779 60 665 q 218 949 140 892 q 412 1007 297 1007 q 610 945 532 1007 q 726 769 688 884 q 764 497 764 655 m 257 497 q 275 307 257 383 q 327 192 292 231 q 412 154 361 154 q 498 191 464 154 q 550 304 532 229 q 567 497 567 380 q 528 756 567 671 q 412 842 490 842 q 327 803 361 842 q 275 688 292 764 q 257 497 257 611 z "},"P":{"ha":681,"x_min":89,"x_max":639,"o":"m 340 991 q 565 913 492 991 q 639 685 639 835 q 620 548 639 610 q 564 443 602 487 q 468 375 526 399 q 332 351 410 351 l 279 351 l 279 0 l 89 0 l 89 991 l 340 991 m 326 829 l 279 829 l 279 514 l 313 514 q 389 531 358 514 q 435 585 419 548 q 450 684 450 623 q 419 794 450 760 q 326 829 389 829 z "},"Q":{"ha":823,"x_min":60,"x_max":764,"o":"m 764 497 q 744 288 764 379 q 684 132 724 196 q 587 32 645 68 l 750 -236 l 533 -236 l 412 -12 q 405 -12 410 -12 q 396 -12 400 -12 q 247 26 311 -12 q 142 132 184 64 q 80 294 101 201 q 60 498 60 388 q 100 779 60 665 q 218 949 140 892 q 412 1007 297 1007 q 605 949 527 1007 q 724 778 684 892 q 764 497 764 665 m 257 497 q 275 307 257 383 q 327 192 292 231 q 412 154 361 154 q 498 191 464 154 q 550 304 532 229 q 567 497 567 380 q 528 756 567 671 q 412 842 490 842 q 327 803 361 842 q 275 688 292 764 q 257 497 257 611 z "},"R":{"ha":711,"x_min":89,"x_max":708,"o":"m 319 991 q 502 960 429 991 q 610 864 574 928 q 646 704 646 800 q 631 593 646 643 q 584 504 616 543 q 504 436 553 465 l 708 0 l 498 0 l 336 389 l 279 389 l 279 0 l 89 0 l 89 991 l 319 991 m 318 831 l 279 831 l 279 539 l 322 539 q 419 578 386 539 q 452 694 452 616 q 419 798 452 764 q 318 831 386 831 z "},"S":{"ha":608,"x_min":45,"x_max":567,"o":"m 567 290 q 531 132 567 201 q 430 25 495 64 q 275 -14 364 -14 q 195 -8 234 -14 q 119 8 157 -3 q 45 40 82 20 l 45 235 q 157 181 99 199 q 265 163 216 163 q 326 177 302 163 q 362 216 350 191 q 374 271 374 240 q 363 328 374 303 q 325 377 353 353 q 240 435 296 402 q 162 488 197 460 q 102 548 127 515 q 64 624 77 581 q 52 726 52 667 q 84 873 51 810 q 181 971 118 937 q 334 1006 245 1006 q 452 989 394 1006 q 564 943 510 973 l 511 775 q 420 818 463 804 q 340 832 378 832 q 286 820 308 832 q 253 785 264 807 q 241 736 241 764 q 252 676 241 701 q 293 628 263 652 q 380 572 323 605 q 484 496 442 536 q 546 406 525 456 q 567 290 567 356 z "},"T":{"ha":596,"x_min":20,"x_max":575,"o":"m 392 0 l 204 0 l 204 827 l 20 827 l 20 991 l 575 991 l 575 827 l 392 827 l 392 0 z "},"U":{"ha":781,"x_min":83,"x_max":697,"o":"m 697 991 l 697 326 q 662 137 697 212 q 558 24 627 62 q 389 -14 490 -14 q 162 70 241 -14 q 83 322 83 153 l 83 991 l 273 991 l 273 329 q 303 194 273 235 q 390 154 333 154 q 456 171 430 154 q 495 227 482 189 q 509 330 509 266 l 509 991 l 697 991 z "},"V":{"ha":713,"x_min":0,"x_max":713,"o":"m 713 991 l 465 0 l 245 0 l 0 991 l 199 991 l 318 432 q 332 359 325 401 q 346 276 340 317 q 355 205 352 235 q 366 276 359 235 q 380 359 372 317 q 395 432 388 400 l 515 991 l 713 991 z "},"W":{"ha":1076,"x_min":1,"x_max":1074,"o":"m 1074 991 l 879 0 l 661 0 l 570 472 q 561 524 566 496 q 552 583 557 552 q 545 646 548 613 q 538 714 541 679 q 532 657 535 688 q 524 596 528 627 q 515 533 520 564 q 505 473 511 502 l 414 0 l 197 0 l 1 991 l 187 991 l 278 490 q 289 426 283 460 q 299 356 294 392 q 308 286 304 320 q 315 221 313 251 q 325 292 319 256 q 335 364 330 329 q 347 431 341 399 q 357 488 352 463 l 458 991 l 618 991 l 713 489 q 724 430 718 462 q 735 362 730 397 q 745 291 741 327 q 754 221 750 256 q 764 308 758 262 q 777 401 770 354 q 791 490 784 448 l 884 991 l 1074 991 z "},"X":{"ha":657,"x_min":1,"x_max":656,"o":"m 656 0 l 452 0 l 329 332 l 200 0 l 1 0 l 221 504 l 20 991 l 216 991 l 325 679 l 432 991 l 632 991 l 433 505 l 656 0 z "},"Y":{"ha":659,"x_min":0,"x_max":659,"o":"m 330 589 l 463 991 l 659 991 l 424 382 l 424 0 l 235 0 l 235 376 l 0 991 l 197 991 l 330 589 z "},"Z":{"ha":595,"x_min":32,"x_max":566,"o":"m 566 0 l 32 0 l 32 136 l 353 828 l 37 828 l 37 991 l 557 991 l 557 856 l 236 165 l 566 165 l 566 0 z "},"[":{"ha":425,"x_min":74,"x_max":395,"o":"m 395 -229 l 74 -229 l 74 1011 l 395 1011 l 395 869 l 243 869 l 243 -87 l 395 -87 l 395 -229 z "},"\\":{"ha":561,"x_min":11,"x_max":550,"o":"m 172 1002 l 550 -9 l 389 -9 l 11 1002 l 172 1002 z "},"]":{"ha":425,"x_min":32,"x_max":351,"o":"m 32 -87 l 183 -87 l 183 869 l 32 869 l 32 1011 l 351 1011 l 351 -229 l 32 -229 l 32 -87 z "},"^":{"ha":697,"x_min":12,"x_max":685,"o":"m 12 385 l 300 991 l 396 991 l 685 385 l 518 385 l 349 750 l 179 385 l 12 385 z "},"_":{"ha":660,"x_min":-3,"x_max":663,"o":"m 663 -236 l -3 -236 l -3 -100 l 663 -100 l 663 -236 z "},"`":{"ha":432,"x_min":56,"x_max":376,"o":"m 262 1064 q 296 995 275 1035 q 339 919 317 956 q 376 860 361 882 l 376 842 l 248 842 q 202 885 229 858 q 147 943 176 912 q 94 1003 118 975 q 56 1051 69 1032 l 56 1064 l 262 1064 z "},"a":{"ha":644,"x_min":40,"x_max":568,"o":"m 342 774 q 510 706 452 774 q 568 503 568 637 l 568 0 l 436 0 l 407 102 l 403 102 q 354 37 380 63 q 294 -1 328 12 q 216 -14 261 -14 q 114 20 153 -14 q 58 109 75 54 q 40 224 40 163 q 106 404 40 342 q 293 469 172 465 l 387 473 l 387 504 q 368 597 387 566 q 304 628 349 628 q 233 615 272 628 q 149 575 195 602 l 98 710 q 212 758 150 741 q 342 774 273 774 m 387 353 l 336 350 q 251 318 279 347 q 222 232 222 288 q 240 156 222 181 q 290 131 257 131 q 360 172 333 131 q 387 283 387 214 l 387 353 z "},"b":{"ha":694,"x_min":78,"x_max":644,"o":"m 258 1055 l 258 791 q 257 738 258 770 q 253 661 256 705 l 260 661 q 331 746 290 720 q 425 772 373 772 q 586 670 528 772 q 644 382 644 568 q 618 170 644 258 q 543 34 592 81 q 422 -14 493 -14 q 334 7 371 -14 q 260 82 296 28 l 250 82 l 224 0 l 78 0 l 78 1055 l 258 1055 m 364 616 q 301 591 324 616 q 268 518 277 566 q 258 401 258 470 l 258 364 q 284 193 258 248 q 366 139 310 139 q 437 199 412 139 q 461 383 461 258 q 438 558 461 500 q 364 616 414 616 z "},"c":{"ha":554,"x_min":50,"x_max":524,"o":"m 335 -14 q 177 29 240 -14 q 82 158 113 71 q 50 376 50 244 q 81 582 50 492 q 175 723 111 671 q 338 774 239 774 q 439 761 394 774 q 524 724 484 749 l 473 579 q 412 607 442 598 q 351 616 382 616 q 288 589 314 616 q 247 508 261 562 q 233 376 233 455 q 247 246 233 298 q 288 168 261 194 q 354 142 315 142 q 432 156 393 142 q 509 197 471 170 l 509 43 q 427 0 472 14 q 335 -14 382 -14 z "},"d":{"ha":694,"x_min":50,"x_max":616,"o":"m 275 -14 q 108 91 165 -14 q 50 380 50 195 q 108 670 50 566 q 269 774 165 774 q 335 762 304 774 q 390 725 365 749 q 435 663 416 700 l 441 663 q 438 738 439 707 q 436 791 436 770 l 436 1055 l 616 1055 l 616 0 l 472 0 l 447 83 l 436 83 q 391 28 414 50 q 340 -3 368 7 q 275 -14 312 -14 m 329 138 q 410 191 383 138 q 436 357 436 243 l 436 400 q 411 565 436 513 q 329 616 385 616 q 257 557 280 616 q 233 382 233 498 q 258 198 233 259 q 329 138 282 138 z "},"e":{"ha":635,"x_min":50,"x_max":590,"o":"m 325 772 q 470 730 410 772 q 559 611 529 688 q 590 429 590 534 l 590 328 l 228 328 q 264 181 229 228 q 372 134 300 134 q 464 146 420 134 q 555 189 507 159 l 555 39 q 458 -1 510 12 q 347 -14 407 -14 q 177 34 243 -14 q 81 168 111 81 q 50 375 50 255 q 81 592 50 503 q 173 726 112 680 q 325 772 234 772 m 329 631 q 258 590 284 631 q 229 458 231 550 l 422 458 q 412 551 422 512 q 380 610 401 589 q 329 631 359 631 z "},"f":{"ha":414,"x_min":11,"x_max":443,"o":"m 401 610 l 279 610 l 279 0 l 98 0 l 98 610 l 11 610 l 11 707 l 98 760 l 98 783 q 118 941 98 880 q 181 1033 138 1003 q 296 1063 225 1063 q 368 1056 336 1063 q 443 1032 400 1048 l 404 896 q 368 906 385 902 q 334 909 351 909 q 292 884 304 909 q 279 796 279 859 l 279 760 l 401 760 l 401 610 z "},"g":{"ha":636,"x_min":8,"x_max":625,"o":"m 273 -334 q 77 -278 146 -334 q 8 -121 8 -222 q 46 -7 8 -54 q 148 58 85 41 q 95 101 116 72 q 74 168 74 130 q 93 239 74 211 q 146 298 113 268 q 77 385 103 326 q 52 514 52 444 q 81 653 52 595 q 167 741 111 711 q 305 771 224 771 q 349 769 330 771 q 381 763 368 766 q 406 755 395 759 l 625 755 l 625 646 l 536 627 q 554 574 549 602 q 559 513 559 546 q 494 323 559 391 q 307 256 428 256 q 252 262 270 256 q 232 238 241 252 q 222 202 222 224 q 230 175 222 186 q 256 158 239 163 q 300 153 274 153 l 427 153 q 566 102 517 153 q 615 -54 615 51 q 528 -261 615 -189 q 273 -334 441 -334 m 286 -199 q 376 -185 340 -199 q 428 -145 411 -172 q 445 -82 445 -119 q 436 -37 445 -52 q 406 -16 427 -22 q 347 -10 385 -10 l 248 -10 q 211 -21 227 -10 q 186 -52 195 -31 q 177 -106 177 -73 q 206 -175 177 -152 q 286 -199 235 -199 m 307 382 q 359 415 341 382 q 378 513 378 448 q 359 614 378 581 q 306 647 341 647 q 252 613 271 647 q 234 513 234 580 q 252 415 234 449 q 307 382 269 382 z "},"h":{"ha":696,"x_min":78,"x_max":619,"o":"m 258 1055 l 258 821 q 255 740 258 780 q 244 663 252 701 l 256 663 q 294 723 271 699 q 350 761 318 748 q 419 774 381 774 q 529 742 485 774 q 596 650 574 711 q 619 501 619 589 l 619 0 l 439 0 l 439 450 q 421 572 439 533 q 366 611 404 611 q 301 585 325 611 q 268 505 278 559 q 258 366 258 450 l 258 0 l 78 0 l 78 1055 l 258 1055 z "},"i":{"ha":339,"x_min":71,"x_max":268,"o":"m 260 760 l 260 0 l 79 0 l 79 760 l 260 760 m 170 1059 q 244 1032 220 1059 q 268 954 268 1005 q 243 879 268 905 q 170 852 218 852 q 96 879 122 852 q 71 954 71 905 q 95 1033 71 1006 q 170 1059 119 1059 z "},"j":{"ha":339,"x_min":-39,"x_max":268,"o":"m 58 -334 q 9 -330 33 -334 q -39 -318 -16 -326 l -39 -163 q -10 -172 -24 -169 q 18 -175 5 -175 q 64 -150 50 -175 q 79 -72 79 -124 l 79 760 l 260 760 l 260 -82 q 236 -223 260 -168 q 167 -306 212 -279 q 58 -334 122 -332 m 71 954 q 95 1033 71 1006 q 170 1059 119 1059 q 244 1032 220 1059 q 268 954 268 1005 q 243 879 268 905 q 170 852 218 852 q 96 879 122 852 q 71 954 71 905 z "},"k":{"ha":657,"x_min":78,"x_max":660,"o":"m 258 1055 l 258 596 q 257 502 258 548 q 250 411 256 456 l 256 411 q 282 467 268 441 q 309 514 297 493 l 456 760 l 650 760 l 453 449 l 660 0 l 463 0 l 329 314 l 258 244 l 258 0 l 78 0 l 78 1055 l 258 1055 z "},"l":{"ha":336,"x_min":78,"x_max":258,"o":"m 258 0 l 78 0 l 78 1055 l 258 1055 l 258 0 z "},"m":{"ha":1038,"x_min":78,"x_max":962,"o":"m 770 774 q 915 706 867 774 q 962 500 962 639 l 962 0 l 782 0 l 782 447 q 763 572 782 532 q 707 612 745 612 q 632 556 653 612 q 611 385 611 500 l 611 0 l 429 0 l 429 449 q 421 541 429 505 q 398 595 414 577 q 357 612 382 612 q 297 584 318 612 q 267 500 275 555 q 258 363 258 445 l 258 0 l 78 0 l 78 760 l 221 760 l 240 663 l 252 663 q 292 723 267 699 q 351 761 317 748 q 428 774 386 774 q 532 743 494 774 q 587 665 571 712 l 600 665 q 667 746 626 718 q 770 774 708 774 z "},"n":{"ha":696,"x_min":78,"x_max":619,"o":"m 419 774 q 567 704 515 774 q 619 503 619 635 l 619 0 l 439 0 l 439 450 q 422 571 439 530 q 361 612 406 612 q 281 557 304 612 q 258 366 258 501 l 258 0 l 78 0 l 78 760 l 221 760 l 240 663 l 252 663 q 293 723 269 699 q 349 761 317 748 q 419 774 381 774 z "},"o":{"ha":677,"x_min":50,"x_max":628,"o":"m 628 382 q 612 231 628 302 q 562 105 596 160 q 472 18 528 50 q 338 -14 417 -14 q 210 18 264 -14 q 120 103 155 49 q 67 230 85 158 q 50 382 50 301 q 80 585 50 496 q 175 724 111 673 q 340 774 239 774 q 493 728 428 774 q 593 596 557 683 q 628 382 628 509 m 233 379 q 244 247 233 300 q 279 166 256 193 q 339 139 302 139 q 399 166 376 139 q 432 247 422 193 q 443 382 443 301 q 432 515 443 462 q 399 594 422 568 q 339 621 376 621 q 258 562 283 621 q 233 379 233 503 z "},"p":{"ha":694,"x_min":78,"x_max":644,"o":"m 421 774 q 586 671 528 774 q 644 378 644 568 q 618 168 644 256 q 543 34 592 81 q 427 -14 494 -14 q 361 -1 392 -14 q 305 36 330 11 q 260 100 279 61 l 253 100 q 257 24 256 56 q 258 -29 258 -8 l 258 -334 l 78 -334 l 78 760 l 224 760 l 250 660 l 260 660 q 307 729 283 705 q 359 764 331 754 q 421 774 387 774 m 364 621 q 304 597 328 621 q 270 526 281 574 q 258 399 258 477 l 258 361 q 270 237 258 286 q 304 166 281 189 q 364 143 328 143 q 418 169 397 143 q 451 247 440 195 q 461 376 461 298 q 438 560 461 500 q 364 621 414 621 z "},"q":{"ha":694,"x_min":50,"x_max":616,"o":"m 436 -334 l 436 -39 q 438 18 436 -17 q 443 102 440 52 l 436 102 q 365 14 406 41 q 269 -14 323 -14 q 109 89 167 -14 q 50 375 50 191 q 77 591 50 502 q 154 727 104 680 q 275 774 205 774 q 367 749 330 774 q 435 663 405 724 l 446 663 l 461 760 l 616 760 l 616 -334 l 436 -334 m 330 143 q 390 165 366 143 q 425 233 413 187 q 436 350 436 279 l 436 387 q 411 563 436 509 q 328 616 385 616 q 257 556 281 616 q 233 372 233 496 q 257 199 233 254 q 330 143 281 143 z "},"r":{"ha":482,"x_min":79,"x_max":471,"o":"m 408 774 q 437 771 423 774 q 471 764 452 769 l 454 571 q 425 578 441 576 q 390 581 409 581 q 334 567 359 581 q 293 528 310 553 q 268 467 277 503 q 260 387 260 431 l 260 0 l 79 0 l 79 760 l 218 760 l 244 635 l 253 635 q 290 703 268 671 q 342 754 313 734 q 408 774 372 774 z "},"s":{"ha":519,"x_min":39,"x_max":482,"o":"m 482 222 q 453 93 482 145 q 370 13 425 40 q 239 -14 315 -14 q 134 -3 184 -14 q 40 29 84 7 l 40 204 q 125 161 77 179 q 222 143 173 143 q 281 161 260 143 q 301 212 301 178 q 293 248 301 231 q 260 283 285 264 q 187 326 236 302 q 107 385 140 352 q 56 461 74 418 q 39 558 39 504 q 101 716 39 659 q 272 774 163 774 q 377 759 328 774 q 473 714 426 743 l 424 575 q 355 612 391 597 q 282 627 319 627 q 231 611 249 627 q 214 567 214 595 q 222 533 214 547 q 254 502 230 519 q 325 456 278 484 q 407 397 372 429 q 462 323 442 365 q 482 222 482 281 z "},"t":{"ha":440,"x_min":16,"x_max":416,"o":"m 332 144 q 372 150 351 144 q 416 165 393 155 l 416 21 q 351 -5 387 4 q 275 -14 315 -14 q 169 13 210 -14 q 109 92 128 39 q 90 227 90 145 l 90 610 l 16 610 l 16 707 l 104 754 l 147 920 l 271 920 l 271 760 l 407 760 l 407 610 l 271 610 l 271 233 q 284 166 271 189 q 332 144 298 144 z "},"u":{"ha":696,"x_min":77,"x_max":618,"o":"m 618 760 l 618 0 l 476 0 l 456 97 l 446 97 q 404 36 429 60 q 348 -1 380 12 q 278 -14 317 -14 q 166 20 211 -14 q 99 115 121 53 q 77 264 77 177 l 77 760 l 257 760 l 257 318 q 274 190 257 233 q 329 147 291 147 q 397 174 374 147 q 429 251 420 200 q 437 374 437 302 l 437 760 l 618 760 z "},"v":{"ha":616,"x_min":4,"x_max":612,"o":"m 210 0 l 4 760 l 192 760 l 278 358 q 294 279 288 319 q 304 195 300 239 l 310 195 q 318 264 311 226 q 334 347 324 302 l 425 760 l 612 760 l 406 0 l 210 0 z "},"w":{"ha":951,"x_min":8,"x_max":942,"o":"m 571 0 l 503 382 q 495 431 499 406 q 488 482 492 456 q 482 533 485 508 q 476 581 479 558 l 472 581 q 465 529 469 555 q 458 477 462 503 q 452 428 455 452 q 444 383 448 404 l 374 0 l 168 0 l 8 760 l 189 760 l 243 468 q 256 387 250 430 q 267 299 262 344 q 275 212 272 255 l 279 212 q 285 267 282 239 q 292 325 288 294 q 302 388 296 355 q 314 457 307 421 l 372 760 l 579 760 l 636 453 q 648 371 642 413 q 660 290 654 330 q 669 212 665 250 l 675 212 q 681 283 677 246 q 689 359 684 320 q 701 437 694 399 l 764 760 l 942 760 l 779 0 l 571 0 z "},"x":{"ha":604,"x_min":11,"x_max":593,"o":"m 187 389 l 18 760 l 214 760 l 302 532 l 390 760 l 585 760 l 416 386 l 593 0 l 397 0 l 298 244 l 203 0 l 11 0 l 187 389 z "},"y":{"ha":616,"x_min":4,"x_max":612,"o":"m 4 760 l 193 760 l 282 392 q 294 341 288 367 q 303 292 299 316 q 309 248 307 269 l 314 248 q 324 310 317 275 q 342 390 331 345 l 425 760 l 612 760 l 386 -74 q 327 -224 361 -168 q 246 -308 292 -281 q 138 -334 200 -334 q 94 -330 115 -334 q 52 -322 73 -327 l 52 -163 q 79 -170 65 -167 q 106 -172 93 -172 q 151 -161 134 -172 q 182 -121 168 -151 q 211 -37 195 -92 l 222 8 l 4 760 z "},"z":{"ha":501,"x_min":28,"x_max":475,"o":"m 475 0 l 28 0 l 28 113 l 264 607 l 41 607 l 41 760 l 464 760 l 464 637 l 237 151 l 475 151 l 475 0 z "},"{":{"ha":507,"x_min":33,"x_max":468,"o":"m 468 -229 q 297 -209 361 -229 q 203 -138 232 -188 q 174 -1 174 -89 l 174 191 q 159 258 174 231 q 114 300 145 286 q 33 314 83 314 l 33 457 q 113 470 82 457 q 159 511 144 484 q 174 581 174 538 l 174 775 q 199 905 174 855 q 289 978 225 954 q 468 1002 353 1001 l 468 857 q 401 848 429 856 q 360 820 374 840 q 346 761 346 800 l 346 562 q 317 443 346 484 q 220 390 288 401 l 220 382 q 317 328 288 370 q 346 214 346 287 l 346 12 q 357 -42 346 -22 q 396 -73 369 -63 q 468 -85 422 -83 l 468 -229 z "},"|":{"ha":575,"x_min":207,"x_max":367,"o":"m 207 1067 l 367 1067 l 367 -322 l 207 -322 l 207 1067 z "},"}":{"ha":507,"x_min":39,"x_max":473,"o":"m 39 -229 l 39 -85 q 110 -74 83 -83 q 149 -44 137 -64 q 161 12 161 -23 l 161 214 q 190 329 161 288 q 286 382 218 370 l 286 390 q 190 444 218 401 q 161 562 161 486 l 161 761 q 145 820 161 800 q 102 848 130 840 q 39 857 75 856 l 39 1002 q 210 980 146 1001 q 303 910 275 959 q 332 775 332 861 l 332 581 q 346 513 332 541 q 391 471 360 486 q 473 457 422 457 l 473 314 q 393 300 425 314 q 347 259 361 286 q 332 191 332 231 l 332 -1 q 306 -132 332 -82 q 217 -206 281 -182 q 39 -229 153 -229 z "},"~":{"ha":657,"x_min":39,"x_max":616,"o":"m 309 418 q 238 446 272 437 q 175 456 205 456 q 109 435 144 456 q 39 374 75 414 l 39 532 q 107 586 69 568 q 191 604 144 604 q 270 592 232 604 q 347 561 308 580 q 418 533 386 543 q 481 524 450 524 q 549 546 512 524 q 616 606 585 568 l 616 447 q 549 394 587 412 q 467 376 511 376 q 387 388 424 376 q 309 418 351 399 z "}," ":{"ha":249,"x_min":0,"x_max":0,"o":""},"¡":{"ha":357,"x_min":72,"x_max":288,"o":"m 103 432 l 254 432 l 283 -254 l 72 -254 l 103 432 m 288 657 q 259 571 288 600 q 179 542 231 542 q 101 571 127 542 q 74 657 74 601 q 101 740 74 710 q 179 770 128 770 q 258 741 228 770 q 288 657 288 711 z "},"¢":{"ha":652,"x_min":86,"x_max":558,"o":"m 411 1006 l 411 897 q 488 882 449 895 q 558 850 527 869 l 510 704 q 448 733 479 724 q 390 743 416 743 q 323 719 350 743 q 284 641 297 694 q 271 503 271 588 q 283 368 271 420 q 321 292 295 316 q 387 268 347 268 q 465 283 424 268 q 543 323 507 298 l 543 170 q 483 136 517 150 q 411 117 448 122 l 411 -14 l 310 -14 l 310 118 q 183 175 233 127 q 110 307 134 224 q 86 503 86 391 q 111 696 86 612 q 184 832 135 781 q 310 893 234 883 l 310 1006 l 411 1006 z "},"£":{"ha":652,"x_min":60,"x_max":603,"o":"m 393 1006 q 495 992 446 1006 q 590 949 543 978 l 539 800 q 470 831 502 821 q 408 840 437 840 q 354 812 371 840 q 336 722 336 784 l 336 575 l 511 575 l 511 436 l 336 436 l 336 332 q 327 263 336 294 q 297 208 317 233 q 248 165 277 184 l 603 165 l 603 0 l 62 0 l 62 157 q 113 198 93 176 q 142 252 132 220 q 151 330 151 284 l 151 436 l 60 436 l 60 575 l 151 575 l 151 722 q 179 878 151 815 q 262 974 208 941 q 393 1006 316 1006 z "},"¤":{"ha":758,"x_min":61,"x_max":696,"o":"m 107 490 q 118 564 107 528 q 151 633 130 599 l 61 724 l 146 807 l 233 718 q 302 750 266 740 q 378 761 338 761 q 453 750 418 761 q 522 717 489 739 l 611 807 l 696 725 l 607 635 q 638 567 628 602 q 648 490 648 531 q 638 413 648 450 q 607 345 628 376 l 694 257 l 611 174 l 522 262 q 453 231 489 241 q 378 221 416 221 q 300 231 336 221 q 232 262 263 241 l 146 175 l 62 258 l 151 346 q 118 414 130 378 q 107 490 107 450 m 227 490 q 247 414 227 449 q 301 358 267 379 q 378 338 336 338 q 457 358 422 338 q 512 414 492 379 q 533 490 533 449 q 512 567 533 532 q 456 623 491 602 q 378 644 420 644 q 302 624 336 644 q 247 568 267 603 q 227 490 227 533 z "},"¥":{"ha":652,"x_min":20,"x_max":631,"o":"m 326 603 l 435 991 l 631 991 l 447 492 l 583 492 l 583 372 l 418 372 l 418 277 l 583 277 l 583 158 l 418 158 l 418 0 l 233 0 l 233 158 l 68 158 l 68 277 l 233 277 l 233 372 l 68 372 l 68 492 l 200 492 l 20 991 l 214 991 l 326 603 z "},"¦":{"ha":575,"x_min":207,"x_max":367,"o":"m 207 1054 l 367 1054 l 367 505 l 207 505 l 207 1054 m 207 225 l 367 225 l 367 -323 l 207 -323 l 207 225 z "},"§":{"ha":570,"x_min":54,"x_max":511,"o":"m 54 545 q 80 636 54 595 q 154 705 106 677 q 90 779 111 739 q 68 867 68 819 q 133 1006 68 956 q 297 1057 197 1057 q 400 1044 351 1057 q 498 1004 449 1030 l 450 879 q 373 918 410 905 q 304 930 336 930 q 245 913 266 930 q 225 865 225 897 q 237 826 225 843 q 273 795 250 810 q 330 762 296 780 q 433 701 393 732 q 492 632 473 670 q 511 543 511 595 q 490 445 511 487 q 425 370 468 403 q 483 298 465 337 q 501 211 501 259 q 435 57 501 115 q 256 0 369 0 q 149 14 198 0 q 60 54 100 27 l 60 196 q 120 161 85 177 q 189 137 154 146 q 250 127 223 127 q 321 148 296 127 q 346 203 346 168 q 337 243 346 227 q 303 276 328 259 q 232 318 279 292 q 128 385 167 353 q 72 454 89 416 q 54 545 54 492 m 199 567 q 209 524 199 543 q 238 488 218 505 q 289 453 258 471 l 330 429 q 357 466 348 445 q 367 513 367 487 q 356 563 367 541 q 319 605 345 585 q 248 648 294 625 q 211 616 222 637 q 199 567 199 595 z "},"¨":{"ha":673,"x_min":126,"x_max":547,"o":"m 126 946 q 149 1016 126 992 q 210 1039 172 1039 q 271 1015 248 1039 q 294 946 294 990 q 271 879 294 903 q 210 854 248 854 q 149 878 172 854 q 126 946 126 901 m 378 946 q 401 1016 378 992 q 463 1039 424 1039 q 524 1015 501 1039 q 547 946 547 990 q 524 879 547 903 q 463 854 501 854 q 401 879 424 854 q 378 946 378 903 z "},"©":{"ha":1147,"x_min":58,"x_max":1089,"o":"m 568 -14 q 359 25 453 -14 q 198 133 265 64 q 95 294 131 201 q 58 494 58 387 q 98 702 58 608 q 208 864 138 796 q 373 969 279 932 q 575 1006 467 1006 q 781 967 687 1006 q 944 859 875 928 q 1051 696 1013 790 q 1089 493 1089 603 q 1050 289 1089 382 q 941 128 1011 196 q 775 23 870 60 q 568 -14 680 -14 m 596 180 q 382 263 458 180 q 306 494 306 345 q 340 664 306 593 q 439 772 374 734 q 595 810 504 810 q 697 797 647 810 q 796 761 747 785 l 743 656 q 673 682 708 673 q 607 690 638 690 q 492 642 533 690 q 452 490 452 593 q 490 346 452 392 q 608 300 529 300 q 689 310 647 300 q 770 340 730 321 l 770 221 q 686 191 729 201 q 596 180 643 180 m 578 78 q 742 108 667 78 q 870 194 816 138 q 954 326 924 250 q 983 493 983 401 q 952 665 983 588 q 866 798 922 743 q 735 884 810 854 q 572 914 661 914 q 405 882 480 914 q 275 792 330 850 q 192 658 221 735 q 163 492 163 581 q 194 322 163 398 q 282 191 226 245 q 414 107 339 136 q 578 78 490 78 z "},"ª":{"ha":460,"x_min":31,"x_max":400,"o":"m 240 1003 q 359 957 317 1003 q 400 822 400 911 l 400 517 l 310 517 l 288 591 q 236 531 268 553 q 154 509 203 509 q 87 530 115 509 q 45 585 60 551 q 31 660 31 620 q 55 748 31 716 q 122 793 79 779 q 222 812 165 808 l 272 817 l 272 833 q 259 883 272 867 q 214 899 246 899 q 155 888 182 899 q 97 861 127 878 l 60 956 q 145 991 102 979 q 240 1003 189 1003 m 272 737 l 233 733 q 178 713 196 729 q 160 665 160 697 q 172 625 160 640 q 207 611 184 611 q 255 640 237 611 q 272 714 272 669 l 272 737 z "},"«":{"ha":724,"x_min":37,"x_max":682,"o":"m 37 390 l 248 692 l 376 624 l 233 380 l 376 139 l 248 69 l 37 371 l 37 390 m 343 390 l 553 692 l 682 624 l 541 380 l 682 139 l 553 69 l 343 371 l 343 390 z "},"¬":{"ha":657,"x_min":46,"x_max":603,"o":"m 603 564 l 603 164 l 453 164 l 453 416 l 46 416 l 46 564 l 603 564 z "},"­":{"ha":424,"x_min":39,"x_max":385,"o":"m 39 286 l 39 460 l 385 460 l 385 286 l 39 286 z "},"®":{"ha":1147,"x_min":58,"x_max":1089,"o":"m 364 208 l 364 803 l 553 803 q 729 758 669 803 q 789 623 789 713 q 766 523 789 564 q 692 458 743 482 l 825 208 l 669 208 l 566 433 l 507 433 l 507 208 l 364 208 m 507 534 l 545 534 q 617 554 591 534 q 643 616 643 573 q 621 673 643 656 q 546 690 598 690 l 507 690 l 507 534 m 568 -14 q 359 25 453 -14 q 198 133 265 64 q 95 294 131 201 q 58 494 58 387 q 98 702 58 608 q 208 864 138 796 q 373 969 279 932 q 575 1006 467 1006 q 781 967 687 1006 q 944 859 875 928 q 1051 696 1013 790 q 1089 493 1089 603 q 1050 289 1089 382 q 941 128 1011 196 q 775 23 870 60 q 568 -14 680 -14 m 578 78 q 742 108 667 78 q 870 194 816 138 q 954 326 924 250 q 983 493 983 401 q 952 665 983 588 q 866 798 922 743 q 735 884 810 854 q 572 914 661 914 q 405 882 480 914 q 275 792 330 850 q 192 658 221 735 q 163 492 163 581 q 194 322 163 398 q 282 191 226 245 q 414 107 339 136 q 578 78 490 78 z "},"¯":{"ha":656,"x_min":-3,"x_max":660,"o":"m 660 1055 l -3 1055 l -3 1192 l 660 1192 l 660 1055 z "},"°":{"ha":503,"x_min":41,"x_max":460,"o":"m 250 599 q 144 625 191 599 q 69 696 97 650 q 41 803 41 743 q 69 909 41 863 q 144 980 97 955 q 250 1006 192 1006 q 358 980 311 1006 q 433 908 406 954 q 460 803 460 863 q 432 696 460 742 q 357 624 404 650 q 250 599 309 599 m 250 707 q 319 732 294 707 q 345 803 345 758 q 320 871 345 846 q 250 897 295 897 q 181 870 205 897 q 157 803 157 844 q 182 732 157 758 q 250 707 208 707 z "},"±":{"ha":657,"x_min":46,"x_max":611,"o":"m 46 0 l 46 147 l 611 147 l 611 0 l 46 0 m 404 625 l 611 625 l 611 477 l 404 477 l 404 219 l 254 219 l 254 477 l 46 477 l 46 625 l 254 625 l 254 886 l 404 886 l 404 625 z "},"²":{"ha":465,"x_min":35,"x_max":411,"o":"m 411 576 l 40 576 l 40 693 l 165 840 q 220 911 199 882 q 250 963 241 940 q 260 1013 260 987 q 244 1055 260 1038 q 199 1071 228 1071 q 147 1056 172 1071 q 98 1013 123 1042 l 35 1100 q 110 1161 60 1136 q 216 1186 159 1186 q 349 1141 302 1186 q 396 1026 396 1095 q 379 935 396 976 q 323 846 362 893 q 216 728 283 798 l 189 693 l 411 693 l 411 576 z "},"³":{"ha":465,"x_min":36,"x_max":411,"o":"m 215 1185 q 346 1145 296 1185 q 396 1036 396 1106 q 373 948 396 984 q 304 890 349 911 l 304 885 q 384 832 357 869 q 411 737 411 795 q 352 611 411 657 q 201 566 293 566 q 116 576 156 566 q 43 608 77 587 l 43 736 q 115 699 75 711 q 200 686 155 686 q 261 703 241 686 q 281 750 281 720 q 257 808 281 789 q 184 827 234 827 l 129 827 l 129 932 l 176 932 q 245 951 222 932 q 268 1006 268 971 q 253 1053 268 1036 q 203 1069 237 1069 q 148 1058 174 1069 q 94 1021 123 1046 l 36 1108 q 121 1165 76 1146 q 215 1185 166 1185 z "},"´":{"ha":432,"x_min":56,"x_max":376,"o":"m 376 1064 l 376 1051 q 340 1005 362 1031 q 291 949 317 979 q 236 892 264 920 q 184 842 209 864 l 56 842 l 56 860 q 100 931 80 897 q 138 1000 121 966 q 170 1064 155 1033 l 376 1064 z "},"µ":{"ha":696,"x_min":77,"x_max":618,"o":"m 618 760 l 618 0 l 476 0 l 456 97 l 447 97 q 418 38 435 62 q 380 0 401 13 q 335 -14 359 -14 q 288 1 306 -14 q 256 47 269 16 l 252 47 q 255 0 254 25 q 256 -51 256 -24 q 257 -103 257 -77 l 257 -334 l 77 -334 l 77 760 l 257 760 l 257 314 q 274 190 257 232 q 329 147 291 147 q 397 179 374 147 q 429 266 420 210 q 437 393 437 321 l 437 760 l 618 760 z "},"¶":{"ha":694,"x_min":60,"x_max":607,"o":"m 607 -176 l 504 -176 l 504 958 l 419 958 l 419 -176 l 317 -176 l 317 379 q 289 370 304 373 q 257 367 275 367 q 146 404 190 367 q 81 517 102 441 q 60 707 60 593 q 83 900 60 822 q 154 1016 106 977 q 278 1055 202 1055 l 607 1055 l 607 -176 z "},"·":{"ha":354,"x_min":71,"x_max":285,"o":"m 71 488 q 98 573 71 544 q 179 602 126 602 q 257 573 229 602 q 285 488 285 545 q 256 404 285 433 q 179 374 228 374 q 100 404 130 374 q 71 488 71 433 z "},"¸":{"ha":231,"x_min":-25,"x_max":250,"o":"m 250 -180 q 206 -293 250 -252 q 78 -334 161 -334 q 22 -330 47 -334 q -25 -322 -4 -327 l -25 -216 q 12 -224 -6 -222 q 45 -227 29 -227 q 93 -213 77 -227 q 110 -176 110 -200 q 84 -133 110 -149 q 12 -114 58 -117 l 60 0 l 151 0 l 127 -56 q 194 -79 167 -62 q 236 -121 221 -96 q 250 -180 250 -147 z "},"¹":{"ha":465,"x_min":47,"x_max":346,"o":"m 346 1171 l 346 576 l 211 576 l 211 867 q 211 914 211 890 q 212 961 212 937 q 215 1010 213 985 q 198 992 206 999 q 182 979 189 985 l 113 924 l 47 1013 l 236 1171 l 346 1171 z "},"º":{"ha":460,"x_min":35,"x_max":425,"o":"m 425 755 q 374 574 425 640 q 231 509 323 509 q 86 576 138 509 q 35 755 35 643 q 87 938 35 872 q 231 1003 140 1003 q 333 974 290 1003 q 401 890 377 945 q 425 755 425 835 m 165 755 q 181 651 165 685 q 231 616 197 616 q 280 651 265 616 q 296 755 296 685 q 280 861 296 826 q 231 896 264 896 q 182 861 198 896 q 165 755 165 826 z "},"»":{"ha":724,"x_min":43,"x_max":686,"o":"m 686 371 l 476 69 l 347 139 l 490 380 l 347 624 l 476 692 l 686 390 l 686 371 m 382 371 l 172 69 l 43 139 l 184 380 l 43 624 l 172 692 l 382 390 l 382 371 z "},"¼":{"ha":1108,"x_min":41,"x_max":1089,"o":"m 252 0 l 742 991 l 888 991 l 396 0 l 252 0 m 205 397 l 205 688 q 206 734 205 711 q 207 781 206 757 q 210 831 208 805 q 192 812 201 820 q 176 799 184 804 l 107 745 l 41 832 l 231 991 l 340 991 l 340 397 l 205 397 m 885 0 l 885 107 l 663 107 l 663 207 l 872 596 l 1017 596 l 1017 216 l 1089 216 l 1089 107 l 1017 107 l 1017 0 l 885 0 m 774 216 l 885 216 l 885 353 q 886 406 885 380 q 889 450 887 431 q 871 405 880 425 q 854 370 863 385 l 774 216 z "},"½":{"ha":1124,"x_min":41,"x_max":1069,"o":"m 231 0 l 721 991 l 867 991 l 375 0 l 231 0 m 205 397 l 205 688 q 205 722 205 705 q 206 757 205 739 q 207 793 206 774 q 210 831 208 812 q 192 812 201 820 q 176 799 184 804 l 107 745 l 41 832 l 231 991 l 340 991 l 340 397 l 205 397 m 699 0 l 699 117 l 823 258 q 881 329 860 300 q 911 381 902 357 q 920 432 920 406 q 903 476 920 459 q 857 493 886 493 q 805 479 830 493 q 757 435 781 465 l 693 524 q 768 585 719 559 q 875 610 817 610 q 1007 564 960 610 q 1054 450 1054 519 q 1039 361 1054 399 q 1000 289 1025 322 q 943 221 975 256 l 847 117 l 1069 117 l 1069 0 l 699 0 z "},"¾":{"ha":1116,"x_min":36,"x_max":1096,"o":"m 254 0 l 745 991 l 890 991 l 399 0 l 254 0 m 201 386 q 116 396 156 386 q 43 428 77 407 l 43 555 q 115 518 75 532 q 200 505 155 505 q 261 522 241 505 q 281 570 281 539 q 257 628 281 610 q 184 647 234 647 l 129 647 l 129 753 l 176 753 q 245 772 222 753 q 268 827 268 791 q 253 873 268 856 q 203 890 237 890 q 148 878 174 890 q 94 840 123 866 l 36 929 q 121 986 76 967 q 215 1006 166 1006 q 346 966 296 1006 q 396 857 396 927 q 373 768 396 805 q 304 711 349 731 l 304 705 q 384 653 357 689 q 411 557 411 616 q 352 432 411 478 q 201 386 293 386 m 892 0 l 892 107 l 669 107 l 669 207 l 879 596 l 1023 596 l 1023 216 l 1096 216 l 1096 107 l 1023 107 l 1023 0 l 892 0 m 781 216 l 892 216 l 892 353 q 893 406 892 380 q 896 450 894 431 q 878 405 887 425 q 861 370 869 385 l 781 216 z "},"¿":{"ha":513,"x_min":22,"x_max":506,"o":"m 368 432 l 368 380 q 360 299 368 335 q 332 233 351 264 q 282 168 313 201 q 234 111 252 136 q 208 60 216 85 q 200 4 200 35 q 223 -65 200 -41 q 289 -89 245 -89 q 365 -73 327 -89 q 445 -26 402 -56 l 506 -168 q 391 -231 448 -210 q 274 -252 333 -252 q 87 -188 151 -252 q 22 -12 22 -124 q 36 92 22 47 q 78 175 50 136 q 146 254 105 213 q 194 309 178 287 q 214 352 209 332 q 218 400 218 373 l 218 432 l 368 432 m 400 656 q 373 571 400 600 q 292 542 345 542 q 214 571 242 542 q 186 656 186 600 q 215 740 186 711 q 292 770 243 770 q 371 740 342 770 q 400 656 400 711 z "},"À":{"ha":730,"x_min":0,"x_max":730,"o":"m 528 0 l 476 239 l 256 239 l 204 0 l 0 0 l 240 991 l 486 991 l 730 0 l 528 0 m 447 404 l 393 667 q 383 730 388 699 q 373 790 378 762 q 366 844 369 819 q 359 792 363 821 q 350 732 355 764 q 338 669 345 701 l 285 404 l 447 404 m 350 1289 q 384 1220 363 1260 q 427 1144 405 1181 q 464 1085 449 1107 l 464 1067 l 335 1067 q 290 1110 317 1083 q 234 1168 263 1137 q 181 1229 205 1200 q 143 1276 157 1257 l 143 1289 l 350 1289 z "},"Á":{"ha":730,"x_min":0,"x_max":730,"o":"m 528 0 l 476 239 l 256 239 l 204 0 l 0 0 l 240 991 l 486 991 l 730 0 l 528 0 m 447 404 l 393 667 q 383 730 388 699 q 373 790 378 762 q 366 844 369 819 q 359 792 363 821 q 350 732 355 764 q 338 669 345 701 l 285 404 l 447 404 m 591 1289 l 591 1276 q 555 1230 577 1257 q 506 1175 532 1204 q 451 1117 479 1145 q 399 1067 424 1089 l 271 1067 l 271 1085 q 315 1157 295 1122 q 353 1225 336 1192 q 385 1289 370 1258 l 591 1289 z "},"Â":{"ha":730,"x_min":0,"x_max":730,"o":"m 528 0 l 476 239 l 256 239 l 204 0 l 0 0 l 240 991 l 486 991 l 730 0 l 528 0 m 447 404 l 393 667 q 383 730 388 699 q 373 790 378 762 q 366 844 369 819 q 359 792 363 821 q 350 732 355 764 q 338 669 345 701 l 285 404 l 447 404 m 448 1289 q 485 1224 464 1259 q 529 1155 505 1190 q 579 1085 553 1119 l 579 1067 l 471 1067 q 421 1116 447 1088 q 365 1179 395 1144 q 309 1114 335 1144 q 261 1067 282 1084 l 151 1067 l 151 1085 q 198 1150 173 1112 q 247 1225 224 1187 q 283 1289 270 1263 l 448 1289 z "},"Ã":{"ha":730,"x_min":0,"x_max":730,"o":"m 528 0 l 476 239 l 256 239 l 204 0 l 0 0 l 240 991 l 486 991 l 730 0 l 528 0 m 447 404 l 393 667 q 383 730 388 699 q 373 790 378 762 q 366 844 369 819 q 359 792 363 821 q 350 732 355 764 q 338 669 345 701 l 285 404 l 447 404 m 139 1065 q 145 1134 140 1098 q 163 1201 151 1170 q 200 1253 176 1233 q 260 1272 223 1272 q 313 1262 288 1272 q 361 1237 338 1251 q 408 1212 385 1223 q 452 1202 430 1202 q 480 1221 471 1202 q 494 1274 490 1240 l 593 1274 q 557 1120 591 1173 q 472 1067 522 1067 q 419 1078 446 1067 q 367 1102 392 1088 q 320 1127 342 1116 q 282 1138 298 1138 q 255 1121 267 1138 q 237 1065 242 1103 l 139 1065 z "},"Ä":{"ha":730,"x_min":0,"x_max":730,"o":"m 528 0 l 476 239 l 256 239 l 204 0 l 0 0 l 240 991 l 486 991 l 730 0 l 528 0 m 447 404 l 393 667 q 383 730 388 699 q 373 790 378 762 q 366 844 369 819 q 359 792 363 821 q 350 732 355 764 q 338 669 345 701 l 285 404 l 447 404 m 155 1171 q 178 1241 155 1217 q 239 1264 201 1264 q 300 1240 277 1264 q 323 1171 323 1215 q 300 1104 323 1128 q 239 1080 277 1080 q 178 1103 201 1080 q 155 1171 155 1126 m 407 1171 q 430 1241 407 1217 q 492 1264 453 1264 q 553 1240 530 1264 q 576 1171 576 1215 q 553 1104 576 1128 q 492 1080 530 1080 q 430 1104 453 1080 q 407 1171 407 1128 z "},"Å":{"ha":730,"x_min":0,"x_max":730,"o":"m 528 0 l 476 239 l 256 239 l 204 0 l 0 0 l 240 991 l 486 991 l 730 0 l 528 0 m 447 404 l 393 667 q 383 730 388 699 q 373 790 378 762 q 366 844 369 819 q 359 792 363 821 q 350 732 355 764 q 338 669 345 701 l 285 404 l 447 404 m 363 899 q 247 943 291 899 q 203 1057 203 987 q 247 1172 203 1128 q 363 1217 291 1217 q 481 1172 436 1217 q 526 1059 526 1127 q 482 944 526 989 q 363 899 438 899 m 366 996 q 411 1013 393 996 q 429 1059 429 1030 q 411 1103 429 1086 q 366 1121 393 1121 q 320 1103 338 1121 q 301 1059 301 1086 q 318 1013 301 1030 q 366 996 334 996 z "},"Æ":{"ha":961,"x_min":-4,"x_max":903,"o":"m 903 0 l 460 0 l 460 239 l 269 239 l 203 0 l -4 0 l 298 991 l 903 991 l 903 828 l 647 828 l 647 596 l 885 596 l 885 433 l 647 433 l 647 165 l 903 165 l 903 0 m 314 404 l 460 404 l 460 828 l 429 828 l 314 404 z "},"Ç":{"ha":671,"x_min":60,"x_max":637,"o":"m 429 842 q 353 816 386 842 q 299 743 321 790 q 268 632 278 696 q 257 493 257 568 q 278 306 257 382 q 340 191 299 230 q 439 151 380 151 q 526 167 485 151 q 608 204 568 182 l 608 35 q 516 -1 566 11 q 411 -14 467 -14 q 221 46 299 -14 q 101 219 142 105 q 60 494 60 332 q 83 699 60 606 q 152 861 106 792 q 263 968 197 930 q 415 1006 330 1006 q 530 991 475 1006 q 637 945 586 976 l 583 787 q 509 827 547 812 q 429 842 472 842 m 521 -180 q 476 -293 521 -252 q 349 -334 432 -334 q 292 -330 318 -334 q 245 -322 267 -327 l 245 -216 q 282 -224 264 -222 q 315 -227 300 -227 q 364 -213 347 -227 q 380 -176 380 -200 q 355 -133 380 -149 q 283 -114 329 -117 l 330 0 l 422 0 l 398 -56 q 465 -79 437 -62 q 506 -121 492 -96 q 521 -180 521 -147 z "},"È":{"ha":593,"x_min":89,"x_max":534,"o":"m 534 0 l 89 0 l 89 991 l 534 991 l 534 829 l 279 829 l 279 596 l 517 596 l 517 433 l 279 433 l 279 165 l 534 165 l 534 0 m 300 1289 q 334 1220 313 1260 q 377 1144 355 1181 q 414 1085 399 1107 l 414 1067 l 285 1067 q 240 1110 267 1083 q 184 1168 213 1137 q 131 1229 155 1200 q 93 1276 106 1257 l 93 1289 l 300 1289 z "},"É":{"ha":593,"x_min":89,"x_max":543,"o":"m 534 0 l 89 0 l 89 991 l 534 991 l 534 829 l 279 829 l 279 596 l 517 596 l 517 433 l 279 433 l 279 165 l 534 165 l 534 0 m 543 1289 l 543 1276 q 507 1230 529 1257 q 457 1175 484 1204 q 403 1117 431 1145 q 351 1067 376 1089 l 222 1067 l 222 1085 q 267 1157 247 1122 q 305 1225 288 1192 q 336 1289 322 1258 l 543 1289 z "},"Ê":{"ha":593,"x_min":89,"x_max":534,"o":"m 534 0 l 89 0 l 89 991 l 534 991 l 534 829 l 279 829 l 279 596 l 517 596 l 517 433 l 279 433 l 279 165 l 534 165 l 534 0 m 393 1289 q 429 1224 408 1259 q 474 1155 450 1190 q 524 1085 498 1119 l 524 1067 l 415 1067 q 365 1116 391 1088 q 309 1179 339 1144 q 253 1114 279 1144 q 205 1067 227 1084 l 96 1067 l 96 1085 q 143 1150 117 1112 q 191 1225 168 1187 q 227 1289 214 1263 l 393 1289 z "},"Ë":{"ha":593,"x_min":89,"x_max":534,"o":"m 534 0 l 89 0 l 89 991 l 534 991 l 534 829 l 279 829 l 279 596 l 517 596 l 517 433 l 279 433 l 279 165 l 534 165 l 534 0 m 98 1171 q 121 1241 98 1217 q 182 1264 144 1264 q 243 1240 220 1264 q 267 1171 267 1215 q 243 1104 267 1128 q 182 1080 220 1080 q 121 1103 144 1080 q 98 1171 98 1126 m 350 1171 q 373 1241 350 1217 q 435 1264 396 1264 q 496 1240 473 1264 q 519 1171 519 1215 q 496 1104 519 1128 q 435 1080 473 1080 q 373 1104 396 1080 q 350 1171 350 1128 z "},"Ì":{"ha":368,"x_min":-47,"x_max":279,"o":"m 89 0 l 89 991 l 279 991 l 279 0 l 89 0 m 160 1296 q 194 1227 173 1267 q 237 1151 215 1187 q 274 1092 259 1114 l 274 1074 l 145 1074 q 100 1117 127 1090 q 44 1175 73 1144 q -9 1235 16 1206 q -47 1283 -33 1264 l -47 1296 l 160 1296 z "},"Í":{"ha":368,"x_min":89,"x_max":414,"o":"m 89 0 l 89 991 l 279 991 l 279 0 l 89 0 m 414 1296 l 414 1283 q 377 1237 399 1263 q 328 1181 355 1211 q 274 1124 301 1152 q 222 1074 246 1096 l 93 1074 l 93 1092 q 138 1163 117 1128 q 175 1232 158 1198 q 207 1296 193 1265 l 414 1296 z "},"Î":{"ha":368,"x_min":-31,"x_max":397,"o":"m 89 0 l 89 991 l 279 991 l 279 0 l 89 0 m 267 1296 q 303 1231 282 1265 q 348 1161 323 1197 q 397 1092 372 1126 l 397 1074 l 289 1074 q 239 1123 265 1095 q 183 1186 213 1151 q 127 1121 153 1151 q 79 1074 100 1091 l -31 1074 l -31 1092 q 17 1157 -9 1119 q 65 1232 42 1194 q 101 1296 88 1270 l 267 1296 z "},"Ï":{"ha":368,"x_min":-28,"x_max":393,"o":"m 89 0 l 89 991 l 279 991 l 279 0 l 89 0 m -28 1178 q -5 1247 -28 1224 q 55 1271 18 1271 q 117 1246 94 1271 q 140 1178 140 1222 q 117 1111 140 1135 q 55 1086 94 1086 q -5 1110 18 1086 q -28 1178 -28 1133 m 223 1178 q 246 1247 223 1224 q 308 1271 269 1271 q 370 1246 347 1271 q 393 1178 393 1222 q 370 1111 393 1135 q 308 1086 347 1086 q 246 1111 269 1086 q 223 1178 223 1135 z "},"Ð":{"ha":777,"x_min":11,"x_max":717,"o":"m 336 991 q 544 937 458 991 q 673 775 629 882 q 717 514 717 669 q 671 233 717 348 q 537 59 625 119 q 322 0 450 0 l 89 0 l 89 440 l 11 440 l 11 583 l 89 583 l 89 991 l 336 991 m 334 827 l 279 827 l 279 583 l 389 583 l 389 440 l 279 440 l 279 167 l 321 167 q 472 250 424 167 q 521 505 521 334 q 500 688 521 616 q 437 793 479 759 q 334 827 395 827 z "},"Ñ":{"ha":863,"x_min":89,"x_max":775,"o":"m 775 0 l 551 0 l 261 692 l 256 692 q 262 601 260 644 q 266 524 264 559 q 267 460 267 488 l 267 0 l 89 0 l 89 991 l 311 991 l 600 315 l 606 315 q 601 402 603 362 q 597 477 599 443 q 596 541 596 512 l 596 991 l 775 991 l 775 0 m 207 1065 q 213 1134 208 1098 q 231 1201 218 1170 q 268 1253 244 1233 q 328 1272 291 1272 q 380 1262 355 1272 q 429 1237 406 1251 q 475 1212 453 1223 q 519 1202 498 1202 q 548 1221 538 1202 q 562 1274 557 1240 l 661 1274 q 625 1120 659 1173 q 540 1067 590 1067 q 487 1078 513 1067 q 435 1102 460 1088 q 388 1127 410 1116 q 350 1138 366 1138 q 322 1121 335 1138 q 305 1065 310 1103 l 207 1065 z "},"Ò":{"ha":823,"x_min":60,"x_max":764,"o":"m 764 497 q 742 284 764 379 q 677 123 720 190 q 567 22 633 57 q 412 -14 501 -14 q 256 22 323 -14 q 146 125 190 58 q 81 286 103 192 q 60 498 60 380 q 100 779 60 665 q 218 949 140 892 q 412 1007 297 1007 q 610 945 532 1007 q 726 769 688 884 q 764 497 764 655 m 257 497 q 275 307 257 383 q 327 192 292 231 q 412 154 361 154 q 498 191 464 154 q 550 304 532 229 q 567 497 567 380 q 528 756 567 671 q 412 842 490 842 q 327 803 361 842 q 275 688 292 764 q 257 497 257 611 m 399 1289 q 433 1220 412 1260 q 476 1144 454 1181 q 513 1085 498 1107 l 513 1067 l 384 1067 q 339 1110 366 1083 q 283 1168 312 1137 q 230 1229 254 1200 q 192 1276 205 1257 l 192 1289 l 399 1289 z "},"Ó":{"ha":823,"x_min":60,"x_max":764,"o":"m 764 497 q 742 284 764 379 q 677 123 720 190 q 567 22 633 57 q 412 -14 501 -14 q 256 22 323 -14 q 146 125 190 58 q 81 286 103 192 q 60 498 60 380 q 100 779 60 665 q 218 949 140 892 q 412 1007 297 1007 q 610 945 532 1007 q 726 769 688 884 q 764 497 764 655 m 257 497 q 275 307 257 383 q 327 192 292 231 q 412 154 361 154 q 498 191 464 154 q 550 304 532 229 q 567 497 567 380 q 528 756 567 671 q 412 842 490 842 q 327 803 361 842 q 275 688 292 764 q 257 497 257 611 m 652 1289 l 652 1276 q 615 1230 637 1257 q 566 1175 593 1204 q 512 1117 539 1145 q 460 1067 484 1089 l 331 1067 l 331 1085 q 376 1157 355 1122 q 413 1225 396 1192 q 445 1289 431 1258 l 652 1289 z "},"Ô":{"ha":823,"x_min":60,"x_max":764,"o":"m 764 497 q 742 284 764 379 q 677 123 720 190 q 567 22 633 57 q 412 -14 501 -14 q 256 22 323 -14 q 146 125 190 58 q 81 286 103 192 q 60 498 60 380 q 100 779 60 665 q 218 949 140 892 q 412 1007 297 1007 q 610 945 532 1007 q 726 769 688 884 q 764 497 764 655 m 257 497 q 275 307 257 383 q 327 192 292 231 q 412 154 361 154 q 498 191 464 154 q 550 304 532 229 q 567 497 567 380 q 528 756 567 671 q 412 842 490 842 q 327 803 361 842 q 275 688 292 764 q 257 497 257 611 m 496 1289 q 532 1224 511 1259 q 577 1155 553 1190 q 627 1085 601 1119 l 627 1067 l 518 1067 q 468 1116 494 1088 q 412 1179 442 1144 q 356 1114 382 1144 q 309 1067 330 1084 l 199 1067 l 199 1085 q 246 1150 220 1112 q 294 1225 271 1187 q 330 1289 317 1263 l 496 1289 z "},"Õ":{"ha":823,"x_min":60,"x_max":764,"o":"m 764 497 q 742 284 764 379 q 677 123 720 190 q 567 22 633 57 q 412 -14 501 -14 q 256 22 323 -14 q 146 125 190 58 q 81 286 103 192 q 60 498 60 380 q 100 779 60 665 q 218 949 140 892 q 412 1007 297 1007 q 610 945 532 1007 q 726 769 688 884 q 764 497 764 655 m 257 497 q 275 307 257 383 q 327 192 292 231 q 412 154 361 154 q 498 191 464 154 q 550 304 532 229 q 567 497 567 380 q 528 756 567 671 q 412 842 490 842 q 327 803 361 842 q 275 688 292 764 q 257 497 257 611 m 188 1065 q 194 1134 189 1098 q 212 1201 199 1170 q 249 1253 225 1233 q 309 1272 272 1272 q 361 1262 336 1272 q 410 1237 387 1251 q 456 1212 434 1223 q 500 1202 479 1202 q 529 1221 519 1202 q 543 1274 538 1240 l 642 1274 q 606 1120 640 1173 q 521 1067 571 1067 q 468 1078 494 1067 q 416 1102 441 1088 q 369 1127 391 1116 q 331 1138 347 1138 q 303 1121 316 1138 q 286 1065 291 1103 l 188 1065 z "},"Ö":{"ha":823,"x_min":60,"x_max":764,"o":"m 764 497 q 742 284 764 379 q 677 123 720 190 q 567 22 633 57 q 412 -14 501 -14 q 256 22 323 -14 q 146 125 190 58 q 81 286 103 192 q 60 498 60 380 q 100 779 60 665 q 218 949 140 892 q 412 1007 297 1007 q 610 945 532 1007 q 726 769 688 884 q 764 497 764 655 m 257 497 q 275 307 257 383 q 327 192 292 231 q 412 154 361 154 q 498 191 464 154 q 550 304 532 229 q 567 497 567 380 q 528 756 567 671 q 412 842 490 842 q 327 803 361 842 q 275 688 292 764 q 257 497 257 611 m 204 1171 q 227 1241 204 1217 q 288 1264 250 1264 q 349 1240 326 1264 q 372 1171 372 1215 q 349 1104 372 1128 q 288 1080 326 1080 q 227 1103 250 1080 q 204 1171 204 1126 m 456 1171 q 479 1241 456 1217 q 541 1264 502 1264 q 602 1240 579 1264 q 625 1171 625 1215 q 602 1104 625 1128 q 541 1080 579 1080 q 479 1104 502 1080 q 456 1171 456 1128 z "},"×":{"ha":657,"x_min":49,"x_max":608,"o":"m 505 771 l 608 669 l 429 490 l 606 313 l 504 211 l 326 387 l 147 211 l 49 314 l 224 490 l 49 667 l 149 770 l 326 595 l 505 771 z "},"Ø":{"ha":823,"x_min":60,"x_max":764,"o":"m 764 497 q 741 278 764 373 q 674 118 718 182 q 564 20 629 53 q 412 -14 498 -14 q 322 -2 363 -14 q 244 32 280 9 l 196 -71 l 100 -26 l 164 102 q 83 277 106 178 q 60 498 60 375 q 100 779 60 665 q 218 949 140 892 q 412 1007 297 1007 q 506 994 463 1007 q 586 956 550 981 l 632 1048 l 726 1004 l 667 884 q 740 723 715 820 q 764 497 764 625 m 572 497 q 568 591 572 547 q 557 669 564 634 l 319 191 q 361 158 337 169 q 412 147 385 147 q 501 186 465 147 q 554 303 536 225 q 572 497 572 380 m 253 497 q 257 393 253 440 q 271 309 262 346 l 513 793 q 469 833 493 821 q 414 846 444 846 q 324 807 360 846 q 271 690 288 768 q 253 497 253 612 z "},"Ù":{"ha":781,"x_min":83,"x_max":697,"o":"m 697 991 l 697 326 q 662 137 697 212 q 558 24 627 62 q 389 -14 490 -14 q 162 70 241 -14 q 83 322 83 153 l 83 991 l 273 991 l 273 329 q 303 194 273 235 q 390 154 333 154 q 456 171 430 154 q 495 227 482 189 q 509 330 509 266 l 509 991 l 697 991 m 380 1289 q 414 1220 393 1260 q 457 1144 435 1181 q 494 1085 479 1107 l 494 1067 l 366 1067 q 320 1110 347 1083 q 265 1168 294 1137 q 212 1229 236 1200 q 174 1276 187 1257 l 174 1289 l 380 1289 z "},"Ú":{"ha":781,"x_min":83,"x_max":697,"o":"m 697 991 l 697 326 q 662 137 697 212 q 558 24 627 62 q 389 -14 490 -14 q 162 70 241 -14 q 83 322 83 153 l 83 991 l 273 991 l 273 329 q 303 194 273 235 q 390 154 333 154 q 456 171 430 154 q 495 227 482 189 q 509 330 509 266 l 509 991 l 697 991 m 628 1289 l 628 1276 q 591 1230 614 1257 q 542 1175 569 1204 q 488 1117 515 1145 q 436 1067 460 1089 l 307 1067 l 307 1085 q 352 1157 332 1122 q 390 1225 372 1192 q 421 1289 407 1258 l 628 1289 z "},"Û":{"ha":781,"x_min":83,"x_max":697,"o":"m 697 991 l 697 326 q 662 137 697 212 q 558 24 627 62 q 389 -14 490 -14 q 162 70 241 -14 q 83 322 83 153 l 83 991 l 273 991 l 273 329 q 303 194 273 235 q 390 154 333 154 q 456 171 430 154 q 495 227 482 189 q 509 330 509 266 l 509 991 l 697 991 m 473 1289 q 510 1224 489 1259 q 554 1155 530 1190 q 604 1085 578 1119 l 604 1067 l 496 1067 q 446 1116 472 1088 q 390 1179 420 1144 q 334 1114 360 1144 q 286 1067 307 1084 l 176 1067 l 176 1085 q 223 1150 198 1112 q 272 1225 249 1187 q 308 1289 295 1263 l 473 1289 z "},"Ü":{"ha":781,"x_min":83,"x_max":697,"o":"m 697 991 l 697 326 q 662 137 697 212 q 558 24 627 62 q 389 -14 490 -14 q 162 70 241 -14 q 83 322 83 153 l 83 991 l 273 991 l 273 329 q 303 194 273 235 q 390 154 333 154 q 456 171 430 154 q 495 227 482 189 q 509 330 509 266 l 509 991 l 697 991 m 180 1171 q 203 1241 180 1217 q 264 1264 227 1264 q 326 1240 302 1264 q 349 1171 349 1215 q 326 1104 349 1128 q 264 1080 302 1080 q 203 1103 227 1080 q 180 1171 180 1126 m 432 1171 q 455 1241 432 1217 q 517 1264 478 1264 q 578 1240 555 1264 q 602 1171 602 1215 q 578 1104 602 1128 q 517 1080 555 1080 q 455 1104 478 1080 q 432 1171 432 1128 z "},"Ý":{"ha":659,"x_min":0,"x_max":659,"o":"m 330 589 l 463 991 l 659 991 l 424 382 l 424 0 l 235 0 l 235 376 l 0 991 l 197 991 l 330 589 m 568 1289 l 568 1276 q 532 1230 554 1257 q 483 1175 509 1204 q 428 1117 456 1145 q 376 1067 401 1089 l 248 1067 l 248 1085 q 292 1157 272 1122 q 330 1225 313 1192 q 361 1289 347 1258 l 568 1289 z "},"Þ":{"ha":660,"x_min":89,"x_max":629,"o":"m 629 532 q 612 398 629 459 q 559 291 595 336 q 467 221 523 246 q 334 196 411 196 l 279 196 l 279 0 l 89 0 l 89 991 l 279 991 l 279 836 l 338 836 q 557 759 486 836 q 629 532 629 681 m 279 358 l 315 358 q 387 376 359 358 q 428 431 414 393 q 441 529 441 469 q 414 638 441 604 q 328 673 386 673 l 279 673 l 279 358 z "},"ß":{"ha":745,"x_min":78,"x_max":707,"o":"m 642 829 q 628 745 642 780 q 595 685 614 711 q 555 640 575 660 q 522 600 536 620 q 509 557 509 581 q 516 526 509 542 q 541 492 524 509 q 582 453 557 474 q 651 385 624 418 q 693 314 679 351 q 707 227 707 276 q 680 95 707 149 q 601 14 653 41 q 475 -14 549 -14 q 394 -5 435 -14 q 314 25 352 4 l 314 196 q 358 168 336 180 q 405 150 381 156 q 450 143 428 143 q 506 162 488 143 q 524 212 524 180 q 516 253 524 235 q 489 292 508 271 q 435 340 469 312 q 366 413 389 378 q 334 480 342 448 q 326 545 326 513 q 340 612 326 584 q 373 664 353 641 q 413 708 393 686 q 446 756 433 730 q 460 818 460 783 q 437 884 460 858 q 366 909 414 909 q 307 891 331 909 q 271 837 283 873 q 258 747 258 801 l 258 0 l 78 0 l 78 765 q 113 924 78 857 q 213 1026 148 990 q 367 1063 277 1063 q 511 1035 449 1063 q 607 955 572 1007 q 642 829 642 903 z "},"à":{"ha":644,"x_min":40,"x_max":568,"o":"m 342 774 q 510 706 452 774 q 568 503 568 637 l 568 0 l 436 0 l 407 102 l 403 102 q 354 37 380 63 q 294 -1 328 12 q 216 -14 261 -14 q 114 20 153 -14 q 58 109 75 54 q 40 224 40 163 q 106 404 40 342 q 293 469 172 465 l 387 473 l 387 504 q 368 597 387 566 q 304 628 349 628 q 233 615 272 628 q 149 575 195 602 l 98 710 q 212 758 150 741 q 342 774 273 774 m 387 353 l 336 350 q 251 318 279 347 q 222 232 222 288 q 240 156 222 181 q 290 131 257 131 q 360 172 333 131 q 387 283 387 214 l 387 353 m 334 1064 q 368 995 347 1035 q 411 919 389 956 q 448 860 433 882 l 448 842 l 319 842 q 274 885 301 858 q 219 943 248 912 q 165 1003 190 975 q 127 1051 141 1032 l 127 1064 l 334 1064 z "},"á":{"ha":644,"x_min":40,"x_max":568,"o":"m 342 774 q 510 706 452 774 q 568 503 568 637 l 568 0 l 436 0 l 407 102 l 403 102 q 354 37 380 63 q 294 -1 328 12 q 216 -14 261 -14 q 114 20 153 -14 q 58 109 75 54 q 40 224 40 163 q 106 404 40 342 q 293 469 172 465 l 387 473 l 387 504 q 368 597 387 566 q 304 628 349 628 q 233 615 272 628 q 149 575 195 602 l 98 710 q 212 758 150 741 q 342 774 273 774 m 387 353 l 336 350 q 251 318 279 347 q 222 232 222 288 q 240 156 222 181 q 290 131 257 131 q 360 172 333 131 q 387 283 387 214 l 387 353 m 557 1064 l 557 1051 q 520 1005 543 1031 q 471 949 498 979 q 417 892 444 920 q 365 842 389 864 l 236 842 l 236 860 q 281 931 260 897 q 318 1000 301 966 q 350 1064 336 1033 l 557 1064 z "},"â":{"ha":644,"x_min":40,"x_max":568,"o":"m 342 774 q 510 706 452 774 q 568 503 568 637 l 568 0 l 436 0 l 407 102 l 403 102 q 354 37 380 63 q 294 -1 328 12 q 216 -14 261 -14 q 114 20 153 -14 q 58 109 75 54 q 40 224 40 163 q 106 404 40 342 q 293 469 172 465 l 387 473 l 387 504 q 368 597 387 566 q 304 628 349 628 q 233 615 272 628 q 149 575 195 602 l 98 710 q 212 758 150 741 q 342 774 273 774 m 387 353 l 336 350 q 251 318 279 347 q 222 232 222 288 q 240 156 222 181 q 290 131 257 131 q 360 172 333 131 q 387 283 387 214 l 387 353 m 416 1064 q 453 999 432 1034 q 497 929 473 965 q 547 860 522 894 l 547 842 l 439 842 q 389 891 415 863 q 333 954 363 919 q 277 889 303 919 q 229 842 250 859 l 119 842 l 119 860 q 166 925 141 887 q 215 1000 192 962 q 251 1064 238 1038 l 416 1064 z "},"ã":{"ha":644,"x_min":40,"x_max":568,"o":"m 342 774 q 510 706 452 774 q 568 503 568 637 l 568 0 l 436 0 l 407 102 l 403 102 q 354 37 380 63 q 294 -1 328 12 q 216 -14 261 -14 q 114 20 153 -14 q 58 109 75 54 q 40 224 40 163 q 106 404 40 342 q 293 469 172 465 l 387 473 l 387 504 q 368 597 387 566 q 304 628 349 628 q 233 615 272 628 q 149 575 195 602 l 98 710 q 212 758 150 741 q 342 774 273 774 m 387 353 l 336 350 q 251 318 279 347 q 222 232 222 288 q 240 156 222 181 q 290 131 257 131 q 360 172 333 131 q 387 283 387 214 l 387 353 m 106 840 q 112 909 107 873 q 130 976 117 945 q 166 1027 143 1008 q 227 1047 190 1047 q 279 1037 254 1047 q 328 1012 304 1026 q 374 987 352 998 q 418 977 397 977 q 447 996 437 977 q 461 1048 456 1015 l 560 1048 q 524 895 558 948 q 439 842 489 842 q 386 852 412 842 q 334 877 359 863 q 287 902 309 891 q 249 913 265 913 q 221 896 234 913 q 204 840 209 878 l 106 840 z "},"ä":{"ha":644,"x_min":40,"x_max":568,"o":"m 342 774 q 510 706 452 774 q 568 503 568 637 l 568 0 l 436 0 l 407 102 l 403 102 q 354 37 380 63 q 294 -1 328 12 q 216 -14 261 -14 q 114 20 153 -14 q 58 109 75 54 q 40 224 40 163 q 106 404 40 342 q 293 469 172 465 l 387 473 l 387 504 q 368 597 387 566 q 304 628 349 628 q 233 615 272 628 q 149 575 195 602 l 98 710 q 212 758 150 741 q 342 774 273 774 m 387 353 l 336 350 q 251 318 279 347 q 222 232 222 288 q 240 156 222 181 q 290 131 257 131 q 360 172 333 131 q 387 283 387 214 l 387 353 m 122 946 q 145 1016 122 992 q 205 1039 168 1039 q 267 1015 244 1039 q 290 946 290 990 q 267 879 290 903 q 205 854 244 854 q 145 878 168 854 q 122 946 122 901 m 374 946 q 397 1016 374 992 q 458 1039 420 1039 q 520 1015 497 1039 q 543 946 543 990 q 520 879 543 903 q 458 854 497 854 q 397 879 420 854 q 374 946 374 903 z "},"å":{"ha":644,"x_min":40,"x_max":568,"o":"m 342 774 q 510 706 452 774 q 568 503 568 637 l 568 0 l 436 0 l 407 102 l 403 102 q 354 37 380 63 q 294 -1 328 12 q 216 -14 261 -14 q 114 20 153 -14 q 58 109 75 54 q 40 224 40 163 q 106 404 40 342 q 293 469 172 465 l 387 473 l 387 504 q 368 597 387 566 q 304 628 349 628 q 233 615 272 628 q 149 575 195 602 l 98 710 q 212 758 150 741 q 342 774 273 774 m 387 353 l 336 350 q 251 318 279 347 q 222 232 222 288 q 240 156 222 181 q 290 131 257 131 q 360 172 333 131 q 387 283 387 214 l 387 353 m 332 842 q 215 886 259 842 q 171 1000 171 930 q 215 1115 171 1071 q 332 1160 259 1160 q 449 1115 404 1160 q 494 1002 494 1070 q 450 887 494 932 q 332 842 406 842 m 334 939 q 379 956 361 939 q 397 1002 397 973 q 379 1046 397 1029 q 334 1064 361 1064 q 288 1046 307 1064 q 269 1002 269 1029 q 286 956 269 973 q 334 939 302 939 z "},"æ":{"ha":965,"x_min":40,"x_max":920,"o":"m 659 772 q 803 730 745 772 q 890 611 861 688 q 920 429 920 534 l 920 328 l 558 328 q 594 180 559 228 q 701 132 629 132 q 793 145 749 132 q 885 189 838 159 l 885 39 q 791 -1 840 12 q 681 -14 741 -14 q 585 1 631 -14 q 504 44 540 15 q 444 118 467 74 q 384 44 416 73 q 314 1 352 15 q 232 -14 277 -14 q 122 20 165 -14 q 60 109 80 54 q 40 224 40 163 q 70 356 40 303 q 156 438 99 410 q 293 469 212 466 l 387 473 l 387 504 q 367 597 387 566 q 304 628 347 628 q 233 615 272 628 q 149 575 195 602 l 98 710 q 203 757 146 740 q 321 774 260 774 q 421 754 380 774 q 486 693 461 734 q 558 753 516 733 q 659 772 601 772 m 387 353 l 336 350 q 251 318 279 347 q 222 232 222 290 q 240 156 222 181 q 290 131 257 131 q 341 150 319 131 q 375 203 363 168 q 387 283 387 237 l 387 353 m 657 629 q 587 589 614 629 q 558 458 560 549 l 751 458 q 741 551 751 513 q 709 609 730 589 q 657 629 688 629 z "},"ç":{"ha":554,"x_min":50,"x_max":524,"o":"m 335 -14 q 177 29 240 -14 q 82 158 113 71 q 50 376 50 244 q 81 582 50 492 q 175 723 111 671 q 338 774 239 774 q 439 761 394 774 q 524 724 484 749 l 473 579 q 412 607 442 598 q 351 616 382 616 q 288 589 314 616 q 247 508 261 562 q 233 376 233 455 q 247 246 233 298 q 288 168 261 194 q 354 142 315 142 q 432 156 393 142 q 509 197 471 170 l 509 43 q 427 0 472 14 q 335 -14 382 -14 m 470 -180 q 426 -293 470 -252 q 298 -334 381 -334 q 241 -330 267 -334 q 195 -322 216 -327 l 195 -216 q 231 -224 214 -222 q 264 -227 249 -227 q 313 -213 296 -227 q 330 -176 330 -200 q 304 -133 330 -149 q 232 -114 278 -117 l 279 0 l 371 0 l 347 -56 q 414 -79 387 -62 q 455 -121 441 -96 q 470 -180 470 -147 z "},"è":{"ha":635,"x_min":50,"x_max":590,"o":"m 325 772 q 470 730 410 772 q 559 611 529 688 q 590 429 590 534 l 590 328 l 228 328 q 264 181 229 228 q 372 134 300 134 q 464 146 420 134 q 555 189 507 159 l 555 39 q 458 -1 510 12 q 347 -14 407 -14 q 177 34 243 -14 q 81 168 111 81 q 50 375 50 255 q 81 592 50 503 q 173 726 112 680 q 325 772 234 772 m 329 631 q 258 590 284 631 q 229 458 231 550 l 422 458 q 412 551 422 512 q 380 610 401 589 q 329 631 359 631 m 325 1064 q 359 995 338 1035 q 402 919 380 956 q 439 860 424 882 l 439 842 l 310 842 q 265 885 292 858 q 209 943 238 912 q 156 1003 180 975 q 118 1051 132 1032 l 118 1064 l 325 1064 z "},"é":{"ha":635,"x_min":50,"x_max":590,"o":"m 325 772 q 470 730 410 772 q 559 611 529 688 q 590 429 590 534 l 590 328 l 228 328 q 264 181 229 228 q 372 134 300 134 q 464 146 420 134 q 555 189 507 159 l 555 39 q 458 -1 510 12 q 347 -14 407 -14 q 177 34 243 -14 q 81 168 111 81 q 50 375 50 255 q 81 592 50 503 q 173 726 112 680 q 325 772 234 772 m 329 631 q 258 590 284 631 q 229 458 231 550 l 422 458 q 412 551 422 512 q 380 610 401 589 q 329 631 359 631 m 547 1064 l 547 1051 q 511 1005 533 1031 q 461 949 488 979 q 407 892 435 920 q 355 842 380 864 l 227 842 l 227 860 q 271 931 251 897 q 309 1000 292 966 q 340 1064 326 1033 l 547 1064 z "},"ê":{"ha":635,"x_min":50,"x_max":590,"o":"m 325 772 q 470 730 410 772 q 559 611 529 688 q 590 429 590 534 l 590 328 l 228 328 q 264 181 229 228 q 372 134 300 134 q 464 146 420 134 q 555 189 507 159 l 555 39 q 458 -1 510 12 q 347 -14 407 -14 q 177 34 243 -14 q 81 168 111 81 q 50 375 50 255 q 81 592 50 503 q 173 726 112 680 q 325 772 234 772 m 329 631 q 258 590 284 631 q 229 458 231 550 l 422 458 q 412 551 422 512 q 380 610 401 589 q 329 631 359 631 m 407 1064 q 443 999 422 1034 q 488 929 464 965 q 538 860 512 894 l 538 842 l 429 842 q 379 891 406 863 q 323 954 353 919 q 267 889 294 919 q 220 842 241 859 l 110 842 l 110 860 q 157 925 132 887 q 205 1000 182 962 q 241 1064 229 1038 l 407 1064 z "},"ë":{"ha":635,"x_min":50,"x_max":590,"o":"m 325 772 q 470 730 410 772 q 559 611 529 688 q 590 429 590 534 l 590 328 l 228 328 q 264 181 229 228 q 372 134 300 134 q 464 146 420 134 q 555 189 507 159 l 555 39 q 458 -1 510 12 q 347 -14 407 -14 q 177 34 243 -14 q 81 168 111 81 q 50 375 50 255 q 81 592 50 503 q 173 726 112 680 q 325 772 234 772 m 329 631 q 258 590 284 631 q 229 458 231 550 l 422 458 q 412 551 422 512 q 380 610 401 589 q 329 631 359 631 m 113 946 q 136 1016 113 992 q 196 1039 159 1039 q 258 1015 235 1039 q 281 946 281 990 q 258 879 281 903 q 196 854 235 854 q 136 878 159 854 q 113 946 113 901 m 364 946 q 387 1016 364 992 q 449 1039 410 1039 q 511 1015 488 1039 q 534 946 534 990 q 511 879 534 903 q 449 854 488 854 q 387 879 410 854 q 364 946 364 903 z "},"ì":{"ha":339,"x_min":-37,"x_max":283,"o":"m 260 0 l 79 0 l 79 760 l 260 760 l 260 0 m 170 1064 q 203 995 182 1035 q 247 919 224 956 q 283 860 269 882 l 283 842 l 155 842 q 110 885 136 858 q 54 943 83 912 q 1 1003 25 975 q -37 1051 -24 1032 l -37 1064 l 170 1064 z "},"í":{"ha":339,"x_min":71,"x_max":392,"o":"m 260 0 l 79 0 l 79 760 l 260 760 l 260 0 m 392 1064 l 392 1051 q 355 1005 378 1031 q 306 949 333 979 q 252 892 279 920 q 200 842 224 864 l 71 842 l 71 860 q 116 931 96 897 q 154 1000 136 966 q 185 1064 171 1033 l 392 1064 z "},"î":{"ha":339,"x_min":-46,"x_max":382,"o":"m 260 0 l 79 0 l 79 760 l 260 760 l 260 0 m 251 1064 q 287 999 267 1034 q 332 929 308 965 q 382 860 356 894 l 382 842 l 273 842 q 223 891 250 863 q 168 954 197 919 q 111 889 138 919 q 64 842 85 859 l -46 842 l -46 860 q 1 925 -24 887 q 50 1000 26 962 q 85 1064 73 1038 l 251 1064 z "},"ï":{"ha":339,"x_min":-43,"x_max":378,"o":"m 260 0 l 79 0 l 79 760 l 260 760 l 260 0 m -43 946 q -20 1016 -43 992 q 40 1039 3 1039 q 102 1015 79 1039 q 125 946 125 990 q 102 879 125 903 q 40 854 79 854 q -20 878 3 854 q -43 946 -43 901 m 208 946 q 231 1016 208 992 q 293 1039 254 1039 q 355 1015 332 1039 q 378 946 378 990 q 355 879 378 903 q 293 854 332 854 q 231 879 254 854 q 208 946 208 903 z "},"ð":{"ha":679,"x_min":50,"x_max":629,"o":"m 262 1064 q 316 1031 288 1049 q 372 989 343 1013 l 471 1064 l 541 977 l 453 911 q 547 770 508 847 q 608 597 587 694 q 629 375 629 500 q 595 165 629 252 q 496 32 562 78 q 338 -14 431 -14 q 184 31 248 -14 q 85 153 119 75 q 50 334 50 231 q 85 519 50 443 q 179 636 120 595 q 310 676 238 676 q 348 672 330 676 q 381 662 366 669 q 410 643 397 654 l 414 646 q 382 731 404 690 q 330 812 361 773 l 240 745 l 172 831 l 261 899 q 222 932 242 916 q 183 962 203 948 l 262 1064 m 340 522 q 280 501 304 522 q 245 437 256 480 q 233 329 233 395 q 244 229 233 271 q 279 162 256 186 q 340 139 303 139 q 421 188 397 139 q 446 335 446 237 q 439 413 446 378 q 420 472 433 448 q 388 509 408 496 q 340 522 368 522 z "},"ñ":{"ha":696,"x_min":78,"x_max":619,"o":"m 419 774 q 567 704 515 774 q 619 503 619 635 l 619 0 l 439 0 l 439 450 q 422 571 439 530 q 361 612 406 612 q 281 557 304 612 q 258 366 258 501 l 258 0 l 78 0 l 78 760 l 221 760 l 240 663 l 252 663 q 293 723 269 699 q 349 761 317 748 q 419 774 381 774 m 134 840 q 140 909 135 873 q 158 976 145 945 q 194 1027 171 1008 q 254 1047 218 1047 q 307 1037 282 1047 q 356 1012 332 1026 q 402 987 380 998 q 446 977 425 977 q 475 996 465 977 q 489 1048 484 1015 l 588 1048 q 551 895 586 948 q 467 842 517 842 q 413 852 440 842 q 361 877 387 863 q 315 902 336 891 q 277 913 293 913 q 249 896 262 913 q 232 840 237 878 l 134 840 z "},"ò":{"ha":677,"x_min":50,"x_max":628,"o":"m 628 382 q 612 231 628 302 q 562 105 596 160 q 472 18 528 50 q 338 -14 417 -14 q 210 18 264 -14 q 120 103 155 49 q 67 230 85 158 q 50 382 50 301 q 80 585 50 496 q 175 724 111 673 q 340 774 239 774 q 493 728 428 774 q 593 596 557 683 q 628 382 628 509 m 233 379 q 244 247 233 300 q 279 166 256 193 q 339 139 302 139 q 399 166 376 139 q 432 247 422 193 q 443 382 443 301 q 432 515 443 462 q 399 594 422 568 q 339 621 376 621 q 258 562 283 621 q 233 379 233 503 m 340 1064 q 374 995 353 1035 q 417 919 395 956 q 454 860 439 882 l 454 842 l 326 842 q 280 885 307 858 q 225 943 254 912 q 172 1003 196 975 q 134 1051 147 1032 l 134 1064 l 340 1064 z "},"ó":{"ha":677,"x_min":50,"x_max":628,"o":"m 628 382 q 612 231 628 302 q 562 105 596 160 q 472 18 528 50 q 338 -14 417 -14 q 210 18 264 -14 q 120 103 155 49 q 67 230 85 158 q 50 382 50 301 q 80 585 50 496 q 175 724 111 673 q 340 774 239 774 q 493 728 428 774 q 593 596 557 683 q 628 382 628 509 m 233 379 q 244 247 233 300 q 279 166 256 193 q 339 139 302 139 q 399 166 376 139 q 432 247 422 193 q 443 382 443 301 q 432 515 443 462 q 399 594 422 568 q 339 621 376 621 q 258 562 283 621 q 233 379 233 503 m 562 1064 l 562 1051 q 526 1005 548 1031 q 476 949 503 979 q 422 892 450 920 q 370 842 395 864 l 241 842 l 241 860 q 286 931 266 897 q 324 1000 307 966 q 355 1064 341 1033 l 562 1064 z "},"ô":{"ha":677,"x_min":50,"x_max":628,"o":"m 628 382 q 612 231 628 302 q 562 105 596 160 q 472 18 528 50 q 338 -14 417 -14 q 210 18 264 -14 q 120 103 155 49 q 67 230 85 158 q 50 382 50 301 q 80 585 50 496 q 175 724 111 673 q 340 774 239 774 q 493 728 428 774 q 593 596 557 683 q 628 382 628 509 m 233 379 q 244 247 233 300 q 279 166 256 193 q 339 139 302 139 q 399 166 376 139 q 432 247 422 193 q 443 382 443 301 q 432 515 443 462 q 399 594 422 568 q 339 621 376 621 q 258 562 283 621 q 233 379 233 503 m 422 1064 q 458 999 437 1034 q 503 929 479 965 q 553 860 527 894 l 553 842 l 444 842 q 394 891 420 863 q 338 954 368 919 q 282 889 309 919 q 235 842 256 859 l 125 842 l 125 860 q 172 925 146 887 q 220 1000 197 962 q 256 1064 243 1038 l 422 1064 z "},"õ":{"ha":677,"x_min":50,"x_max":628,"o":"m 628 382 q 612 231 628 302 q 562 105 596 160 q 472 18 528 50 q 338 -14 417 -14 q 210 18 264 -14 q 120 103 155 49 q 67 230 85 158 q 50 382 50 301 q 80 585 50 496 q 175 724 111 673 q 340 774 239 774 q 493 728 428 774 q 593 596 557 683 q 628 382 628 509 m 233 379 q 244 247 233 300 q 279 166 256 193 q 339 139 302 139 q 399 166 376 139 q 432 247 422 193 q 443 382 443 301 q 432 515 443 462 q 399 594 422 568 q 339 621 376 621 q 258 562 283 621 q 233 379 233 503 m 111 840 q 118 909 113 873 q 136 976 123 945 q 172 1027 149 1008 q 232 1047 195 1047 q 285 1037 260 1047 q 334 1012 310 1026 q 380 987 357 998 q 424 977 402 977 q 452 996 443 977 q 467 1048 462 1015 l 566 1048 q 529 895 564 948 q 444 842 494 842 q 391 852 418 842 q 339 877 364 863 q 292 902 314 891 q 254 913 271 913 q 227 896 239 913 q 210 840 214 878 l 111 840 z "},"ö":{"ha":677,"x_min":50,"x_max":628,"o":"m 628 382 q 612 231 628 302 q 562 105 596 160 q 472 18 528 50 q 338 -14 417 -14 q 210 18 264 -14 q 120 103 155 49 q 67 230 85 158 q 50 382 50 301 q 80 585 50 496 q 175 724 111 673 q 340 774 239 774 q 493 728 428 774 q 593 596 557 683 q 628 382 628 509 m 233 379 q 244 247 233 300 q 279 166 256 193 q 339 139 302 139 q 399 166 376 139 q 432 247 422 193 q 443 382 443 301 q 432 515 443 462 q 399 594 422 568 q 339 621 376 621 q 258 562 283 621 q 233 379 233 503 m 127 946 q 151 1016 127 992 q 211 1039 174 1039 q 273 1015 250 1039 q 296 946 296 990 q 273 879 296 903 q 211 854 250 854 q 151 878 174 854 q 127 946 127 901 m 379 946 q 402 1016 379 992 q 464 1039 425 1039 q 526 1015 503 1039 q 549 946 549 990 q 526 879 549 903 q 464 854 503 854 q 402 879 425 854 q 379 946 379 903 z "},"÷":{"ha":657,"x_min":46,"x_max":611,"o":"m 46 416 l 46 564 l 611 564 l 611 416 l 46 416 m 329 119 q 259 147 284 119 q 233 227 233 174 q 258 304 233 277 q 329 332 282 332 q 397 304 374 332 q 421 227 421 277 q 396 147 421 174 q 329 119 372 119 m 329 647 q 259 674 284 647 q 233 753 233 702 q 258 832 233 805 q 329 860 282 860 q 397 832 374 860 q 421 753 421 805 q 396 674 421 702 q 329 647 372 647 z "},"ø":{"ha":677,"x_min":50,"x_max":628,"o":"m 628 382 q 594 169 628 258 q 495 34 560 81 q 338 -14 431 -14 q 273 -6 303 -14 q 215 17 243 1 l 167 -85 l 75 -41 l 136 81 q 71 216 91 142 q 50 382 50 290 q 126 672 50 570 q 340 774 201 774 q 406 765 376 774 q 464 739 437 757 l 507 823 l 597 781 l 546 673 q 607 548 586 623 q 628 382 628 473 m 225 379 q 228 315 225 344 q 235 262 230 286 l 404 602 q 375 623 391 616 q 339 629 359 629 q 252 567 279 629 q 225 379 225 505 m 453 382 q 451 441 453 414 q 446 490 449 469 l 278 154 q 305 135 290 142 q 338 129 320 129 q 405 157 380 129 q 441 242 430 186 q 453 382 453 298 z "},"ù":{"ha":696,"x_min":77,"x_max":618,"o":"m 618 760 l 618 0 l 476 0 l 456 97 l 446 97 q 404 36 429 60 q 348 -1 380 12 q 278 -14 317 -14 q 166 20 211 -14 q 99 115 121 53 q 77 264 77 177 l 77 760 l 257 760 l 257 318 q 274 190 257 233 q 329 147 291 147 q 397 174 374 147 q 429 251 420 200 q 437 374 437 302 l 437 760 l 618 760 m 350 1064 q 384 995 363 1035 q 427 919 405 956 q 464 860 449 882 l 464 842 l 335 842 q 290 885 317 858 q 234 943 263 912 q 181 1003 205 975 q 143 1051 157 1032 l 143 1064 l 350 1064 z "},"ú":{"ha":696,"x_min":77,"x_max":618,"o":"m 618 760 l 618 0 l 476 0 l 456 97 l 446 97 q 404 36 429 60 q 348 -1 380 12 q 278 -14 317 -14 q 166 20 211 -14 q 99 115 121 53 q 77 264 77 177 l 77 760 l 257 760 l 257 318 q 274 190 257 233 q 329 147 291 147 q 397 174 374 147 q 429 251 420 200 q 437 374 437 302 l 437 760 l 618 760 m 572 1064 l 572 1051 q 536 1005 558 1031 q 487 949 513 979 q 432 892 460 920 q 380 842 405 864 l 252 842 l 252 860 q 296 931 276 897 q 334 1000 317 966 q 366 1064 351 1033 l 572 1064 z "},"û":{"ha":696,"x_min":77,"x_max":618,"o":"m 618 760 l 618 0 l 476 0 l 456 97 l 446 97 q 404 36 429 60 q 348 -1 380 12 q 278 -14 317 -14 q 166 20 211 -14 q 99 115 121 53 q 77 264 77 177 l 77 760 l 257 760 l 257 318 q 274 190 257 233 q 329 147 291 147 q 397 174 374 147 q 429 251 420 200 q 437 374 437 302 l 437 760 l 618 760 m 432 1064 q 468 999 448 1034 q 513 929 489 965 q 563 860 537 894 l 563 842 l 454 842 q 405 891 431 863 q 349 954 378 919 q 292 889 319 919 q 245 842 266 859 l 135 842 l 135 860 q 182 925 157 887 q 231 1000 208 962 q 267 1064 254 1038 l 432 1064 z "},"ü":{"ha":696,"x_min":77,"x_max":618,"o":"m 618 760 l 618 0 l 476 0 l 456 97 l 446 97 q 404 36 429 60 q 348 -1 380 12 q 278 -14 317 -14 q 166 20 211 -14 q 99 115 121 53 q 77 264 77 177 l 77 760 l 257 760 l 257 318 q 274 190 257 233 q 329 147 291 147 q 397 174 374 147 q 429 251 420 200 q 437 374 437 302 l 437 760 l 618 760 m 137 946 q 160 1016 137 992 q 220 1039 183 1039 q 282 1015 259 1039 q 305 946 305 990 q 282 879 305 903 q 220 854 259 854 q 160 878 183 854 q 137 946 137 901 m 389 946 q 412 1016 389 992 q 473 1039 435 1039 q 535 1015 512 1039 q 558 946 558 990 q 535 879 558 903 q 473 854 512 854 q 412 879 435 854 q 389 946 389 903 z "},"ý":{"ha":616,"x_min":4,"x_max":612,"o":"m 4 760 l 193 760 l 282 392 q 294 341 288 367 q 303 292 299 316 q 309 248 307 269 l 314 248 q 324 310 317 275 q 342 390 331 345 l 425 760 l 612 760 l 386 -74 q 327 -224 361 -168 q 246 -308 292 -281 q 138 -334 200 -334 q 94 -330 115 -334 q 52 -322 73 -327 l 52 -163 q 79 -170 65 -167 q 106 -172 93 -172 q 151 -161 134 -172 q 182 -121 168 -151 q 211 -37 195 -92 l 222 8 l 4 760 m 532 1064 l 532 1051 q 495 1005 517 1031 q 446 949 473 979 q 392 892 419 920 q 340 842 364 864 l 211 842 l 211 860 q 256 931 235 897 q 293 1000 276 966 q 325 1064 311 1033 l 532 1064 z "},"þ":{"ha":694,"x_min":78,"x_max":644,"o":"m 644 378 q 618 168 644 256 q 543 34 592 81 q 427 -14 494 -14 q 360 -1 391 -14 q 303 37 329 12 q 258 100 278 62 l 253 100 q 256 46 255 71 q 259 4 258 22 q 260 -29 260 -15 l 260 -334 l 78 -334 l 78 1055 l 258 1055 l 258 799 q 257 729 258 764 q 253 660 256 694 l 258 660 q 307 729 282 705 q 359 764 331 754 q 421 774 387 774 q 586 670 528 774 q 644 378 644 566 m 461 376 q 437 561 461 502 q 364 621 413 621 q 283 568 309 621 q 258 399 258 515 l 258 361 q 284 195 258 248 q 364 143 310 143 q 421 172 400 143 q 452 253 443 201 q 461 376 461 306 z "},"ÿ":{"ha":616,"x_min":4,"x_max":612,"o":"m 4 760 l 193 760 l 282 392 q 294 341 288 367 q 303 292 299 316 q 309 248 307 269 l 314 248 q 324 310 317 275 q 342 390 331 345 l 425 760 l 612 760 l 386 -74 q 327 -224 361 -168 q 246 -308 292 -281 q 138 -334 200 -334 q 94 -330 115 -334 q 52 -322 73 -327 l 52 -163 q 79 -170 65 -167 q 106 -172 93 -172 q 151 -161 134 -172 q 182 -121 168 -151 q 211 -37 195 -92 l 222 8 l 4 760 m 97 946 q 120 1016 97 992 q 180 1039 143 1039 q 242 1015 219 1039 q 265 946 265 990 q 242 879 265 903 q 180 854 219 854 q 120 878 143 854 q 97 946 97 901 m 349 946 q 372 1016 349 992 q 433 1039 395 1039 q 495 1015 472 1039 q 518 946 518 990 q 495 879 518 903 q 433 854 472 854 q 372 879 395 854 q 349 946 349 903 z "},"Ā":{"ha":730,"x_min":0,"x_max":730,"o":"m 528 0 l 476 239 l 256 239 l 204 0 l 0 0 l 240 991 l 486 991 l 730 0 l 528 0 m 447 404 l 393 667 q 383 730 388 699 q 373 790 378 762 q 366 844 369 819 q 359 792 363 821 q 350 732 355 764 q 338 669 345 701 l 285 404 l 447 404 m 557 1222 l 557 1090 l 174 1090 l 174 1222 l 557 1222 z "},"ā":{"ha":644,"x_min":40,"x_max":568,"o":"m 342 774 q 510 706 452 774 q 568 503 568 637 l 568 0 l 436 0 l 407 102 l 403 102 q 354 37 380 63 q 294 -1 328 12 q 216 -14 261 -14 q 114 20 153 -14 q 58 109 75 54 q 40 224 40 163 q 106 404 40 342 q 293 469 172 465 l 387 473 l 387 504 q 368 597 387 566 q 304 628 349 628 q 233 615 272 628 q 149 575 195 602 l 98 710 q 212 758 150 741 q 342 774 273 774 m 387 353 l 336 350 q 251 318 279 347 q 222 232 222 288 q 240 156 222 181 q 290 131 257 131 q 360 172 333 131 q 387 283 387 214 l 387 353 m 525 990 l 525 859 l 142 859 l 142 990 l 525 990 z "},"Ă":{"ha":730,"x_min":0,"x_max":730,"o":"m 528 0 l 476 239 l 256 239 l 204 0 l 0 0 l 240 991 l 486 991 l 730 0 l 528 0 m 447 404 l 393 667 q 383 730 388 699 q 373 790 378 762 q 366 844 369 819 q 359 792 363 821 q 350 732 355 764 q 338 669 345 701 l 285 404 l 447 404 m 566 1300 q 539 1180 566 1231 q 466 1102 512 1130 q 363 1075 420 1075 q 220 1132 275 1075 q 164 1300 165 1189 l 274 1300 q 287 1245 276 1267 q 316 1214 297 1224 q 364 1203 336 1203 q 412 1213 392 1203 q 444 1244 432 1223 q 457 1300 455 1265 l 566 1300 z "},"ă":{"ha":644,"x_min":40,"x_max":568,"o":"m 342 774 q 510 706 452 774 q 568 503 568 637 l 568 0 l 436 0 l 407 102 l 403 102 q 354 37 380 63 q 294 -1 328 12 q 216 -14 261 -14 q 114 20 153 -14 q 58 109 75 54 q 40 224 40 163 q 106 404 40 342 q 293 469 172 465 l 387 473 l 387 504 q 368 597 387 566 q 304 628 349 628 q 233 615 272 628 q 149 575 195 602 l 98 710 q 212 758 150 741 q 342 774 273 774 m 387 353 l 336 350 q 251 318 279 347 q 222 232 222 288 q 240 156 222 181 q 290 131 257 131 q 360 172 333 131 q 387 283 387 214 l 387 353 m 534 1068 q 507 948 534 999 q 434 870 480 898 q 331 843 389 843 q 188 900 243 843 q 132 1068 134 957 l 242 1068 q 255 1014 244 1035 q 284 982 265 992 q 332 971 304 971 q 380 981 360 971 q 412 1012 400 991 q 425 1068 423 1034 l 534 1068 z "},"Ą":{"ha":730,"x_min":0,"x_max":730,"o":"m 528 0 l 476 239 l 256 239 l 204 0 l 0 0 l 240 991 l 486 991 l 730 0 l 528 0 m 447 404 l 393 667 q 383 730 388 699 q 373 790 378 762 q 366 844 369 819 q 359 792 363 821 q 350 732 355 764 q 338 669 345 701 l 285 404 l 447 404 m 576 -142 q 591 -186 576 -169 q 635 -203 606 -203 q 664 -199 652 -203 q 685 -191 675 -195 l 685 -307 q 648 -319 670 -314 q 595 -325 625 -325 q 476 -287 515 -325 q 436 -180 436 -248 q 448 -113 436 -148 q 487 -44 460 -79 q 555 21 513 -10 l 651 0 q 591 -77 606 -47 q 576 -142 576 -108 z "},"ą":{"ha":644,"x_min":40,"x_max":584,"o":"m 342 774 q 510 706 452 774 q 568 503 568 637 l 568 0 l 436 0 l 407 102 l 403 102 q 354 37 380 63 q 294 -1 328 12 q 216 -14 261 -14 q 114 20 153 -14 q 58 109 75 54 q 40 224 40 163 q 106 404 40 342 q 293 469 172 465 l 387 473 l 387 504 q 368 597 387 566 q 304 628 349 628 q 233 615 272 628 q 149 575 195 602 l 98 710 q 212 758 150 741 q 342 774 273 774 m 387 353 l 336 350 q 251 318 279 347 q 222 232 222 288 q 240 156 222 181 q 290 131 257 131 q 360 172 333 131 q 387 283 387 214 l 387 353 m 475 -142 q 490 -186 475 -169 q 534 -203 505 -203 q 563 -199 551 -203 q 584 -191 574 -195 l 584 -307 q 547 -319 569 -314 q 494 -325 524 -325 q 375 -287 414 -325 q 335 -180 335 -248 q 347 -113 335 -148 q 386 -44 359 -79 q 454 21 412 -10 l 550 0 q 490 -77 505 -47 q 475 -142 475 -108 z "},"Ć":{"ha":671,"x_min":60,"x_max":637,"o":"m 429 842 q 353 816 386 842 q 299 743 321 790 q 268 632 278 696 q 257 493 257 568 q 278 306 257 382 q 340 191 299 230 q 439 151 380 151 q 526 167 485 151 q 608 204 568 182 l 608 35 q 516 -1 566 11 q 411 -14 467 -14 q 221 46 299 -14 q 101 219 142 105 q 60 494 60 332 q 83 699 60 606 q 152 861 106 792 q 263 968 197 930 q 415 1006 330 1006 q 530 991 475 1006 q 637 945 586 976 l 583 787 q 509 827 547 812 q 429 842 472 842 m 622 1296 l 622 1283 q 585 1237 608 1263 q 536 1181 563 1211 q 482 1124 509 1152 q 430 1074 454 1096 l 301 1074 l 301 1092 q 346 1163 326 1128 q 384 1232 366 1198 q 415 1296 401 1265 l 622 1296 z "},"ć":{"ha":554,"x_min":50,"x_max":546,"o":"m 335 -14 q 177 29 240 -14 q 82 158 113 71 q 50 376 50 244 q 81 582 50 492 q 175 723 111 671 q 338 774 239 774 q 439 761 394 774 q 524 724 484 749 l 473 579 q 412 607 442 598 q 351 616 382 616 q 288 589 314 616 q 247 508 261 562 q 233 376 233 455 q 247 246 233 298 q 288 168 261 194 q 354 142 315 142 q 432 156 393 142 q 509 197 471 170 l 509 43 q 427 0 472 14 q 335 -14 382 -14 m 546 1064 l 546 1051 q 509 1005 532 1031 q 460 949 487 979 q 406 892 433 920 q 354 842 378 864 l 225 842 l 225 860 q 270 931 250 897 q 308 1000 290 966 q 339 1064 325 1033 l 546 1064 z "},"Ĉ":{"ha":671,"x_min":60,"x_max":637,"o":"m 429 842 q 353 816 386 842 q 299 743 321 790 q 268 632 278 696 q 257 493 257 568 q 278 306 257 382 q 340 191 299 230 q 439 151 380 151 q 526 167 485 151 q 608 204 568 182 l 608 35 q 516 -1 566 11 q 411 -14 467 -14 q 221 46 299 -14 q 101 219 142 105 q 60 494 60 332 q 83 699 60 606 q 152 861 106 792 q 263 968 197 930 q 415 1006 330 1006 q 530 991 475 1006 q 637 945 586 976 l 583 787 q 509 827 547 812 q 429 842 472 842 m 481 1296 q 518 1231 497 1265 q 563 1161 538 1197 q 612 1092 587 1126 l 612 1074 l 504 1074 q 454 1123 480 1095 q 398 1186 428 1151 q 342 1121 368 1151 q 294 1074 315 1091 l 184 1074 l 184 1092 q 232 1157 206 1119 q 280 1232 257 1194 q 316 1296 303 1270 l 481 1296 z "},"ĉ":{"ha":554,"x_min":50,"x_max":536,"o":"m 335 -14 q 177 29 240 -14 q 82 158 113 71 q 50 376 50 244 q 81 582 50 492 q 175 723 111 671 q 338 774 239 774 q 439 761 394 774 q 524 724 484 749 l 473 579 q 412 607 442 598 q 351 616 382 616 q 288 589 314 616 q 247 508 261 562 q 233 376 233 455 q 247 246 233 298 q 288 168 261 194 q 354 142 315 142 q 432 156 393 142 q 509 197 471 170 l 509 43 q 427 0 472 14 q 335 -14 382 -14 m 406 1064 q 442 999 421 1034 q 487 929 463 965 q 536 860 511 894 l 536 842 l 428 842 q 378 891 404 863 q 322 954 352 919 q 266 889 292 919 q 218 842 239 859 l 109 842 l 109 860 q 156 925 130 887 q 204 1000 181 962 q 240 1064 227 1038 l 406 1064 z "},"Ċ":{"ha":671,"x_min":60,"x_max":637,"o":"m 429 842 q 353 816 386 842 q 299 743 321 790 q 268 632 278 696 q 257 493 257 568 q 278 306 257 382 q 340 191 299 230 q 439 151 380 151 q 526 167 485 151 q 608 204 568 182 l 608 35 q 516 -1 566 11 q 411 -14 467 -14 q 221 46 299 -14 q 101 219 142 105 q 60 494 60 332 q 83 699 60 606 q 152 861 106 792 q 263 968 197 930 q 415 1006 330 1006 q 530 991 475 1006 q 637 945 586 976 l 583 787 q 509 827 547 812 q 429 842 472 842 m 422 1291 q 497 1264 473 1291 q 521 1186 521 1237 q 496 1111 521 1137 q 422 1084 471 1084 q 349 1111 374 1084 q 323 1186 323 1137 q 347 1264 323 1238 q 422 1291 371 1291 z "},"ċ":{"ha":554,"x_min":50,"x_max":524,"o":"m 335 -14 q 177 29 240 -14 q 82 158 113 71 q 50 376 50 244 q 81 582 50 492 q 175 723 111 671 q 338 774 239 774 q 439 761 394 774 q 524 724 484 749 l 473 579 q 412 607 442 598 q 351 616 382 616 q 288 589 314 616 q 247 508 261 562 q 233 376 233 455 q 247 246 233 298 q 288 168 261 194 q 354 142 315 142 q 432 156 393 142 q 509 197 471 170 l 509 43 q 427 0 472 14 q 335 -14 382 -14 m 346 1059 q 421 1032 397 1059 q 445 954 445 1005 q 420 879 445 905 q 346 852 395 852 q 273 879 298 852 q 248 954 248 905 q 271 1033 248 1006 q 346 1059 295 1059 z "},"Č":{"ha":671,"x_min":60,"x_max":637,"o":"m 429 842 q 353 816 386 842 q 299 743 321 790 q 268 632 278 696 q 257 493 257 568 q 278 306 257 382 q 340 191 299 230 q 439 151 380 151 q 526 167 485 151 q 608 204 568 182 l 608 35 q 516 -1 566 11 q 411 -14 467 -14 q 221 46 299 -14 q 101 219 142 105 q 60 494 60 332 q 83 699 60 606 q 152 861 106 792 q 263 968 197 930 q 415 1006 330 1006 q 530 991 475 1006 q 637 945 586 976 l 583 787 q 509 827 547 812 q 429 842 472 842 m 316 1074 q 280 1138 303 1101 q 231 1214 256 1176 q 184 1278 205 1251 l 184 1296 l 294 1296 q 344 1246 317 1275 q 398 1183 370 1217 q 454 1247 430 1221 q 504 1296 478 1272 l 612 1296 l 612 1278 q 568 1215 593 1251 q 519 1140 543 1178 q 481 1074 496 1103 l 316 1074 z "},"č":{"ha":554,"x_min":50,"x_max":536,"o":"m 335 -14 q 177 29 240 -14 q 82 158 113 71 q 50 376 50 244 q 81 582 50 492 q 175 723 111 671 q 338 774 239 774 q 439 761 394 774 q 524 724 484 749 l 473 579 q 412 607 442 598 q 351 616 382 616 q 288 589 314 616 q 247 508 261 562 q 233 376 233 455 q 247 246 233 298 q 288 168 261 194 q 354 142 315 142 q 432 156 393 142 q 509 197 471 170 l 509 43 q 427 0 472 14 q 335 -14 382 -14 m 240 842 q 204 906 227 869 q 155 982 180 944 q 109 1046 129 1019 l 109 1064 l 218 1064 q 268 1014 241 1043 q 322 951 294 985 q 378 1015 354 989 q 428 1064 402 1040 l 536 1064 l 536 1046 q 492 983 517 1019 q 444 908 467 946 q 406 842 420 871 l 240 842 z "},"Ď":{"ha":777,"x_min":89,"x_max":717,"o":"m 717 514 q 671 233 717 348 q 537 59 625 119 q 322 0 450 0 l 89 0 l 89 991 l 336 991 q 544 937 458 991 q 673 775 629 882 q 717 514 717 669 m 521 505 q 500 688 521 616 q 437 793 479 759 q 334 827 395 827 l 279 827 l 279 167 l 321 167 q 472 250 424 167 q 521 505 521 334 m 301 1074 q 265 1138 288 1101 q 216 1214 241 1176 q 170 1278 190 1251 l 170 1296 l 279 1296 q 329 1246 302 1275 q 383 1183 355 1217 q 439 1247 415 1221 q 489 1296 463 1272 l 597 1296 l 597 1278 q 553 1215 578 1251 q 505 1140 528 1178 q 467 1074 481 1103 l 301 1074 z "},"ď":{"ha":694,"x_min":50,"x_max":869,"o":"m 275 -14 q 108 91 165 -14 q 50 380 50 195 q 108 670 50 566 q 269 774 165 774 q 335 762 304 774 q 390 725 365 749 q 435 663 416 700 l 441 663 q 438 738 439 707 q 436 791 436 770 l 436 1055 l 616 1055 l 616 0 l 472 0 l 447 83 l 436 83 q 391 28 414 50 q 340 -3 368 7 q 275 -14 312 -14 m 329 138 q 410 191 383 138 q 436 357 436 243 l 436 400 q 411 565 436 513 q 329 616 385 616 q 257 557 280 616 q 233 382 233 498 q 258 198 233 259 q 329 138 282 138 m 869 1055 l 869 1040 q 847 969 861 1006 q 816 897 833 932 q 782 833 800 862 l 665 833 l 665 851 q 673 893 669 867 q 682 949 677 919 q 689 1008 686 980 q 693 1055 692 1036 l 869 1055 z "},"Đ":{"ha":777,"x_min":11,"x_max":717,"o":"m 336 991 q 544 937 458 991 q 673 775 629 882 q 717 514 717 669 q 671 233 717 348 q 537 59 625 119 q 322 0 450 0 l 89 0 l 89 440 l 11 440 l 11 583 l 89 583 l 89 991 l 336 991 m 334 827 l 279 827 l 279 583 l 389 583 l 389 440 l 279 440 l 279 167 l 321 167 q 472 250 424 167 q 521 505 521 334 q 500 688 521 616 q 437 793 479 759 q 334 827 395 827 z "},"đ":{"ha":694,"x_min":50,"x_max":700,"o":"m 275 -14 q 108 89 165 -14 q 50 371 50 191 q 108 650 50 550 q 269 750 165 750 q 335 738 304 750 q 390 701 365 726 q 435 639 416 677 l 441 639 q 438 714 439 682 q 436 768 436 747 l 436 817 l 309 817 l 309 946 l 436 946 l 436 1055 l 616 1055 l 616 946 l 700 946 l 700 817 l 616 817 l 616 0 l 472 0 l 446 83 l 436 83 q 390 28 413 50 q 339 -3 367 7 q 275 -14 312 -14 m 329 138 q 410 189 383 138 q 436 350 436 239 l 436 386 q 411 543 436 493 q 329 593 385 593 q 257 537 280 593 q 233 371 233 481 q 258 196 233 254 q 329 138 282 138 z "},"Ē":{"ha":593,"x_min":89,"x_max":534,"o":"m 534 0 l 89 0 l 89 991 l 534 991 l 534 829 l 279 829 l 279 596 l 517 596 l 517 433 l 279 433 l 279 165 l 534 165 l 534 0 m 503 1222 l 503 1090 l 119 1090 l 119 1222 l 503 1222 z "},"ē":{"ha":635,"x_min":50,"x_max":590,"o":"m 325 772 q 470 730 410 772 q 559 611 529 688 q 590 429 590 534 l 590 328 l 228 328 q 264 181 229 228 q 372 134 300 134 q 464 146 420 134 q 555 189 507 159 l 555 39 q 458 -1 510 12 q 347 -14 407 -14 q 177 34 243 -14 q 81 168 111 81 q 50 375 50 255 q 81 592 50 503 q 173 726 112 680 q 325 772 234 772 m 329 631 q 258 590 284 631 q 229 458 231 550 l 422 458 q 412 551 422 512 q 380 610 401 589 q 329 631 359 631 m 515 990 l 515 859 l 132 859 l 132 990 l 515 990 z "},"Ĕ":{"ha":593,"x_min":89,"x_max":534,"o":"m 534 0 l 89 0 l 89 991 l 534 991 l 534 829 l 279 829 l 279 596 l 517 596 l 517 433 l 279 433 l 279 165 l 534 165 l 534 0 m 511 1300 q 485 1180 511 1231 q 412 1102 458 1130 q 309 1075 366 1075 q 166 1132 220 1075 q 110 1300 111 1189 l 220 1300 q 232 1245 222 1267 q 262 1214 243 1224 q 310 1203 281 1203 q 358 1213 338 1203 q 389 1244 378 1223 q 403 1300 401 1265 l 511 1300 z "},"ĕ":{"ha":635,"x_min":50,"x_max":590,"o":"m 325 772 q 470 730 410 772 q 559 611 529 688 q 590 429 590 534 l 590 328 l 228 328 q 264 181 229 228 q 372 134 300 134 q 464 146 420 134 q 555 189 507 159 l 555 39 q 458 -1 510 12 q 347 -14 407 -14 q 177 34 243 -14 q 81 168 111 81 q 50 375 50 255 q 81 592 50 503 q 173 726 112 680 q 325 772 234 772 m 329 631 q 258 590 284 631 q 229 458 231 550 l 422 458 q 412 551 422 512 q 380 610 401 589 q 329 631 359 631 m 524 1068 q 497 948 524 999 q 424 870 470 898 q 321 843 378 843 q 178 900 233 843 q 122 1068 123 957 l 232 1068 q 244 1014 234 1035 q 274 982 255 992 q 322 971 294 971 q 370 981 350 971 q 401 1012 390 991 q 415 1068 413 1034 l 524 1068 z "},"Ė":{"ha":593,"x_min":89,"x_max":534,"o":"m 534 0 l 89 0 l 89 991 l 534 991 l 534 829 l 279 829 l 279 596 l 517 596 l 517 433 l 279 433 l 279 165 l 534 165 l 534 0 m 334 1291 q 410 1264 386 1291 q 433 1186 433 1237 q 409 1111 433 1137 q 334 1084 384 1084 q 261 1111 287 1084 q 236 1186 236 1137 q 260 1264 236 1238 q 334 1291 283 1291 z "},"ė":{"ha":635,"x_min":50,"x_max":590,"o":"m 325 772 q 470 730 410 772 q 559 611 529 688 q 590 429 590 534 l 590 328 l 228 328 q 264 181 229 228 q 372 134 300 134 q 464 146 420 134 q 555 189 507 159 l 555 39 q 458 -1 510 12 q 347 -14 407 -14 q 177 34 243 -14 q 81 168 111 81 q 50 375 50 255 q 81 592 50 503 q 173 726 112 680 q 325 772 234 772 m 329 631 q 258 590 284 631 q 229 458 231 550 l 422 458 q 412 551 422 512 q 380 610 401 589 q 329 631 359 631 m 347 1059 q 422 1032 399 1059 q 446 954 446 1005 q 421 879 446 905 q 347 852 397 852 q 274 879 300 852 q 249 954 249 905 q 273 1033 249 1006 q 347 1059 296 1059 z "},"Ę":{"ha":593,"x_min":89,"x_max":536,"o":"m 534 0 l 89 0 l 89 991 l 534 991 l 534 829 l 279 829 l 279 596 l 517 596 l 517 433 l 279 433 l 279 165 l 534 165 l 534 0 m 428 -142 q 443 -186 428 -169 q 486 -203 458 -203 q 515 -199 504 -203 q 536 -191 527 -195 l 536 -307 q 499 -319 522 -314 q 447 -325 477 -325 q 327 -287 367 -325 q 288 -180 288 -248 q 300 -113 288 -148 q 338 -44 312 -79 q 407 21 365 -10 l 503 0 q 443 -77 458 -47 q 428 -142 428 -108 z "},"ę":{"ha":635,"x_min":50,"x_max":590,"o":"m 447 -146 q 462 -185 447 -172 q 500 -199 477 -199 q 532 -195 513 -199 q 559 -186 551 -191 l 559 -309 q 511 -320 538 -317 q 460 -323 484 -323 q 344 -284 380 -323 q 307 -178 307 -245 q 319 -114 307 -145 q 354 -55 330 -83 q 412 1 377 -26 l 555 39 q 491 -36 515 -2 q 457 -96 467 -69 q 447 -146 447 -123 m 325 772 q 470 730 410 772 q 559 611 529 688 q 590 429 590 534 l 590 328 l 228 328 q 264 181 229 228 q 372 134 300 134 q 464 146 420 134 q 555 189 507 159 l 555 39 q 458 -1 510 12 q 347 -14 407 -14 q 177 34 243 -14 q 81 168 111 81 q 50 375 50 255 q 81 592 50 503 q 173 726 112 680 q 325 772 234 772 m 329 631 q 258 590 284 631 q 229 458 231 550 l 422 458 q 412 551 422 512 q 380 610 401 589 q 329 631 359 631 z "},"Ě":{"ha":593,"x_min":89,"x_max":534,"o":"m 534 0 l 89 0 l 89 991 l 534 991 l 534 829 l 279 829 l 279 596 l 517 596 l 517 433 l 279 433 l 279 165 l 534 165 l 534 0 m 229 1074 q 192 1138 216 1101 q 143 1214 169 1176 q 97 1278 117 1251 l 97 1296 l 207 1296 q 256 1246 230 1275 q 311 1183 283 1217 q 367 1247 342 1221 q 416 1296 391 1272 l 525 1296 l 525 1278 q 480 1215 505 1251 q 432 1140 455 1178 q 394 1074 409 1103 l 229 1074 z "},"ě":{"ha":635,"x_min":50,"x_max":590,"o":"m 325 772 q 470 730 410 772 q 559 611 529 688 q 590 429 590 534 l 590 328 l 228 328 q 264 181 229 228 q 372 134 300 134 q 464 146 420 134 q 555 189 507 159 l 555 39 q 458 -1 510 12 q 347 -14 407 -14 q 177 34 243 -14 q 81 168 111 81 q 50 375 50 255 q 81 592 50 503 q 173 726 112 680 q 325 772 234 772 m 329 631 q 258 590 284 631 q 229 458 231 550 l 422 458 q 412 551 422 512 q 380 610 401 589 q 329 631 359 631 m 241 842 q 205 906 229 869 q 156 982 182 944 q 110 1046 130 1019 l 110 1064 l 220 1064 q 269 1014 243 1043 q 323 951 296 985 q 379 1015 355 989 q 429 1064 404 1040 l 538 1064 l 538 1046 q 493 983 518 1019 q 445 908 468 946 q 407 842 422 871 l 241 842 z "},"Ĝ":{"ha":798,"x_min":60,"x_max":726,"o":"m 416 558 l 726 558 l 726 41 q 582 0 656 14 q 431 -14 507 -14 q 225 49 308 -14 q 101 227 143 112 q 60 498 60 341 q 107 767 60 654 q 245 943 154 881 q 467 1006 336 1006 q 601 988 538 1006 q 713 943 663 971 l 657 786 q 569 827 614 813 q 473 842 523 842 q 354 801 402 842 q 281 683 306 761 q 257 493 257 606 q 277 312 257 389 q 338 193 297 235 q 443 151 379 151 q 494 155 469 151 q 541 167 519 159 l 541 397 l 416 397 l 416 558 m 529 1296 q 565 1231 545 1265 q 610 1161 586 1197 q 660 1092 634 1126 l 660 1074 l 551 1074 q 502 1123 528 1095 q 446 1186 475 1151 q 389 1121 416 1151 q 342 1074 363 1091 l 232 1074 l 232 1092 q 279 1157 254 1119 q 328 1232 304 1194 q 363 1296 351 1270 l 529 1296 z "},"ĝ":{"ha":636,"x_min":8,"x_max":625,"o":"m 273 -334 q 77 -278 146 -334 q 8 -121 8 -222 q 46 -7 8 -54 q 148 58 85 41 q 95 101 116 72 q 74 168 74 130 q 93 239 74 211 q 146 298 113 268 q 77 385 103 326 q 52 514 52 444 q 81 653 52 595 q 167 741 111 711 q 305 771 224 771 q 349 769 330 771 q 381 763 368 766 q 406 755 395 759 l 625 755 l 625 646 l 536 627 q 554 574 549 602 q 559 513 559 546 q 494 323 559 391 q 307 256 428 256 q 252 262 270 256 q 232 238 241 252 q 222 202 222 224 q 230 175 222 186 q 256 158 239 163 q 300 153 274 153 l 427 153 q 566 102 517 153 q 615 -54 615 51 q 528 -261 615 -189 q 273 -334 441 -334 m 286 -199 q 376 -185 340 -199 q 428 -145 411 -172 q 445 -82 445 -119 q 436 -37 445 -52 q 406 -16 427 -22 q 347 -10 385 -10 l 248 -10 q 211 -21 227 -10 q 186 -52 195 -31 q 177 -106 177 -73 q 206 -175 177 -152 q 286 -199 235 -199 m 307 382 q 359 415 341 382 q 378 513 378 448 q 359 614 378 581 q 306 647 341 647 q 252 613 271 647 q 234 513 234 580 q 252 415 234 449 q 307 382 269 382 m 402 1064 q 438 999 418 1034 q 483 929 459 965 q 533 860 507 894 l 533 842 l 425 842 q 375 891 401 863 q 319 954 349 919 q 262 889 289 919 q 215 842 236 859 l 105 842 l 105 860 q 152 925 127 887 q 201 1000 178 962 q 237 1064 224 1038 l 402 1064 z "},"Ğ":{"ha":798,"x_min":60,"x_max":726,"o":"m 416 558 l 726 558 l 726 41 q 582 0 656 14 q 431 -14 507 -14 q 225 49 308 -14 q 101 227 143 112 q 60 498 60 341 q 107 767 60 654 q 245 943 154 881 q 467 1006 336 1006 q 601 988 538 1006 q 713 943 663 971 l 657 786 q 569 827 614 813 q 473 842 523 842 q 354 801 402 842 q 281 683 306 761 q 257 493 257 606 q 277 312 257 389 q 338 193 297 235 q 443 151 379 151 q 494 155 469 151 q 541 167 519 159 l 541 397 l 416 397 l 416 558 m 646 1300 q 620 1180 646 1231 q 547 1102 593 1130 q 444 1075 501 1075 q 301 1132 355 1075 q 245 1300 246 1189 l 355 1300 q 367 1245 357 1267 q 397 1214 378 1224 q 445 1203 416 1203 q 493 1213 473 1203 q 524 1244 513 1223 q 538 1300 536 1265 l 646 1300 z "},"ğ":{"ha":636,"x_min":8,"x_max":625,"o":"m 273 -334 q 77 -278 146 -334 q 8 -121 8 -222 q 46 -7 8 -54 q 148 58 85 41 q 95 101 116 72 q 74 168 74 130 q 93 239 74 211 q 146 298 113 268 q 77 385 103 326 q 52 514 52 444 q 81 653 52 595 q 167 741 111 711 q 305 771 224 771 q 349 769 330 771 q 381 763 368 766 q 406 755 395 759 l 625 755 l 625 646 l 536 627 q 554 574 549 602 q 559 513 559 546 q 494 323 559 391 q 307 256 428 256 q 252 262 270 256 q 232 238 241 252 q 222 202 222 224 q 230 175 222 186 q 256 158 239 163 q 300 153 274 153 l 427 153 q 566 102 517 153 q 615 -54 615 51 q 528 -261 615 -189 q 273 -334 441 -334 m 286 -199 q 376 -185 340 -199 q 428 -145 411 -172 q 445 -82 445 -119 q 436 -37 445 -52 q 406 -16 427 -22 q 347 -10 385 -10 l 248 -10 q 211 -21 227 -10 q 186 -52 195 -31 q 177 -106 177 -73 q 206 -175 177 -152 q 286 -199 235 -199 m 307 382 q 359 415 341 382 q 378 513 378 448 q 359 614 378 581 q 306 647 341 647 q 252 613 271 647 q 234 513 234 580 q 252 415 234 449 q 307 382 269 382 m 519 1068 q 492 948 519 999 q 419 870 465 898 q 316 843 374 843 q 173 900 228 843 q 117 1068 119 957 l 227 1068 q 240 1014 229 1035 q 270 982 250 992 q 317 971 289 971 q 365 981 345 971 q 397 1012 385 991 q 410 1068 408 1034 l 519 1068 z "},"Ġ":{"ha":798,"x_min":60,"x_max":726,"o":"m 416 558 l 726 558 l 726 41 q 582 0 656 14 q 431 -14 507 -14 q 225 49 308 -14 q 101 227 143 112 q 60 498 60 341 q 107 767 60 654 q 245 943 154 881 q 467 1006 336 1006 q 601 988 538 1006 q 713 943 663 971 l 657 786 q 569 827 614 813 q 473 842 523 842 q 354 801 402 842 q 281 683 306 761 q 257 493 257 606 q 277 312 257 389 q 338 193 297 235 q 443 151 379 151 q 494 155 469 151 q 541 167 519 159 l 541 397 l 416 397 l 416 558 m 469 1291 q 545 1264 521 1291 q 568 1186 568 1237 q 544 1111 568 1137 q 469 1084 519 1084 q 396 1111 422 1084 q 371 1186 371 1137 q 395 1264 371 1238 q 469 1291 418 1291 z "},"ġ":{"ha":636,"x_min":8,"x_max":625,"o":"m 273 -334 q 77 -278 146 -334 q 8 -121 8 -222 q 46 -7 8 -54 q 148 58 85 41 q 95 101 116 72 q 74 168 74 130 q 93 239 74 211 q 146 298 113 268 q 77 385 103 326 q 52 514 52 444 q 81 653 52 595 q 167 741 111 711 q 305 771 224 771 q 349 769 330 771 q 381 763 368 766 q 406 755 395 759 l 625 755 l 625 646 l 536 627 q 554 574 549 602 q 559 513 559 546 q 494 323 559 391 q 307 256 428 256 q 252 262 270 256 q 232 238 241 252 q 222 202 222 224 q 230 175 222 186 q 256 158 239 163 q 300 153 274 153 l 427 153 q 566 102 517 153 q 615 -54 615 51 q 528 -261 615 -189 q 273 -334 441 -334 m 286 -199 q 376 -185 340 -199 q 428 -145 411 -172 q 445 -82 445 -119 q 436 -37 445 -52 q 406 -16 427 -22 q 347 -10 385 -10 l 248 -10 q 211 -21 227 -10 q 186 -52 195 -31 q 177 -106 177 -73 q 206 -175 177 -152 q 286 -199 235 -199 m 307 382 q 359 415 341 382 q 378 513 378 448 q 359 614 378 581 q 306 647 341 647 q 252 613 271 647 q 234 513 234 580 q 252 415 234 449 q 307 382 269 382 m 334 1059 q 409 1032 385 1059 q 433 954 433 1005 q 408 879 433 905 q 334 852 383 852 q 261 879 286 852 q 235 954 235 905 q 259 1033 235 1006 q 334 1059 283 1059 z "},"Ģ":{"ha":798,"x_min":60,"x_max":726,"o":"m 416 558 l 726 558 l 726 41 q 582 0 656 14 q 431 -14 507 -14 q 225 49 308 -14 q 101 227 143 112 q 60 498 60 341 q 107 767 60 654 q 245 943 154 881 q 467 1006 336 1006 q 601 988 538 1006 q 713 943 663 971 l 657 786 q 569 827 614 813 q 473 842 523 842 q 354 801 402 842 q 281 683 306 761 q 257 493 257 606 q 277 312 257 389 q 338 193 297 235 q 443 151 379 151 q 494 155 469 151 q 541 167 519 159 l 541 397 l 416 397 l 416 558 m 541 -85 l 541 -100 q 517 -172 531 -135 q 486 -243 503 -208 q 450 -307 469 -277 l 333 -307 l 333 -289 q 347 -228 340 -265 q 358 -151 353 -190 q 365 -85 363 -113 l 541 -85 z "},"ģ":{"ha":636,"x_min":8,"x_max":625,"o":"m 452 1064 l 452 1046 q 436 974 444 1010 q 423 902 429 937 q 416 842 418 868 l 241 842 l 241 857 q 264 926 250 890 q 296 998 278 962 q 334 1064 314 1033 l 452 1064 m 273 -334 q 77 -278 146 -334 q 8 -121 8 -222 q 46 -7 8 -54 q 148 58 85 41 q 95 101 116 72 q 74 168 74 130 q 93 239 74 211 q 146 298 113 268 q 77 385 103 326 q 52 514 52 444 q 81 653 52 595 q 167 741 111 711 q 305 771 224 771 q 349 769 330 771 q 381 763 368 766 q 406 755 395 759 l 625 755 l 625 646 l 536 627 q 554 574 549 602 q 559 513 559 546 q 494 323 559 391 q 307 256 428 256 q 252 262 270 256 q 232 238 241 252 q 222 202 222 224 q 230 175 222 186 q 256 158 239 163 q 300 153 274 153 l 427 153 q 566 102 517 153 q 615 -54 615 51 q 528 -261 615 -189 q 273 -334 441 -334 m 286 -199 q 376 -185 340 -199 q 428 -145 411 -172 q 445 -82 445 -119 q 436 -37 445 -52 q 406 -16 427 -22 q 347 -10 385 -10 l 248 -10 q 211 -21 227 -10 q 186 -52 195 -31 q 177 -106 177 -73 q 206 -175 177 -152 q 286 -199 235 -199 m 307 382 q 359 415 341 382 q 378 513 378 448 q 359 614 378 581 q 306 647 341 647 q 252 613 271 647 q 234 513 234 580 q 252 415 234 449 q 307 382 269 382 z "},"Ĥ":{"ha":804,"x_min":89,"x_max":715,"o":"m 715 0 l 525 0 l 525 433 l 279 433 l 279 0 l 89 0 l 89 991 l 279 991 l 279 599 l 525 599 l 525 991 l 715 991 l 715 0 m 486 1296 q 523 1231 502 1265 q 567 1161 543 1197 q 617 1092 591 1126 l 617 1074 l 509 1074 q 459 1123 485 1095 q 403 1186 433 1151 q 347 1121 373 1151 q 299 1074 320 1091 l 189 1074 l 189 1092 q 236 1157 211 1119 q 285 1232 262 1194 q 321 1296 308 1270 l 486 1296 z "},"ĥ":{"ha":696,"x_min":-46,"x_max":619,"o":"m 258 1055 l 258 821 q 255 740 258 780 q 244 663 252 701 l 256 663 q 294 723 271 699 q 350 761 318 748 q 419 774 381 774 q 529 742 485 774 q 596 650 574 711 q 619 501 619 589 l 619 0 l 439 0 l 439 450 q 421 572 439 533 q 366 611 404 611 q 301 585 325 611 q 268 505 278 559 q 258 366 258 450 l 258 0 l 78 0 l 78 1055 l 258 1055 m 251 1360 q 287 1295 267 1329 q 332 1225 308 1261 q 382 1156 356 1190 l 382 1137 l 273 1137 q 223 1186 250 1158 q 168 1250 197 1215 q 111 1185 138 1215 q 64 1137 85 1155 l -46 1137 l -46 1156 q 1 1220 -24 1183 q 50 1296 26 1258 q 85 1360 73 1333 l 251 1360 z "},"Ħ":{"ha":804,"x_min":-4,"x_max":810,"o":"m 90 0 l 90 729 l -4 729 l -4 860 l 90 860 l 90 991 l 279 991 l 279 860 l 526 860 l 526 991 l 717 991 l 717 860 l 810 860 l 810 729 l 717 729 l 717 0 l 526 0 l 526 433 l 279 433 l 279 0 l 90 0 m 279 599 l 526 599 l 526 729 l 279 729 l 279 599 z "},"ħ":{"ha":696,"x_min":-3,"x_max":619,"o":"m 258 1055 l 258 945 l 396 945 l 396 815 l 258 815 l 258 766 q 255 710 258 741 q 244 640 252 678 l 254 640 q 294 701 270 677 q 349 738 317 726 q 418 750 380 750 q 529 719 484 750 q 596 627 574 687 q 619 479 619 566 l 619 0 l 437 0 l 437 427 q 420 549 437 510 q 364 589 402 589 q 302 565 326 589 q 269 488 279 542 q 258 342 258 433 l 258 0 l 77 0 l 77 815 l -3 815 l -3 945 l 77 945 l 77 1055 l 258 1055 z "},"Ĩ":{"ha":368,"x_min":-43,"x_max":411,"o":"m 89 0 l 89 991 l 279 991 l 279 0 l 89 0 m -43 1072 q -37 1141 -42 1105 q -19 1208 -32 1177 q 17 1259 -6 1240 q 77 1279 41 1279 q 130 1269 105 1279 q 179 1244 155 1258 q 225 1219 203 1230 q 269 1208 248 1208 q 298 1227 288 1208 q 312 1280 307 1246 l 411 1280 q 374 1127 409 1180 q 290 1074 340 1074 q 236 1084 263 1074 q 184 1109 210 1095 q 138 1134 159 1123 q 100 1145 116 1145 q 72 1127 85 1145 q 55 1072 60 1110 l -43 1072 z "},"ĩ":{"ha":339,"x_min":-60,"x_max":395,"o":"m 260 0 l 79 0 l 79 760 l 260 760 l 260 0 m -60 840 q -53 909 -58 873 q -35 976 -48 945 q 1 1027 -22 1008 q 61 1047 24 1047 q 114 1037 89 1047 q 163 1012 139 1026 q 209 987 186 998 q 253 977 231 977 q 281 996 272 977 q 296 1048 291 1015 l 395 1048 q 358 895 393 948 q 273 842 323 842 q 220 852 247 842 q 168 877 193 863 q 121 902 143 891 q 83 913 100 913 q 56 896 68 913 q 39 840 43 878 l -60 840 z "},"Ī":{"ha":368,"x_min":-9,"x_max":374,"o":"m 89 0 l 89 991 l 279 991 l 279 0 l 89 0 m 374 1222 l 374 1090 l -9 1090 l -9 1222 l 374 1222 z "},"ī":{"ha":339,"x_min":-24,"x_max":359,"o":"m 260 0 l 79 0 l 79 760 l 260 760 l 260 0 m 359 990 l 359 859 l -24 859 l -24 990 l 359 990 z "},"Ĭ":{"ha":368,"x_min":-18,"x_max":383,"o":"m 89 0 l 89 991 l 279 991 l 279 0 l 89 0 m 383 1300 q 356 1180 383 1231 q 284 1102 330 1130 q 180 1075 238 1075 q 38 1132 92 1075 q -18 1300 -17 1189 l 92 1300 q 104 1245 94 1267 q 134 1214 115 1224 q 182 1203 153 1203 q 230 1213 210 1203 q 261 1244 250 1223 q 275 1300 273 1265 l 383 1300 z "},"ĭ":{"ha":339,"x_min":-33,"x_max":368,"o":"m 260 0 l 79 0 l 79 760 l 260 760 l 260 0 m 368 1068 q 341 948 368 999 q 269 870 315 898 q 165 843 223 843 q 23 900 77 843 q -33 1068 -32 957 l 77 1068 q 89 1014 79 1035 q 119 982 100 992 q 167 971 138 971 q 215 981 195 971 q 246 1012 235 991 q 260 1068 258 1034 l 368 1068 z "},"Į":{"ha":368,"x_min":60,"x_max":309,"o":"m 89 0 l 89 991 l 279 991 l 279 0 l 89 0 m 200 -142 q 215 -186 200 -169 q 258 -203 230 -203 q 288 -199 276 -203 q 309 -191 299 -195 l 309 -307 q 271 -319 294 -314 q 219 -325 249 -325 q 99 -287 139 -325 q 60 -180 60 -248 q 72 -113 60 -148 q 111 -44 84 -79 q 179 21 137 -10 l 275 0 q 215 -77 230 -47 q 200 -142 200 -108 z "},"į":{"ha":339,"x_min":9,"x_max":268,"o":"m 260 760 l 260 0 l 79 0 l 79 760 l 260 760 m 170 1059 q 244 1032 220 1059 q 268 954 268 1005 q 243 879 268 905 q 170 852 218 852 q 96 879 122 852 q 71 954 71 905 q 95 1033 71 1006 q 170 1059 119 1059 m 150 -142 q 165 -186 150 -169 q 208 -203 180 -203 q 237 -199 226 -203 q 258 -191 249 -195 l 258 -307 q 221 -319 243 -314 q 169 -325 199 -325 q 49 -287 89 -325 q 9 -180 9 -248 q 22 -113 9 -148 q 60 -44 34 -79 q 129 21 87 -10 l 224 0 q 165 -77 180 -47 q 150 -142 150 -108 z "},"İ":{"ha":368,"x_min":86,"x_max":283,"o":"m 89 0 l 89 991 l 279 991 l 279 0 l 89 0 m 184 1291 q 260 1264 236 1291 q 283 1186 283 1237 q 259 1111 283 1137 q 184 1084 234 1084 q 112 1111 137 1084 q 86 1186 86 1137 q 110 1264 86 1238 q 184 1291 134 1291 z "},"Ĳ":{"ha":735,"x_min":89,"x_max":648,"o":"m 89 0 l 89 991 l 279 991 l 279 0 l 89 0 m 396 -294 q 341 -291 368 -294 q 290 -279 314 -288 l 290 -117 q 326 -127 307 -123 q 367 -131 345 -131 q 421 -115 401 -131 q 450 -61 441 -99 q 458 43 458 -23 l 458 991 l 648 991 l 648 46 q 618 -157 648 -83 q 533 -263 589 -232 q 396 -294 477 -294 z "},"ĳ":{"ha":677,"x_min":71,"x_max":607,"o":"m 260 760 l 260 0 l 79 0 l 79 760 l 260 760 m 170 1059 q 244 1032 220 1059 q 268 954 268 1005 q 243 879 268 905 q 170 852 218 852 q 96 879 122 852 q 71 954 71 905 q 95 1033 71 1006 q 170 1059 119 1059 m 397 -334 q 348 -330 372 -334 q 300 -318 323 -326 l 300 -163 q 329 -172 315 -169 q 357 -175 344 -175 q 404 -150 389 -175 q 418 -72 418 -124 l 418 760 l 599 760 l 599 -82 q 575 -223 599 -168 q 506 -306 551 -279 q 397 -334 461 -332 m 410 954 q 434 1033 410 1006 q 509 1059 458 1059 q 583 1032 559 1059 q 607 954 607 1005 q 582 879 607 905 q 509 852 557 852 q 435 879 461 852 q 410 954 410 905 z "},"Ĵ":{"ha":367,"x_min":-78,"x_max":399,"o":"m 28 -294 q -27 -291 0 -294 q -78 -279 -54 -288 l -78 -117 q -42 -127 -61 -123 q -1 -131 -23 -131 q 53 -115 33 -131 q 81 -61 73 -99 q 90 43 90 -23 l 90 991 l 279 991 l 279 46 q 250 -157 279 -83 q 165 -263 221 -232 q 28 -294 109 -294 m 268 1296 q 304 1231 283 1265 q 349 1161 325 1197 q 399 1092 373 1126 l 399 1074 l 290 1074 q 240 1123 267 1095 q 184 1186 214 1151 q 128 1121 155 1151 q 81 1074 102 1091 l -29 1074 l -29 1092 q 18 1157 -7 1119 q 66 1232 43 1194 q 102 1296 90 1270 l 268 1296 z "},"ĵ":{"ha":339,"x_min":-44,"x_max":384,"o":"m 58 -334 q 7 -329 37 -334 q -39 -318 -23 -324 l -39 -163 q -10 -172 -24 -169 q 18 -175 5 -175 q 64 -151 50 -175 q 79 -78 79 -127 l 79 760 l 260 760 l 260 -82 q 237 -218 260 -161 q 169 -304 214 -274 q 58 -334 124 -334 m 253 1064 q 289 999 269 1034 q 334 929 310 965 q 384 860 358 894 l 384 842 l 275 842 q 225 891 252 863 q 170 954 199 919 q 113 889 140 919 q 66 842 87 859 l -44 842 l -44 860 q 3 925 -22 887 q 52 1000 28 962 q 87 1064 75 1038 l 253 1064 z "},"Ķ":{"ha":710,"x_min":89,"x_max":720,"o":"m 720 0 l 509 0 l 340 404 l 279 349 l 279 0 l 89 0 l 89 991 l 279 991 l 279 534 q 301 594 286 561 q 339 668 317 627 l 513 991 l 717 991 l 475 550 l 720 0 m 488 -85 l 488 -100 q 463 -172 477 -135 q 432 -243 449 -208 q 396 -307 415 -277 l 279 -307 l 279 -289 q 293 -228 286 -265 q 305 -151 300 -190 q 311 -85 310 -113 l 488 -85 z "},"ķ":{"ha":657,"x_min":78,"x_max":660,"o":"m 258 1055 l 258 596 q 257 502 258 548 q 250 411 256 456 l 256 411 q 282 467 268 441 q 309 514 297 493 l 456 760 l 650 760 l 453 449 l 660 0 l 463 0 l 329 314 l 258 244 l 258 0 l 78 0 l 78 1055 l 258 1055 m 447 -85 l 447 -100 q 422 -172 437 -135 q 391 -243 408 -208 q 355 -307 374 -277 l 239 -307 l 239 -289 q 252 -228 245 -265 q 264 -151 259 -190 q 271 -85 269 -113 l 447 -85 z "},"ĸ":{"ha":657,"x_min":78,"x_max":660,"o":"m 650 760 l 453 449 l 660 0 l 463 0 l 329 314 l 258 244 l 258 0 l 78 0 l 78 760 l 258 760 l 258 596 q 257 501 258 547 q 250 411 256 455 l 256 411 q 281 463 268 438 q 306 507 294 488 l 456 760 l 650 760 z "},"Ĺ":{"ha":564,"x_min":89,"x_max":543,"o":"m 89 0 l 89 991 l 279 991 l 279 165 l 543 165 l 543 0 l 89 0 m 410 1296 l 410 1283 q 373 1237 395 1263 q 324 1181 351 1211 q 270 1124 297 1152 q 218 1074 242 1096 l 89 1074 l 89 1092 q 134 1163 113 1128 q 171 1232 154 1198 q 203 1296 189 1265 l 410 1296 z "},"ĺ":{"ha":336,"x_min":73,"x_max":393,"o":"m 258 0 l 78 0 l 78 1055 l 258 1055 l 258 0 m 393 1358 l 393 1345 q 357 1299 379 1326 q 308 1244 334 1273 q 253 1186 281 1215 q 201 1136 226 1158 l 73 1136 l 73 1154 q 117 1226 97 1191 q 155 1294 138 1261 q 186 1358 172 1327 l 393 1358 z "},"Ļ":{"ha":564,"x_min":89,"x_max":543,"o":"m 89 0 l 89 991 l 279 991 l 279 165 l 543 165 l 543 0 l 89 0 m 416 -85 l 416 -100 q 392 -172 406 -135 q 361 -243 378 -208 q 325 -307 344 -277 l 208 -307 l 208 -289 q 222 -228 215 -265 q 234 -151 229 -190 q 240 -85 239 -113 l 416 -85 z "},"ļ":{"ha":336,"x_min":60,"x_max":268,"o":"m 258 0 l 78 0 l 78 1055 l 258 1055 l 258 0 m 268 -85 l 268 -100 q 243 -172 258 -135 q 212 -243 229 -208 q 176 -307 195 -277 l 60 -307 l 60 -289 q 73 -228 66 -265 q 85 -151 80 -190 q 92 -85 90 -113 l 268 -85 z "},"Ľ":{"ha":564,"x_min":89,"x_max":601,"o":"m 89 0 l 89 991 l 279 991 l 279 165 l 543 165 l 543 0 l 89 0 m 601 990 l 601 975 q 578 904 592 941 q 548 832 564 867 q 513 768 531 797 l 397 768 l 397 786 q 405 828 400 802 q 413 884 409 854 q 420 943 417 915 q 425 990 424 971 l 601 990 z "},"ľ":{"ha":336,"x_min":78,"x_max":509,"o":"m 258 0 l 78 0 l 78 1055 l 258 1055 l 258 0 m 509 1055 l 509 1040 q 487 969 500 1006 q 456 897 473 932 q 422 833 439 862 l 305 833 l 305 851 q 313 893 309 867 q 321 949 317 919 q 329 1008 326 980 q 333 1055 332 1036 l 509 1055 z "},"Ŀ":{"ha":564,"x_min":89,"x_max":579,"o":"m 89 0 l 89 991 l 279 991 l 279 165 l 543 165 l 543 0 l 89 0 m 480 646 q 555 620 532 646 q 579 542 579 593 q 554 466 579 492 q 480 440 530 440 q 407 466 433 440 q 382 542 382 492 q 406 620 382 594 q 480 646 429 646 z "},"ŀ":{"ha":471,"x_min":78,"x_max":505,"o":"m 258 0 l 78 0 l 78 1055 l 258 1055 l 258 0 m 406 644 q 481 617 457 644 q 505 539 505 590 q 480 464 505 490 q 406 437 455 437 q 333 464 358 437 q 307 539 307 490 q 331 617 307 591 q 406 644 355 644 z "},"Ł":{"ha":589,"x_min":-26,"x_max":567,"o":"m 114 0 l 114 334 l 62 298 l -26 410 l 114 517 l 114 991 l 302 991 l 302 654 l 416 736 l 504 623 l 302 472 l 302 165 l 567 165 l 567 0 l 114 0 z "},"ł":{"ha":396,"x_min":-35,"x_max":432,"o":"m 109 0 l 109 363 l 54 319 l -35 433 l 109 546 l 109 1055 l 289 1055 l 289 681 l 343 722 l 432 610 l 289 496 l 289 0 l 109 0 z "},"Ń":{"ha":863,"x_min":89,"x_max":775,"o":"m 775 0 l 551 0 l 261 692 l 256 692 q 262 601 260 644 q 266 524 264 559 q 267 460 267 488 l 267 0 l 89 0 l 89 991 l 311 991 l 600 315 l 606 315 q 601 402 603 362 q 597 477 599 443 q 596 541 596 512 l 596 991 l 775 991 l 775 0 m 656 1296 l 656 1283 q 619 1237 642 1263 q 570 1181 597 1211 q 516 1124 543 1152 q 464 1074 488 1096 l 335 1074 l 335 1092 q 380 1163 359 1128 q 417 1232 400 1198 q 449 1296 435 1265 l 656 1296 z "},"ń":{"ha":696,"x_min":78,"x_max":619,"o":"m 419 774 q 567 704 515 774 q 619 503 619 635 l 619 0 l 439 0 l 439 450 q 422 571 439 530 q 361 612 406 612 q 281 557 304 612 q 258 366 258 501 l 258 0 l 78 0 l 78 760 l 221 760 l 240 663 l 252 663 q 293 723 269 699 q 349 761 317 748 q 419 774 381 774 m 585 1064 l 585 1051 q 548 1005 570 1031 q 499 949 526 979 q 445 892 472 920 q 393 842 417 864 l 264 842 l 264 860 q 309 931 288 897 q 346 1000 329 966 q 378 1064 363 1033 l 585 1064 z "},"Ņ":{"ha":863,"x_min":89,"x_max":775,"o":"m 775 0 l 551 0 l 261 692 l 256 692 q 262 601 260 644 q 266 524 264 559 q 267 460 267 488 l 267 0 l 89 0 l 89 991 l 311 991 l 600 315 l 606 315 q 601 402 603 362 q 597 477 599 443 q 596 541 596 512 l 596 991 l 775 991 l 775 0 m 530 -85 l 530 -100 q 506 -172 520 -135 q 475 -243 492 -208 q 439 -307 458 -277 l 322 -307 l 322 -289 q 336 -228 329 -265 q 348 -151 342 -190 q 354 -85 353 -113 l 530 -85 z "},"ņ":{"ha":696,"x_min":78,"x_max":619,"o":"m 419 774 q 567 704 515 774 q 619 503 619 635 l 619 0 l 439 0 l 439 450 q 422 571 439 530 q 361 612 406 612 q 281 557 304 612 q 258 366 258 501 l 258 0 l 78 0 l 78 760 l 221 760 l 240 663 l 252 663 q 293 723 269 699 q 349 761 317 748 q 419 774 381 774 m 447 -85 l 447 -100 q 422 -172 437 -135 q 391 -243 408 -208 q 355 -307 374 -277 l 239 -307 l 239 -289 q 252 -228 245 -265 q 264 -151 259 -190 q 271 -85 269 -113 l 447 -85 z "},"Ň":{"ha":863,"x_min":89,"x_max":775,"o":"m 775 0 l 551 0 l 261 692 l 256 692 q 262 601 260 644 q 266 524 264 559 q 267 460 267 488 l 267 0 l 89 0 l 89 991 l 311 991 l 600 315 l 606 315 q 601 402 603 362 q 597 477 599 443 q 596 541 596 512 l 596 991 l 775 991 l 775 0 m 350 1074 q 314 1138 337 1101 q 264 1214 290 1176 q 218 1278 239 1251 l 218 1296 l 328 1296 q 378 1246 351 1275 q 432 1183 404 1217 q 488 1247 464 1221 q 538 1296 512 1272 l 646 1296 l 646 1278 q 602 1215 627 1251 q 553 1140 576 1178 q 515 1074 530 1103 l 350 1074 z "},"ň":{"ha":696,"x_min":78,"x_max":619,"o":"m 419 774 q 567 704 515 774 q 619 503 619 635 l 619 0 l 439 0 l 439 450 q 422 571 439 530 q 361 612 406 612 q 281 557 304 612 q 258 366 258 501 l 258 0 l 78 0 l 78 760 l 221 760 l 240 663 l 252 663 q 293 723 269 699 q 349 761 317 748 q 419 774 381 774 m 279 842 q 242 906 266 869 q 193 982 219 944 q 147 1046 168 1019 l 147 1064 l 257 1064 q 307 1014 280 1043 q 361 951 333 985 q 417 1015 393 989 q 467 1064 441 1040 l 575 1064 l 575 1046 q 530 983 555 1019 q 482 908 505 946 q 444 842 459 871 l 279 842 z "},"ŉ":{"ha":859,"x_min":3,"x_max":782,"o":"m 582 774 q 730 704 678 774 q 782 503 782 635 l 782 0 l 602 0 l 602 450 q 585 571 602 530 q 524 612 569 612 q 444 557 467 612 q 421 366 421 501 l 421 0 l 241 0 l 241 760 l 384 760 l 403 663 l 414 663 q 456 723 431 699 q 512 761 480 748 q 582 774 544 774 m 238 991 l 246 977 q 221 845 235 908 q 189 725 206 782 q 151 616 172 668 l 3 616 q 21 705 12 655 q 37 807 29 755 q 50 908 45 860 q 58 991 56 956 l 238 991 z "},"Ŋ":{"ha":864,"x_min":89,"x_max":775,"o":"m 533 -294 q 479 -291 505 -294 q 428 -279 453 -288 l 428 -117 q 464 -127 445 -123 q 505 -131 484 -131 q 558 -116 538 -131 q 587 -71 578 -102 q 596 5 596 -41 l 260 715 l 256 715 q 261 626 259 667 q 264 549 263 584 q 265 485 265 513 l 265 0 l 89 0 l 89 991 l 311 991 l 600 379 l 604 379 q 600 465 602 425 q 597 540 598 505 q 596 604 596 575 l 596 991 l 775 991 l 775 35 q 750 -149 775 -76 q 671 -258 724 -222 q 533 -294 617 -294 z "},"ŋ":{"ha":696,"x_min":78,"x_max":619,"o":"m 418 -334 q 369 -330 394 -334 q 321 -318 345 -326 l 321 -163 q 351 -172 336 -169 q 378 -175 365 -175 q 424 -150 409 -175 q 439 -72 439 -124 l 439 450 q 421 570 439 529 q 364 611 404 611 q 305 590 329 611 q 270 516 281 570 q 258 366 258 463 l 258 0 l 78 0 l 78 760 l 221 760 l 240 663 l 250 663 q 292 723 268 699 q 349 761 317 748 q 419 774 380 774 q 531 740 487 774 q 597 644 575 707 q 619 494 619 581 l 619 -82 q 598 -209 619 -152 q 533 -300 578 -267 q 418 -334 489 -334 z "},"Ō":{"ha":823,"x_min":60,"x_max":764,"o":"m 764 497 q 742 284 764 379 q 677 123 720 190 q 567 22 633 57 q 412 -14 501 -14 q 256 22 323 -14 q 146 125 190 58 q 81 286 103 192 q 60 498 60 380 q 100 779 60 665 q 218 949 140 892 q 412 1007 297 1007 q 610 945 532 1007 q 726 769 688 884 q 764 497 764 655 m 257 497 q 275 307 257 383 q 327 192 292 231 q 412 154 361 154 q 498 191 464 154 q 550 304 532 229 q 567 497 567 380 q 528 756 567 671 q 412 842 490 842 q 327 803 361 842 q 275 688 292 764 q 257 497 257 611 m 604 1222 l 604 1090 l 221 1090 l 221 1222 l 604 1222 z "},"ō":{"ha":677,"x_min":50,"x_max":628,"o":"m 628 382 q 612 231 628 302 q 562 105 596 160 q 472 18 528 50 q 338 -14 417 -14 q 210 18 264 -14 q 120 103 155 49 q 67 230 85 158 q 50 382 50 301 q 80 585 50 496 q 175 724 111 673 q 340 774 239 774 q 493 728 428 774 q 593 596 557 683 q 628 382 628 509 m 233 379 q 244 247 233 300 q 279 166 256 193 q 339 139 302 139 q 399 166 376 139 q 432 247 422 193 q 443 382 443 301 q 432 515 443 462 q 399 594 422 568 q 339 621 376 621 q 258 562 283 621 q 233 379 233 503 m 530 990 l 530 859 l 147 859 l 147 990 l 530 990 z "},"Ŏ":{"ha":823,"x_min":60,"x_max":764,"o":"m 764 497 q 742 284 764 379 q 677 123 720 190 q 567 22 633 57 q 412 -14 501 -14 q 256 22 323 -14 q 146 125 190 58 q 81 286 103 192 q 60 498 60 380 q 100 779 60 665 q 218 949 140 892 q 412 1007 297 1007 q 610 945 532 1007 q 726 769 688 884 q 764 497 764 655 m 257 497 q 275 307 257 383 q 327 192 292 231 q 412 154 361 154 q 498 191 464 154 q 550 304 532 229 q 567 497 567 380 q 528 756 567 671 q 412 842 490 842 q 327 803 361 842 q 275 688 292 764 q 257 497 257 611 m 612 1300 q 586 1180 612 1231 q 513 1102 559 1130 q 410 1075 467 1075 q 267 1132 321 1075 q 211 1300 212 1189 l 321 1300 q 333 1245 323 1267 q 363 1214 344 1224 q 411 1203 382 1203 q 459 1213 439 1203 q 490 1244 479 1223 q 504 1300 502 1265 l 612 1300 z "},"ŏ":{"ha":677,"x_min":50,"x_max":628,"o":"m 628 382 q 612 231 628 302 q 562 105 596 160 q 472 18 528 50 q 338 -14 417 -14 q 210 18 264 -14 q 120 103 155 49 q 67 230 85 158 q 50 382 50 301 q 80 585 50 496 q 175 724 111 673 q 340 774 239 774 q 493 728 428 774 q 593 596 557 683 q 628 382 628 509 m 233 379 q 244 247 233 300 q 279 166 256 193 q 339 139 302 139 q 399 166 376 139 q 432 247 422 193 q 443 382 443 301 q 432 515 443 462 q 399 594 422 568 q 339 621 376 621 q 258 562 283 621 q 233 379 233 503 m 539 1068 q 512 948 539 999 q 440 870 486 898 q 336 843 394 843 q 194 900 248 843 q 138 1068 139 957 l 248 1068 q 260 1014 250 1035 q 290 982 271 992 q 338 971 309 971 q 386 981 366 971 q 417 1012 406 991 q 431 1068 429 1034 l 539 1068 z "},"Ő":{"ha":823,"x_min":60,"x_max":764,"o":"m 764 497 q 742 284 764 379 q 677 123 720 190 q 567 22 633 57 q 412 -14 501 -14 q 256 22 323 -14 q 146 125 190 58 q 81 286 103 192 q 60 498 60 380 q 100 779 60 665 q 218 949 140 892 q 412 1007 297 1007 q 610 945 532 1007 q 726 769 688 884 q 764 497 764 655 m 257 497 q 275 307 257 383 q 327 192 292 231 q 412 154 361 154 q 498 191 464 154 q 550 304 532 229 q 567 497 567 380 q 528 756 567 671 q 412 842 490 842 q 327 803 361 842 q 275 688 292 764 q 257 497 257 611 m 724 1296 l 724 1283 q 694 1234 714 1262 q 648 1177 673 1206 q 595 1120 622 1147 q 546 1074 568 1093 l 453 1074 l 453 1092 q 496 1174 476 1135 q 532 1245 517 1213 q 555 1296 548 1277 l 724 1296 m 496 1296 l 496 1283 q 466 1234 486 1261 q 421 1179 446 1207 q 367 1124 395 1151 q 311 1074 339 1097 l 225 1074 l 225 1092 q 269 1175 249 1136 q 304 1246 290 1215 q 328 1296 319 1277 l 496 1296 z "},"ő":{"ha":677,"x_min":50,"x_max":650,"o":"m 628 382 q 612 231 628 302 q 562 105 596 160 q 472 18 528 50 q 338 -14 417 -14 q 210 18 264 -14 q 120 103 155 49 q 67 230 85 158 q 50 382 50 301 q 80 585 50 496 q 175 724 111 673 q 340 774 239 774 q 493 728 428 774 q 593 596 557 683 q 628 382 628 509 m 233 379 q 244 247 233 300 q 279 166 256 193 q 339 139 302 139 q 399 166 376 139 q 432 247 422 193 q 443 382 443 301 q 432 515 443 462 q 399 594 422 568 q 339 621 376 621 q 258 562 283 621 q 233 379 233 503 m 650 1064 l 650 1051 q 620 1002 640 1030 q 574 945 600 975 q 521 888 548 916 q 472 842 494 861 l 379 842 l 379 860 q 422 942 402 903 q 458 1013 443 981 q 481 1064 474 1045 l 650 1064 m 422 1064 l 422 1051 q 392 1002 412 1029 q 347 947 372 975 q 293 892 321 919 q 237 842 265 865 l 151 842 l 151 860 q 195 943 175 904 q 231 1014 216 983 q 254 1064 245 1045 l 422 1064 z "},"Œ":{"ha":985,"x_min":60,"x_max":926,"o":"m 411 1004 q 463 1001 439 1004 q 505 991 486 997 l 926 991 l 926 829 l 671 829 l 671 596 l 908 596 l 908 433 l 671 433 l 671 165 l 926 165 l 926 0 l 505 0 q 464 -8 487 -5 q 412 -11 441 -11 q 212 54 290 -11 q 97 233 134 118 q 60 498 60 347 q 98 765 60 652 q 214 942 136 879 q 411 1004 292 1004 m 424 839 q 348 815 379 838 q 296 749 316 793 q 268 642 277 705 q 258 497 258 578 q 275 313 258 389 q 328 197 292 237 q 425 157 365 157 q 459 159 444 157 q 486 164 475 161 l 486 825 q 459 835 475 831 q 424 839 444 839 z "},"œ":{"ha":1025,"x_min":50,"x_max":979,"o":"m 718 772 q 862 730 804 772 q 950 611 920 688 q 979 429 979 534 l 979 328 l 618 328 q 653 180 618 228 q 761 132 688 132 q 853 145 810 132 q 945 189 895 159 l 945 39 q 849 -1 899 12 q 741 -14 800 -14 q 618 13 669 -14 q 532 90 568 39 q 452 13 500 39 q 338 -14 404 -14 q 179 37 243 -14 q 83 176 115 87 q 50 382 50 265 q 82 588 50 500 q 178 725 113 676 q 340 774 242 774 q 450 749 403 774 q 530 672 497 724 q 579 728 552 706 q 641 761 606 750 q 718 772 675 772 m 339 621 q 258 562 283 621 q 233 379 233 503 q 244 247 233 300 q 279 166 256 193 q 339 139 303 139 q 399 166 376 139 q 432 247 422 193 q 443 382 443 300 q 432 515 443 462 q 398 594 421 568 q 339 621 376 621 m 717 629 q 647 589 673 629 q 618 458 620 549 l 811 458 q 800 551 811 513 q 768 609 789 589 q 717 629 747 629 z "},"Ŕ":{"ha":711,"x_min":89,"x_max":708,"o":"m 319 991 q 502 960 429 991 q 610 864 574 928 q 646 704 646 800 q 631 593 646 643 q 584 504 616 543 q 504 436 553 465 l 708 0 l 498 0 l 336 389 l 279 389 l 279 0 l 89 0 l 89 991 l 319 991 m 318 831 l 279 831 l 279 539 l 322 539 q 419 578 386 539 q 452 694 452 616 q 419 798 452 764 q 318 831 386 831 m 587 1296 l 587 1283 q 551 1237 573 1263 q 502 1181 528 1211 q 447 1124 475 1152 q 395 1074 420 1096 l 267 1074 l 267 1092 q 311 1163 291 1128 q 349 1232 332 1198 q 380 1296 366 1265 l 587 1296 z "},"ŕ":{"ha":482,"x_min":79,"x_max":493,"o":"m 408 774 q 437 771 423 774 q 471 764 452 769 l 454 571 q 425 578 441 576 q 390 581 409 581 q 334 567 359 581 q 293 528 310 553 q 268 467 277 503 q 260 387 260 431 l 260 0 l 79 0 l 79 760 l 218 760 l 244 635 l 253 635 q 290 703 268 671 q 342 754 313 734 q 408 774 372 774 m 493 1064 l 493 1051 q 456 1005 479 1031 q 407 949 434 979 q 353 892 380 920 q 301 842 326 864 l 172 842 l 172 860 q 217 931 197 897 q 255 1000 237 966 q 286 1064 272 1033 l 493 1064 z "},"Ŗ":{"ha":711,"x_min":89,"x_max":708,"o":"m 319 991 q 502 960 429 991 q 610 864 574 928 q 646 704 646 800 q 631 593 646 643 q 584 504 616 543 q 504 436 553 465 l 708 0 l 498 0 l 336 389 l 279 389 l 279 0 l 89 0 l 89 991 l 319 991 m 318 831 l 279 831 l 279 539 l 322 539 q 419 578 386 539 q 452 694 452 616 q 419 798 452 764 q 318 831 386 831 m 469 -85 l 469 -100 q 445 -172 459 -135 q 414 -243 431 -208 q 378 -307 397 -277 l 261 -307 l 261 -289 q 275 -228 268 -265 q 287 -151 281 -190 q 293 -85 292 -113 l 469 -85 z "},"ŗ":{"ha":482,"x_min":68,"x_max":471,"o":"m 408 774 q 437 771 423 774 q 471 764 452 769 l 454 571 q 425 578 441 576 q 390 581 409 581 q 334 567 359 581 q 293 528 310 553 q 268 467 277 503 q 260 387 260 431 l 260 0 l 79 0 l 79 760 l 218 760 l 244 635 l 253 635 q 290 703 268 671 q 342 754 313 734 q 408 774 372 774 m 276 -85 l 276 -100 q 252 -172 266 -135 q 220 -243 237 -208 q 184 -307 203 -277 l 68 -307 l 68 -289 q 81 -228 75 -265 q 93 -151 88 -190 q 100 -85 98 -113 l 276 -85 z "},"Ř":{"ha":711,"x_min":89,"x_max":708,"o":"m 319 991 q 502 960 429 991 q 610 864 574 928 q 646 704 646 800 q 631 593 646 643 q 584 504 616 543 q 504 436 553 465 l 708 0 l 498 0 l 336 389 l 279 389 l 279 0 l 89 0 l 89 991 l 319 991 m 318 831 l 279 831 l 279 539 l 322 539 q 419 578 386 539 q 452 694 452 616 q 419 798 452 764 q 318 831 386 831 m 281 1074 q 245 1138 269 1101 q 196 1214 222 1176 q 150 1278 170 1251 l 150 1296 l 260 1296 q 309 1246 283 1275 q 363 1183 336 1217 q 419 1247 395 1221 q 469 1296 444 1272 l 578 1296 l 578 1278 q 533 1215 558 1251 q 485 1140 508 1178 q 447 1074 462 1103 l 281 1074 z "},"ř":{"ha":482,"x_min":56,"x_max":484,"o":"m 408 774 q 437 771 423 774 q 471 764 452 769 l 454 571 q 425 578 441 576 q 390 581 409 581 q 334 567 359 581 q 293 528 310 553 q 268 467 277 503 q 260 387 260 431 l 260 0 l 79 0 l 79 760 l 218 760 l 244 635 l 253 635 q 290 703 268 671 q 342 754 313 734 q 408 774 372 774 m 187 842 q 151 906 174 869 q 102 982 127 944 q 56 1046 76 1019 l 56 1064 l 165 1064 q 215 1014 189 1043 q 269 951 241 985 q 325 1015 301 989 q 375 1064 349 1040 l 484 1064 l 484 1046 q 439 983 464 1019 q 391 908 414 946 q 353 842 368 871 l 187 842 z "},"Ś":{"ha":608,"x_min":45,"x_max":567,"o":"m 567 290 q 531 132 567 201 q 430 25 495 64 q 275 -14 364 -14 q 195 -8 234 -14 q 119 8 157 -3 q 45 40 82 20 l 45 235 q 157 181 99 199 q 265 163 216 163 q 326 177 302 163 q 362 216 350 191 q 374 271 374 240 q 363 328 374 303 q 325 377 353 353 q 240 435 296 402 q 162 488 197 460 q 102 548 127 515 q 64 624 77 581 q 52 726 52 667 q 84 873 51 810 q 181 971 118 937 q 334 1006 245 1006 q 452 989 394 1006 q 564 943 510 973 l 511 775 q 420 818 463 804 q 340 832 378 832 q 286 820 308 832 q 253 785 264 807 q 241 736 241 764 q 252 676 241 701 q 293 628 263 652 q 380 572 323 605 q 484 496 442 536 q 546 406 525 456 q 567 290 567 356 m 546 1296 l 546 1283 q 509 1237 532 1263 q 460 1181 487 1211 q 406 1124 433 1152 q 354 1074 378 1096 l 225 1074 l 225 1092 q 270 1163 250 1128 q 308 1232 290 1198 q 339 1296 325 1265 l 546 1296 z "},"ś":{"ha":519,"x_min":39,"x_max":493,"o":"m 482 222 q 453 93 482 145 q 370 13 425 40 q 239 -14 315 -14 q 134 -3 184 -14 q 40 29 84 7 l 40 204 q 125 161 77 179 q 222 143 173 143 q 281 161 260 143 q 301 212 301 178 q 293 248 301 231 q 260 283 285 264 q 187 326 236 302 q 107 385 140 352 q 56 461 74 418 q 39 558 39 504 q 101 716 39 659 q 272 774 163 774 q 377 759 328 774 q 473 714 426 743 l 424 575 q 355 612 391 597 q 282 627 319 627 q 231 611 249 627 q 214 567 214 595 q 222 533 214 547 q 254 502 230 519 q 325 456 278 484 q 407 397 372 429 q 462 323 442 365 q 482 222 482 281 m 493 1064 l 493 1051 q 456 1005 479 1031 q 407 949 434 979 q 353 892 380 920 q 301 842 326 864 l 172 842 l 172 860 q 217 931 197 897 q 255 1000 237 966 q 286 1064 272 1033 l 493 1064 z "},"Ŝ":{"ha":608,"x_min":45,"x_max":567,"o":"m 567 290 q 531 132 567 201 q 430 25 495 64 q 275 -14 364 -14 q 195 -8 234 -14 q 119 8 157 -3 q 45 40 82 20 l 45 235 q 157 181 99 199 q 265 163 216 163 q 326 177 302 163 q 362 216 350 191 q 374 271 374 240 q 363 328 374 303 q 325 377 353 353 q 240 435 296 402 q 162 488 197 460 q 102 548 127 515 q 64 624 77 581 q 52 726 52 667 q 84 873 51 810 q 181 971 118 937 q 334 1006 245 1006 q 452 989 394 1006 q 564 943 510 973 l 511 775 q 420 818 463 804 q 340 832 378 832 q 286 820 308 832 q 253 785 264 807 q 241 736 241 764 q 252 676 241 701 q 293 628 263 652 q 380 572 323 605 q 484 496 442 536 q 546 406 525 456 q 567 290 567 356 m 406 1296 q 442 1231 421 1265 q 487 1161 463 1197 q 536 1092 511 1126 l 536 1074 l 428 1074 q 378 1123 404 1095 q 322 1186 352 1151 q 266 1121 292 1151 q 218 1074 239 1091 l 109 1074 l 109 1092 q 156 1157 130 1119 q 204 1232 181 1194 q 240 1296 227 1270 l 406 1296 z "},"ŝ":{"ha":519,"x_min":39,"x_max":484,"o":"m 482 222 q 453 93 482 145 q 370 13 425 40 q 239 -14 315 -14 q 134 -3 184 -14 q 40 29 84 7 l 40 204 q 125 161 77 179 q 222 143 173 143 q 281 161 260 143 q 301 212 301 178 q 293 248 301 231 q 260 283 285 264 q 187 326 236 302 q 107 385 140 352 q 56 461 74 418 q 39 558 39 504 q 101 716 39 659 q 272 774 163 774 q 377 759 328 774 q 473 714 426 743 l 424 575 q 355 612 391 597 q 282 627 319 627 q 231 611 249 627 q 214 567 214 595 q 222 533 214 547 q 254 502 230 519 q 325 456 278 484 q 407 397 372 429 q 462 323 442 365 q 482 222 482 281 m 353 1064 q 389 999 368 1034 q 434 929 410 965 q 484 860 458 894 l 484 842 l 375 842 q 325 891 351 863 q 269 954 299 919 q 213 889 239 919 q 165 842 186 859 l 56 842 l 56 860 q 103 925 77 887 q 151 1000 128 962 q 187 1064 174 1038 l 353 1064 z "},"Ş":{"ha":608,"x_min":45,"x_max":567,"o":"m 567 290 q 531 132 567 201 q 430 25 495 64 q 275 -14 364 -14 q 195 -8 234 -14 q 119 8 157 -3 q 45 40 82 20 l 45 235 q 157 181 99 199 q 265 163 216 163 q 326 177 302 163 q 362 216 350 191 q 374 271 374 240 q 363 328 374 303 q 325 377 353 353 q 240 435 296 402 q 162 488 197 460 q 102 548 127 515 q 64 624 77 581 q 52 726 52 667 q 84 873 51 810 q 181 971 118 937 q 334 1006 245 1006 q 452 989 394 1006 q 564 943 510 973 l 511 775 q 420 818 463 804 q 340 832 378 832 q 286 820 308 832 q 253 785 264 807 q 241 736 241 764 q 252 676 241 701 q 293 628 263 652 q 380 572 323 605 q 484 496 442 536 q 546 406 525 456 q 567 290 567 356 m 422 -180 q 378 -293 422 -252 q 250 -334 334 -334 q 194 -330 220 -334 q 147 -322 168 -327 l 147 -216 q 184 -224 166 -222 q 217 -227 201 -227 q 266 -213 249 -227 q 282 -176 282 -200 q 256 -133 282 -149 q 184 -114 231 -117 l 232 0 l 323 0 l 300 -56 q 366 -79 339 -62 q 408 -121 393 -96 q 422 -180 422 -147 z "},"ş":{"ha":519,"x_min":39,"x_max":482,"o":"m 482 222 q 453 93 482 145 q 370 13 425 40 q 239 -14 315 -14 q 134 -3 184 -14 q 40 29 84 7 l 40 204 q 125 161 77 179 q 222 143 173 143 q 281 161 260 143 q 301 212 301 178 q 293 248 301 231 q 260 283 285 264 q 187 326 236 302 q 107 385 140 352 q 56 461 74 418 q 39 558 39 504 q 101 716 39 659 q 272 774 163 774 q 377 759 328 774 q 473 714 426 743 l 424 575 q 355 612 391 597 q 282 627 319 627 q 231 611 249 627 q 214 567 214 595 q 222 533 214 547 q 254 502 230 519 q 325 456 278 484 q 407 397 372 429 q 462 323 442 365 q 482 222 482 281 m 378 -180 q 334 -293 378 -252 q 206 -334 290 -334 q 150 -330 176 -334 q 103 -322 124 -327 l 103 -216 q 140 -224 122 -222 q 173 -227 157 -227 q 221 -213 205 -227 q 238 -176 238 -200 q 212 -133 238 -149 q 140 -114 186 -117 l 188 0 l 279 0 l 256 -56 q 322 -79 295 -62 q 364 -121 349 -96 q 378 -180 378 -147 z "},"Š":{"ha":608,"x_min":45,"x_max":567,"o":"m 567 290 q 531 132 567 201 q 430 25 495 64 q 275 -14 364 -14 q 195 -8 234 -14 q 119 8 157 -3 q 45 40 82 20 l 45 235 q 157 181 99 199 q 265 163 216 163 q 326 177 302 163 q 362 216 350 191 q 374 271 374 240 q 363 328 374 303 q 325 377 353 353 q 240 435 296 402 q 162 488 197 460 q 102 548 127 515 q 64 624 77 581 q 52 726 52 667 q 84 873 51 810 q 181 971 118 937 q 334 1006 245 1006 q 452 989 394 1006 q 564 943 510 973 l 511 775 q 420 818 463 804 q 340 832 378 832 q 286 820 308 832 q 253 785 264 807 q 241 736 241 764 q 252 676 241 701 q 293 628 263 652 q 380 572 323 605 q 484 496 442 536 q 546 406 525 456 q 567 290 567 356 m 240 1074 q 204 1138 227 1101 q 155 1214 180 1176 q 109 1278 129 1251 l 109 1296 l 218 1296 q 268 1246 241 1275 q 322 1183 294 1217 q 378 1247 354 1221 q 428 1296 402 1272 l 536 1296 l 536 1278 q 492 1215 517 1251 q 444 1140 467 1178 q 406 1074 420 1103 l 240 1074 z "},"š":{"ha":519,"x_min":39,"x_max":484,"o":"m 482 222 q 453 93 482 145 q 370 13 425 40 q 239 -14 315 -14 q 134 -3 184 -14 q 40 29 84 7 l 40 204 q 125 161 77 179 q 222 143 173 143 q 281 161 260 143 q 301 212 301 178 q 293 248 301 231 q 260 283 285 264 q 187 326 236 302 q 107 385 140 352 q 56 461 74 418 q 39 558 39 504 q 101 716 39 659 q 272 774 163 774 q 377 759 328 774 q 473 714 426 743 l 424 575 q 355 612 391 597 q 282 627 319 627 q 231 611 249 627 q 214 567 214 595 q 222 533 214 547 q 254 502 230 519 q 325 456 278 484 q 407 397 372 429 q 462 323 442 365 q 482 222 482 281 m 187 842 q 151 906 174 869 q 102 982 127 944 q 56 1046 76 1019 l 56 1064 l 165 1064 q 215 1014 189 1043 q 269 951 241 985 q 325 1015 301 989 q 375 1064 349 1040 l 484 1064 l 484 1046 q 439 983 464 1019 q 391 908 414 946 q 353 842 368 871 l 187 842 z "},"Ț":{"ha":596,"x_min":20,"x_max":575,"o":"m 392 0 l 204 0 l 204 827 l 20 827 l 20 991 l 575 991 l 575 827 l 392 827 l 392 0 m 397 -85 l 397 -100 q 372 -172 387 -135 q 341 -243 358 -208 q 305 -307 324 -277 l 189 -307 l 189 -289 q 202 -228 195 -265 q 214 -151 209 -190 q 220 -85 219 -113 l 397 -85 z "},"ț":{"ha":440,"x_min":16,"x_max":416,"o":"m 332 144 q 372 150 351 144 q 416 165 393 155 l 416 21 q 351 -5 387 4 q 275 -14 315 -14 q 169 13 210 -14 q 109 92 128 39 q 90 227 90 145 l 90 610 l 16 610 l 16 707 l 104 754 l 147 920 l 271 920 l 271 760 l 407 760 l 407 610 l 271 610 l 271 233 q 284 166 271 189 q 332 144 298 144 m 361 -85 l 361 -100 q 336 -172 351 -135 q 305 -243 322 -208 q 269 -307 288 -277 l 153 -307 l 153 -289 q 166 -228 159 -265 q 178 -151 173 -190 q 184 -85 183 -113 l 361 -85 z "},"Ť":{"ha":596,"x_min":20,"x_max":575,"o":"m 392 0 l 204 0 l 204 827 l 20 827 l 20 991 l 575 991 l 575 827 l 392 827 l 392 0 m 216 1074 q 180 1138 203 1101 q 131 1214 157 1176 q 85 1278 105 1251 l 85 1296 l 195 1296 q 244 1246 218 1275 q 298 1183 271 1217 q 354 1247 330 1221 q 404 1296 378 1272 l 513 1296 l 513 1278 q 468 1215 493 1251 q 420 1140 443 1178 q 382 1074 397 1103 l 216 1074 z "},"ť":{"ha":440,"x_min":16,"x_max":625,"o":"m 332 144 q 372 150 351 144 q 416 165 393 155 l 416 21 q 351 -5 387 4 q 275 -14 315 -14 q 169 13 210 -14 q 109 92 128 39 q 90 227 90 145 l 90 610 l 16 610 l 16 707 l 104 754 l 147 920 l 271 920 l 271 760 l 407 760 l 407 610 l 271 610 l 271 233 q 284 166 271 189 q 332 144 298 144 m 625 1055 l 625 1040 q 602 969 616 1006 q 571 897 588 932 q 537 833 555 862 l 420 833 l 420 851 q 428 893 424 867 q 437 949 433 919 q 444 1008 441 980 q 448 1055 448 1036 l 625 1055 z "},"Ŧ":{"ha":596,"x_min":20,"x_max":575,"o":"m 204 0 l 204 416 l 81 416 l 81 559 l 204 559 l 204 825 l 20 825 l 20 991 l 575 991 l 575 825 l 392 825 l 392 559 l 515 559 l 515 416 l 392 416 l 392 0 l 204 0 z "},"ŧ":{"ha":440,"x_min":16,"x_max":416,"o":"m 21 335 l 21 464 l 397 464 l 397 335 l 21 335 m 332 144 q 372 150 351 144 q 416 165 393 155 l 416 21 q 351 -5 387 4 q 275 -14 315 -14 q 169 13 210 -14 q 109 92 128 39 q 90 227 90 145 l 90 610 l 16 610 l 16 707 l 104 754 l 147 920 l 271 920 l 271 760 l 407 760 l 407 610 l 271 610 l 271 233 q 284 166 271 189 q 332 144 298 144 z "},"Ũ":{"ha":781,"x_min":83,"x_max":697,"o":"m 697 991 l 697 326 q 662 137 697 212 q 558 24 627 62 q 389 -14 490 -14 q 162 70 241 -14 q 83 322 83 153 l 83 991 l 273 991 l 273 329 q 303 194 273 235 q 390 154 333 154 q 456 171 430 154 q 495 227 482 189 q 509 330 509 266 l 509 991 l 697 991 m 163 1072 q 169 1141 164 1105 q 187 1208 174 1177 q 223 1259 200 1240 q 283 1279 247 1279 q 336 1269 311 1279 q 385 1244 361 1258 q 431 1219 409 1230 q 475 1208 454 1208 q 504 1227 494 1208 q 518 1280 513 1246 l 617 1280 q 581 1127 615 1180 q 496 1074 546 1074 q 443 1084 469 1074 q 391 1109 416 1095 q 344 1134 366 1123 q 306 1145 322 1145 q 278 1127 291 1145 q 261 1072 266 1110 l 163 1072 z "},"ũ":{"ha":696,"x_min":77,"x_max":618,"o":"m 618 760 l 618 0 l 476 0 l 456 97 l 446 97 q 404 36 429 60 q 348 -1 380 12 q 278 -14 317 -14 q 166 20 211 -14 q 99 115 121 53 q 77 264 77 177 l 77 760 l 257 760 l 257 318 q 274 190 257 233 q 329 147 291 147 q 397 174 374 147 q 429 251 420 200 q 437 374 437 302 l 437 760 l 618 760 m 121 840 q 127 909 122 873 q 145 976 132 945 q 181 1027 158 1008 q 241 1047 205 1047 q 294 1037 269 1047 q 343 1012 319 1026 q 389 987 367 998 q 433 977 412 977 q 462 996 452 977 q 476 1048 471 1015 l 575 1048 q 538 895 573 948 q 454 842 504 842 q 400 852 427 842 q 349 877 374 863 q 302 902 323 891 q 264 913 280 913 q 236 896 249 913 q 219 840 224 878 l 121 840 z "},"Ū":{"ha":781,"x_min":83,"x_max":697,"o":"m 697 991 l 697 326 q 662 137 697 212 q 558 24 627 62 q 389 -14 490 -14 q 162 70 241 -14 q 83 322 83 153 l 83 991 l 273 991 l 273 329 q 303 194 273 235 q 390 154 333 154 q 456 171 430 154 q 495 227 482 189 q 509 330 509 266 l 509 991 l 697 991 m 582 1222 l 582 1090 l 199 1090 l 199 1222 l 582 1222 z "},"ū":{"ha":696,"x_min":77,"x_max":618,"o":"m 618 760 l 618 0 l 476 0 l 456 97 l 446 97 q 404 36 429 60 q 348 -1 380 12 q 278 -14 317 -14 q 166 20 211 -14 q 99 115 121 53 q 77 264 77 177 l 77 760 l 257 760 l 257 318 q 274 190 257 233 q 329 147 291 147 q 397 174 374 147 q 429 251 420 200 q 437 374 437 302 l 437 760 l 618 760 m 541 990 l 541 859 l 157 859 l 157 990 l 541 990 z "},"Ŭ":{"ha":781,"x_min":83,"x_max":697,"o":"m 697 991 l 697 326 q 662 137 697 212 q 558 24 627 62 q 389 -14 490 -14 q 162 70 241 -14 q 83 322 83 153 l 83 991 l 273 991 l 273 329 q 303 194 273 235 q 390 154 333 154 q 456 171 430 154 q 495 227 482 189 q 509 330 509 266 l 509 991 l 697 991 m 591 1300 q 564 1180 591 1231 q 491 1102 537 1130 q 388 1075 446 1075 q 245 1132 300 1075 q 189 1300 191 1189 l 299 1300 q 312 1245 301 1267 q 341 1214 322 1224 q 389 1203 361 1203 q 437 1213 417 1203 q 469 1244 457 1223 q 482 1300 480 1265 l 591 1300 z "},"ŭ":{"ha":696,"x_min":77,"x_max":618,"o":"m 618 760 l 618 0 l 476 0 l 456 97 l 446 97 q 404 36 429 60 q 348 -1 380 12 q 278 -14 317 -14 q 166 20 211 -14 q 99 115 121 53 q 77 264 77 177 l 77 760 l 257 760 l 257 318 q 274 190 257 233 q 329 147 291 147 q 397 174 374 147 q 429 251 420 200 q 437 374 437 302 l 437 760 l 618 760 m 549 1068 q 522 948 549 999 q 449 870 495 898 q 346 843 404 843 q 203 900 258 843 q 147 1068 149 957 l 257 1068 q 270 1014 259 1035 q 299 982 280 992 q 347 971 319 971 q 395 981 375 971 q 427 1012 415 991 q 440 1068 438 1034 l 549 1068 z "},"Ů":{"ha":781,"x_min":83,"x_max":697,"o":"m 697 991 l 697 326 q 662 137 697 212 q 558 24 627 62 q 389 -14 490 -14 q 162 70 241 -14 q 83 322 83 153 l 83 991 l 273 991 l 273 329 q 303 194 273 235 q 390 154 333 154 q 456 171 430 154 q 495 227 482 189 q 509 330 509 266 l 509 991 l 697 991 m 389 1074 q 272 1118 316 1074 q 228 1232 228 1162 q 272 1347 228 1303 q 389 1392 316 1392 q 506 1347 461 1392 q 551 1234 551 1302 q 507 1119 551 1164 q 389 1074 463 1074 m 391 1171 q 436 1188 418 1171 q 454 1234 454 1205 q 436 1278 454 1261 q 391 1296 418 1296 q 345 1278 363 1296 q 326 1234 326 1261 q 343 1188 326 1205 q 391 1171 359 1171 z "},"ů":{"ha":696,"x_min":77,"x_max":618,"o":"m 618 760 l 618 0 l 476 0 l 456 97 l 446 97 q 404 36 429 60 q 348 -1 380 12 q 278 -14 317 -14 q 166 20 211 -14 q 99 115 121 53 q 77 264 77 177 l 77 760 l 257 760 l 257 318 q 274 190 257 233 q 329 147 291 147 q 397 174 374 147 q 429 251 420 200 q 437 374 437 302 l 437 760 l 618 760 m 347 842 q 231 886 275 842 q 186 1000 186 930 q 231 1115 186 1071 q 347 1160 275 1160 q 465 1115 420 1160 q 510 1002 510 1070 q 466 887 510 932 q 347 842 422 842 m 349 939 q 395 956 376 939 q 413 1002 413 973 q 395 1046 413 1029 q 349 1064 377 1064 q 303 1046 322 1064 q 285 1002 285 1029 q 301 956 285 973 q 349 939 318 939 z "},"Ű":{"ha":781,"x_min":83,"x_max":701,"o":"m 697 991 l 697 326 q 662 137 697 212 q 558 24 627 62 q 389 -14 490 -14 q 162 70 241 -14 q 83 322 83 153 l 83 991 l 273 991 l 273 329 q 303 194 273 235 q 390 154 333 154 q 456 171 430 154 q 495 227 482 189 q 509 330 509 266 l 509 991 l 697 991 m 701 1296 l 701 1283 q 671 1234 692 1262 q 625 1177 651 1206 q 573 1120 600 1147 q 524 1074 546 1093 l 431 1074 l 431 1092 q 474 1174 454 1135 q 510 1245 494 1213 q 533 1296 526 1277 l 701 1296 m 473 1296 l 473 1283 q 444 1234 463 1261 q 398 1179 424 1207 q 345 1124 373 1151 q 289 1074 317 1097 l 203 1074 l 203 1092 q 247 1175 227 1136 q 282 1246 267 1215 q 305 1296 297 1277 l 473 1296 z "},"ű":{"ha":696,"x_min":77,"x_max":660,"o":"m 618 760 l 618 0 l 476 0 l 456 97 l 446 97 q 404 36 429 60 q 348 -1 380 12 q 278 -14 317 -14 q 166 20 211 -14 q 99 115 121 53 q 77 264 77 177 l 77 760 l 257 760 l 257 318 q 274 190 257 233 q 329 147 291 147 q 397 174 374 147 q 429 251 420 200 q 437 374 437 302 l 437 760 l 618 760 m 660 1064 l 660 1051 q 630 1002 650 1030 q 584 945 610 975 q 531 888 558 916 q 482 842 505 861 l 389 842 l 389 860 q 433 942 412 903 q 469 1013 453 981 q 492 1064 484 1045 l 660 1064 m 432 1064 l 432 1051 q 402 1002 422 1029 q 357 947 382 975 q 303 892 332 919 q 248 842 275 865 l 161 842 l 161 860 q 205 943 185 904 q 241 1014 226 983 q 264 1064 256 1045 l 432 1064 z "},"Ų":{"ha":781,"x_min":83,"x_max":697,"o":"m 473 -146 q 488 -186 473 -173 q 526 -200 503 -200 q 558 -196 540 -200 q 586 -187 577 -192 l 586 -310 q 537 -321 565 -317 q 486 -325 510 -325 q 370 -286 407 -325 q 334 -178 334 -246 q 346 -115 334 -145 q 381 -56 357 -85 q 439 0 404 -28 l 607 61 q 527 -26 556 11 q 486 -92 498 -64 q 473 -146 473 -121 m 697 991 l 697 326 q 662 137 697 212 q 558 24 627 62 q 389 -14 490 -14 q 162 70 241 -14 q 83 322 83 153 l 83 991 l 273 991 l 273 329 q 303 194 273 235 q 390 154 333 154 q 456 171 430 154 q 495 227 482 189 q 509 330 509 266 l 509 991 l 697 991 z "},"ų":{"ha":696,"x_min":77,"x_max":624,"o":"m 618 760 l 618 0 l 476 0 l 456 97 l 446 97 q 404 36 429 60 q 348 -1 380 12 q 278 -14 317 -14 q 166 20 211 -14 q 99 115 121 53 q 77 264 77 177 l 77 760 l 257 760 l 257 318 q 274 190 257 233 q 329 147 291 147 q 397 174 374 147 q 429 251 420 200 q 437 374 437 302 l 437 760 l 618 760 m 515 -142 q 530 -186 515 -169 q 574 -203 545 -203 q 603 -199 591 -203 q 624 -191 614 -195 l 624 -307 q 587 -319 609 -314 q 534 -325 564 -325 q 415 -287 454 -325 q 375 -180 375 -248 q 387 -113 375 -148 q 426 -44 399 -79 q 494 21 452 -10 l 590 0 q 530 -77 545 -47 q 515 -142 515 -108 z "},"Ŵ":{"ha":1076,"x_min":1,"x_max":1074,"o":"m 1074 991 l 879 0 l 661 0 l 570 472 q 561 524 566 496 q 552 583 557 552 q 545 646 548 613 q 538 714 541 679 q 532 657 535 688 q 524 596 528 627 q 515 533 520 564 q 505 473 511 502 l 414 0 l 197 0 l 1 991 l 187 991 l 278 490 q 289 426 283 460 q 299 356 294 392 q 308 286 304 320 q 315 221 313 251 q 325 292 319 256 q 335 364 330 329 q 347 431 341 399 q 357 488 352 463 l 458 991 l 618 991 l 713 489 q 724 430 718 462 q 735 362 730 397 q 745 291 741 327 q 754 221 750 256 q 764 308 758 262 q 777 401 770 354 q 791 490 784 448 l 884 991 l 1074 991 m 621 1296 q 657 1231 636 1265 q 702 1161 677 1197 q 751 1092 726 1126 l 751 1074 l 643 1074 q 593 1123 619 1095 q 537 1186 567 1151 q 481 1121 507 1151 q 433 1074 454 1091 l 323 1074 l 323 1092 q 371 1157 345 1119 q 419 1232 396 1194 q 455 1296 442 1270 l 621 1296 z "},"ŵ":{"ha":951,"x_min":8,"x_max":942,"o":"m 571 0 l 503 382 q 495 431 499 406 q 488 482 492 456 q 482 533 485 508 q 476 581 479 558 l 472 581 q 465 529 469 555 q 458 477 462 503 q 452 428 455 452 q 444 383 448 404 l 374 0 l 168 0 l 8 760 l 189 760 l 243 468 q 256 387 250 430 q 267 299 262 344 q 275 212 272 255 l 279 212 q 285 267 282 239 q 292 325 288 294 q 302 388 296 355 q 314 457 307 421 l 372 760 l 579 760 l 636 453 q 648 371 642 413 q 660 290 654 330 q 669 212 665 250 l 675 212 q 681 283 677 246 q 689 359 684 320 q 701 437 694 399 l 764 760 l 942 760 l 779 0 l 571 0 m 558 1064 q 594 999 574 1034 q 639 929 615 965 q 689 860 663 894 l 689 842 l 581 842 q 531 891 557 863 q 475 954 505 919 q 418 889 445 919 q 371 842 392 859 l 261 842 l 261 860 q 308 925 283 887 q 357 1000 334 962 q 393 1064 380 1038 l 558 1064 z "},"Ŷ":{"ha":659,"x_min":0,"x_max":659,"o":"m 330 589 l 463 991 l 659 991 l 424 382 l 424 0 l 235 0 l 235 376 l 0 991 l 197 991 l 330 589 m 412 1296 q 449 1231 428 1265 q 493 1161 469 1197 q 543 1092 517 1126 l 543 1074 l 435 1074 q 385 1123 411 1095 q 329 1186 359 1151 q 273 1121 299 1151 q 225 1074 246 1091 l 115 1074 l 115 1092 q 162 1157 137 1119 q 211 1232 188 1194 q 247 1296 234 1270 l 412 1296 z "},"ŷ":{"ha":616,"x_min":4,"x_max":612,"o":"m 4 760 l 193 760 l 282 392 q 294 341 288 367 q 303 292 299 316 q 309 248 307 269 l 314 248 q 324 310 317 275 q 342 390 331 345 l 425 760 l 612 760 l 386 -74 q 327 -224 361 -168 q 246 -308 292 -281 q 138 -334 200 -334 q 94 -330 115 -334 q 52 -322 73 -327 l 52 -163 q 79 -170 65 -167 q 106 -172 93 -172 q 151 -161 134 -172 q 182 -121 168 -151 q 211 -37 195 -92 l 222 8 l 4 760 m 391 1064 q 428 999 407 1034 q 472 929 448 965 q 522 860 496 894 l 522 842 l 414 842 q 364 891 390 863 q 308 954 338 919 q 252 889 278 919 q 204 842 225 859 l 94 842 l 94 860 q 141 925 116 887 q 190 1000 167 962 q 226 1064 213 1038 l 391 1064 z "},"Ÿ":{"ha":659,"x_min":0,"x_max":659,"o":"m 330 589 l 463 991 l 659 991 l 424 382 l 424 0 l 235 0 l 235 376 l 0 991 l 197 991 l 330 589 m 118 1178 q 141 1247 118 1224 q 201 1271 164 1271 q 263 1246 240 1271 q 286 1178 286 1222 q 263 1111 286 1135 q 201 1086 240 1086 q 141 1110 164 1086 q 118 1178 118 1133 m 370 1178 q 393 1247 370 1224 q 454 1271 416 1271 q 516 1246 493 1271 q 539 1178 539 1222 q 516 1111 539 1135 q 454 1086 493 1086 q 393 1111 416 1086 q 370 1178 370 1135 z "},"Ź":{"ha":595,"x_min":32,"x_max":566,"o":"m 566 0 l 32 0 l 32 136 l 353 828 l 37 828 l 37 991 l 557 991 l 557 856 l 236 165 l 566 165 l 566 0 m 522 1296 l 522 1283 q 486 1237 508 1263 q 436 1181 463 1211 q 382 1124 410 1152 q 330 1074 355 1096 l 201 1074 l 201 1092 q 246 1163 226 1128 q 284 1232 267 1198 q 315 1296 301 1265 l 522 1296 z "},"ź":{"ha":501,"x_min":28,"x_max":482,"o":"m 475 0 l 28 0 l 28 113 l 264 607 l 41 607 l 41 760 l 464 760 l 464 637 l 237 151 l 475 151 l 475 0 m 482 1064 l 482 1051 q 446 1005 468 1031 q 396 949 423 979 q 342 892 370 920 q 290 842 315 864 l 161 842 l 161 860 q 206 931 186 897 q 244 1000 227 966 q 275 1064 261 1033 l 482 1064 z "},"Ż":{"ha":595,"x_min":32,"x_max":566,"o":"m 566 0 l 32 0 l 32 136 l 353 828 l 37 828 l 37 991 l 557 991 l 557 856 l 236 165 l 566 165 l 566 0 m 322 1291 q 397 1264 374 1291 q 421 1186 421 1237 q 396 1111 421 1137 q 322 1084 372 1084 q 249 1111 275 1084 q 224 1186 224 1137 q 248 1264 224 1238 q 322 1291 271 1291 z "},"ż":{"ha":501,"x_min":28,"x_max":475,"o":"m 475 0 l 28 0 l 28 113 l 264 607 l 41 607 l 41 760 l 464 760 l 464 637 l 237 151 l 475 151 l 475 0 m 281 1059 q 357 1032 333 1059 q 380 954 380 1005 q 356 879 380 905 q 281 852 331 852 q 209 879 234 852 q 183 954 183 905 q 207 1033 183 1006 q 281 1059 231 1059 z "},"Ž":{"ha":595,"x_min":32,"x_max":566,"o":"m 566 0 l 32 0 l 32 136 l 353 828 l 37 828 l 37 991 l 557 991 l 557 856 l 236 165 l 566 165 l 566 0 m 216 1074 q 180 1138 203 1101 q 131 1214 157 1176 q 85 1278 105 1251 l 85 1296 l 195 1296 q 244 1246 218 1275 q 298 1183 271 1217 q 354 1247 330 1221 q 404 1296 378 1272 l 513 1296 l 513 1278 q 468 1215 493 1251 q 420 1140 443 1178 q 382 1074 397 1103 l 216 1074 z "},"ž":{"ha":501,"x_min":28,"x_max":475,"o":"m 475 0 l 28 0 l 28 113 l 264 607 l 41 607 l 41 760 l 464 760 l 464 637 l 237 151 l 475 151 l 475 0 m 176 842 q 140 906 163 869 q 91 982 117 944 q 45 1046 65 1019 l 45 1064 l 155 1064 q 204 1014 178 1043 q 258 951 231 985 q 314 1015 290 989 q 364 1064 338 1040 l 473 1064 l 473 1046 q 428 983 453 1019 q 380 908 403 946 q 342 842 357 871 l 176 842 z "},"ſ":{"ha":390,"x_min":93,"x_max":437,"o":"m 329 909 q 288 883 299 909 q 275 796 277 857 l 275 0 l 93 0 l 93 783 q 113 941 93 880 q 177 1033 133 1003 q 292 1063 221 1063 q 363 1056 330 1063 q 437 1032 396 1048 l 400 896 q 364 906 382 902 q 329 909 346 909 z "},"ƒ":{"ha":579,"x_min":56,"x_max":539,"o":"m 386 1006 q 460 998 426 1006 q 539 972 494 990 l 500 836 q 462 848 480 844 q 425 852 444 852 q 382 827 395 852 q 370 743 370 802 l 370 686 l 496 686 l 496 536 l 370 536 l 370 -56 q 350 -213 370 -151 q 286 -304 330 -275 q 171 -334 243 -334 q 106 -328 134 -334 q 56 -317 79 -323 l 56 -167 q 95 -177 75 -174 q 132 -180 115 -180 q 176 -155 163 -180 q 189 -77 189 -130 l 189 536 l 97 536 l 97 633 l 189 686 l 189 732 q 210 889 189 829 q 275 978 231 949 q 386 1006 318 1006 z "},"Ǻ":{"ha":730,"x_min":0,"x_max":730,"o":"m 0 0 l 235 907 q 211 942 220 922 q 201 987 201 962 q 246 1102 201 1057 q 364 1147 290 1147 q 480 1102 435 1147 q 526 989 526 1057 q 517 942 526 962 q 492 907 507 922 l 730 0 l 526 0 l 479 220 l 253 220 l 205 0 l 0 0 m 282 385 l 447 385 l 393 633 q 381 699 387 664 q 371 765 375 734 q 364 814 366 795 q 359 779 362 799 q 354 736 357 759 q 347 691 351 714 q 340 648 344 669 l 282 385 m 364 925 q 410 943 391 925 q 428 989 428 961 q 410 1034 428 1016 q 364 1051 392 1051 q 318 1034 337 1051 q 300 989 300 1016 q 316 943 300 961 q 364 925 333 925 m 268 1190 l 268 1203 q 325 1272 307 1249 q 353 1308 344 1295 q 370 1336 361 1321 l 587 1336 l 587 1326 q 553 1295 575 1314 q 504 1257 530 1277 q 454 1219 478 1237 q 414 1190 430 1202 l 268 1190 z "},"ǻ":{"ha":644,"x_min":40,"x_max":568,"o":"m 342 774 q 510 706 452 774 q 568 503 568 637 l 568 0 l 436 0 l 407 102 l 403 102 q 354 37 380 63 q 294 -1 328 12 q 216 -14 261 -14 q 114 20 153 -14 q 58 109 75 54 q 40 224 40 163 q 106 404 40 342 q 293 469 172 465 l 387 473 l 387 504 q 368 597 387 566 q 304 628 349 628 q 233 615 272 628 q 149 575 195 602 l 98 710 q 212 758 150 741 q 342 774 273 774 m 387 353 l 336 350 q 251 318 279 347 q 222 232 222 288 q 240 156 222 181 q 290 131 257 131 q 360 172 333 131 q 387 283 387 214 l 387 353 m 329 1040 q 283 1023 302 1040 q 265 978 265 1006 q 281 932 265 949 q 329 914 298 914 q 375 932 357 914 q 393 978 393 949 q 375 1023 393 1006 q 329 1040 357 1040 m 328 1136 q 413 1116 375 1136 q 472 1061 450 1096 q 494 979 494 1025 q 448 865 494 911 q 328 819 402 819 q 211 864 255 819 q 167 978 167 908 q 211 1092 167 1048 q 328 1136 255 1136 m 561 1335 l 561 1326 q 510 1273 544 1305 q 441 1213 475 1242 q 387 1171 406 1185 l 240 1171 l 240 1183 q 295 1256 276 1230 q 323 1299 313 1282 q 343 1335 334 1316 l 561 1335 z "},"Ǽ":{"ha":961,"x_min":-4,"x_max":903,"o":"m 903 0 l 460 0 l 460 239 l 269 239 l 203 0 l -4 0 l 298 991 l 903 991 l 903 828 l 647 828 l 647 596 l 885 596 l 885 433 l 647 433 l 647 165 l 903 165 l 903 0 m 314 404 l 460 404 l 460 828 l 429 828 l 314 404 m 736 1296 l 736 1283 q 699 1237 722 1263 q 650 1181 677 1211 q 596 1124 623 1152 q 544 1074 568 1096 l 415 1074 l 415 1092 q 460 1163 439 1128 q 497 1232 480 1198 q 529 1296 515 1265 l 736 1296 z "},"ǽ":{"ha":965,"x_min":40,"x_max":920,"o":"m 659 772 q 803 730 745 772 q 890 611 861 688 q 920 429 920 534 l 920 328 l 558 328 q 594 180 559 228 q 701 132 629 132 q 793 145 749 132 q 885 189 838 159 l 885 39 q 791 -1 840 12 q 681 -14 741 -14 q 585 1 631 -14 q 504 44 540 15 q 444 118 467 74 q 384 44 416 73 q 314 1 352 15 q 232 -14 277 -14 q 122 20 165 -14 q 60 109 80 54 q 40 224 40 163 q 70 356 40 303 q 156 438 99 410 q 293 469 212 466 l 387 473 l 387 504 q 367 597 387 566 q 304 628 347 628 q 233 615 272 628 q 149 575 195 602 l 98 710 q 203 757 146 740 q 321 774 260 774 q 421 754 380 774 q 486 693 461 734 q 558 753 516 733 q 659 772 601 772 m 387 353 l 336 350 q 251 318 279 347 q 222 232 222 290 q 240 156 222 181 q 290 131 257 131 q 341 150 319 131 q 375 203 363 168 q 387 283 387 237 l 387 353 m 657 629 q 587 589 614 629 q 558 458 560 549 l 751 458 q 741 551 751 513 q 709 609 730 589 q 657 629 688 629 m 715 1064 l 715 1051 q 679 1005 701 1031 q 630 949 656 979 q 575 892 603 920 q 524 842 548 864 l 395 842 l 395 860 q 439 931 419 897 q 477 1000 460 966 q 509 1064 494 1033 l 715 1064 z "},"Ǿ":{"ha":823,"x_min":60,"x_max":764,"o":"m 764 497 q 741 278 764 373 q 674 118 718 182 q 564 20 629 53 q 412 -14 498 -14 q 322 -2 363 -14 q 244 32 280 9 l 196 -71 l 100 -26 l 164 102 q 83 277 106 178 q 60 498 60 375 q 100 779 60 665 q 218 949 140 892 q 412 1007 297 1007 q 506 994 463 1007 q 586 956 550 981 l 632 1048 l 726 1004 l 667 884 q 740 723 715 820 q 764 497 764 625 m 572 497 q 568 591 572 547 q 557 669 564 634 l 319 191 q 361 158 337 169 q 412 147 385 147 q 501 186 465 147 q 554 303 536 225 q 572 497 572 380 m 253 497 q 257 393 253 440 q 271 309 262 346 l 513 793 q 469 833 493 821 q 414 846 444 846 q 324 807 360 846 q 271 690 288 768 q 253 497 253 612 m 636 1296 l 636 1283 q 600 1237 622 1263 q 550 1181 577 1211 q 496 1124 524 1152 q 444 1074 469 1096 l 315 1074 l 315 1092 q 360 1163 340 1128 q 398 1232 380 1198 q 429 1296 415 1265 l 636 1296 z "},"ǿ":{"ha":677,"x_min":50,"x_max":628,"o":"m 628 382 q 594 169 628 258 q 495 34 560 81 q 338 -14 431 -14 q 273 -6 303 -14 q 215 17 243 1 l 167 -85 l 75 -41 l 136 81 q 71 216 91 142 q 50 382 50 290 q 126 672 50 570 q 340 774 201 774 q 406 765 376 774 q 464 739 437 757 l 507 823 l 597 781 l 546 673 q 607 548 586 623 q 628 382 628 473 m 225 379 q 228 315 225 344 q 235 262 230 286 l 404 602 q 375 623 391 616 q 339 629 359 629 q 252 567 279 629 q 225 379 225 505 m 453 382 q 451 441 453 414 q 446 490 449 469 l 278 154 q 305 135 290 142 q 338 129 320 129 q 405 157 380 129 q 441 242 430 186 q 453 382 453 298 m 566 1064 l 566 1051 q 529 1005 551 1031 q 480 949 507 979 q 426 892 453 920 q 374 842 398 864 l 245 842 l 245 860 q 290 931 269 897 q 327 1000 310 966 q 359 1064 345 1033 l 566 1064 z "},"Ș":{"ha":608,"x_min":45,"x_max":567,"o":"m 567 290 q 531 132 567 201 q 430 25 495 64 q 275 -14 364 -14 q 195 -8 234 -14 q 119 8 157 -3 q 45 40 82 20 l 45 235 q 157 181 99 199 q 265 163 216 163 q 326 177 302 163 q 362 216 350 191 q 374 271 374 240 q 363 328 374 303 q 325 377 353 353 q 240 435 296 402 q 162 488 197 460 q 102 548 127 515 q 64 624 77 581 q 52 726 52 667 q 84 873 51 810 q 181 971 118 937 q 334 1006 245 1006 q 452 989 394 1006 q 564 943 510 973 l 511 775 q 420 818 463 804 q 340 832 378 832 q 286 820 308 832 q 253 785 264 807 q 241 736 241 764 q 252 676 241 701 q 293 628 263 652 q 380 572 323 605 q 484 496 442 536 q 546 406 525 456 q 567 290 567 356 m 385 -85 l 385 -100 q 360 -172 374 -135 q 329 -243 346 -208 q 293 -307 312 -277 l 176 -307 l 176 -289 q 190 -228 183 -265 q 202 -151 197 -190 q 208 -85 207 -113 l 385 -85 z "},"ș":{"ha":519,"x_min":39,"x_max":482,"o":"m 482 222 q 453 93 482 145 q 370 13 425 40 q 239 -14 315 -14 q 134 -3 184 -14 q 40 29 84 7 l 40 204 q 125 161 77 179 q 222 143 173 143 q 281 161 260 143 q 301 212 301 178 q 293 248 301 231 q 260 283 285 264 q 187 326 236 302 q 107 385 140 352 q 56 461 74 418 q 39 558 39 504 q 101 716 39 659 q 272 774 163 774 q 377 759 328 774 q 473 714 426 743 l 424 575 q 355 612 391 597 q 282 627 319 627 q 231 611 249 627 q 214 567 214 595 q 222 533 214 547 q 254 502 230 519 q 325 456 278 484 q 407 397 372 429 q 462 323 442 365 q 482 222 482 281 m 340 -85 l 340 -100 q 316 -172 330 -135 q 285 -243 302 -208 q 249 -307 268 -277 l 132 -307 l 132 -289 q 146 -228 139 -265 q 158 -151 153 -190 q 164 -85 163 -113 l 340 -85 z "},"ˆ":{"ha":539,"x_min":56,"x_max":484,"o":"m 353 1064 q 389 999 368 1034 q 434 929 410 965 q 484 860 458 894 l 484 842 l 375 842 q 325 891 351 863 q 269 954 299 919 q 213 889 239 919 q 165 842 186 859 l 56 842 l 56 860 q 103 925 77 887 q 151 1000 128 962 q 187 1064 174 1038 l 353 1064 z "},"ˇ":{"ha":539,"x_min":56,"x_max":484,"o":"m 187 842 q 151 906 174 869 q 102 982 127 944 q 56 1046 76 1019 l 56 1064 l 165 1064 q 215 1014 189 1043 q 269 951 241 985 q 325 1015 301 989 q 375 1064 349 1040 l 484 1064 l 484 1046 q 439 983 464 1019 q 391 908 414 946 q 353 842 368 871 l 187 842 z "},"ˉ":{"ha":494,"x_min":56,"x_max":439,"o":"m 439 990 l 439 859 l 56 859 l 56 990 l 439 990 z "},"˘":{"ha":513,"x_min":56,"x_max":457,"o":"m 457 1068 q 430 948 457 999 q 358 870 404 898 q 254 843 312 843 q 112 900 166 843 q 56 1068 57 957 l 165 1068 q 178 1014 168 1035 q 208 982 189 992 q 256 971 227 971 q 303 981 283 971 q 335 1012 323 991 q 349 1068 347 1034 l 457 1068 z "},"˙":{"ha":309,"x_min":56,"x_max":253,"o":"m 154 1059 q 229 1032 205 1059 q 253 954 253 1005 q 228 879 253 905 q 154 852 203 852 q 81 879 106 852 q 56 954 56 905 q 79 1033 56 1006 q 154 1059 103 1059 z "},"˚":{"ha":435,"x_min":56,"x_max":379,"o":"m 216 842 q 100 886 144 842 q 56 1000 56 930 q 100 1115 56 1071 q 216 1160 144 1160 q 334 1115 289 1160 q 379 1002 379 1070 q 335 887 379 932 q 216 842 291 842 m 218 939 q 264 956 245 939 q 282 1002 282 973 q 264 1046 282 1029 q 218 1064 246 1064 q 173 1046 191 1064 q 154 1002 154 1029 q 171 956 154 973 q 218 939 187 939 z "},"˛":{"ha":359,"x_min":56,"x_max":304,"o":"m 196 -142 q 211 -186 196 -169 q 254 -203 226 -203 q 283 -199 272 -203 q 304 -191 295 -195 l 304 -307 q 267 -319 290 -314 q 215 -325 245 -325 q 95 -287 135 -325 q 56 -180 56 -248 q 68 -113 56 -148 q 106 -44 80 -79 q 175 21 133 -10 l 271 0 q 211 -77 226 -47 q 196 -142 196 -108 z "},"˜":{"ha":566,"x_min":56,"x_max":510,"o":"m 56 840 q 62 909 57 873 q 80 976 67 945 q 116 1027 93 1008 q 176 1047 140 1047 q 229 1037 204 1047 q 278 1012 254 1026 q 324 987 302 998 q 368 977 347 977 q 397 996 387 977 q 411 1048 406 1015 l 510 1048 q 473 895 508 948 q 389 842 439 842 q 335 852 362 842 q 283 877 309 863 q 237 902 258 891 q 199 913 215 913 q 171 896 184 913 q 154 840 159 878 l 56 840 z "},"˝":{"ha":610,"x_min":56,"x_max":554,"o":"m 554 1064 l 554 1051 q 524 1002 545 1030 q 478 945 504 975 q 426 888 452 916 q 376 842 399 861 l 283 842 l 283 860 q 327 942 307 903 q 363 1013 347 981 q 386 1064 378 1045 l 554 1064 m 326 1064 l 326 1051 q 296 1002 316 1029 q 251 947 277 975 q 198 892 226 919 q 142 842 170 865 l 56 842 l 56 860 q 100 943 79 904 q 135 1014 120 983 q 158 1064 150 1045 l 326 1064 z "},"΄":{"ha":637,"x_min":244,"x_max":456,"o":"m 244 842 l 244 861 q 255 904 248 876 q 270 966 262 933 q 283 1028 277 1000 q 290 1071 289 1057 l 456 1071 l 456 1054 q 426 984 442 1021 q 392 912 410 948 q 354 842 374 876 l 244 842 z "},"΅":{"ha":644,"x_min":79,"x_max":566,"o":"m 436 1137 l 436 1124 q 415 1068 428 1099 q 386 1005 402 1038 q 350 937 370 972 l 264 937 l 264 956 q 277 1025 271 992 q 286 1087 282 1059 q 289 1137 289 1116 l 436 1137 m 158 1028 q 217 1003 195 1028 q 239 935 239 979 q 217 867 239 892 q 158 842 195 842 q 101 866 123 842 q 79 935 79 891 q 101 1004 79 979 q 158 1028 123 1028 m 485 1031 q 543 1006 521 1031 q 566 935 566 981 q 543 869 566 894 q 485 844 521 844 q 428 869 450 844 q 406 936 406 893 q 428 1006 406 982 q 485 1031 450 1031 z "},"Ά":{"ha":755,"x_min":-7,"x_max":755,"o":"m 553 0 l 501 239 l 281 239 l 229 0 l 25 0 l 265 991 l 511 991 l 755 0 l 553 0 m 472 404 l 418 667 q 408 730 413 699 q 398 790 403 762 q 391 844 394 819 q 385 792 389 821 q 375 732 380 764 q 363 669 370 701 l 310 404 l 472 404 m -7 821 l -7 840 q 4 883 -3 854 q 18 945 11 912 q 32 1007 26 979 q 39 1050 37 1036 l 204 1050 l 204 1033 q 174 963 191 1000 q 140 891 158 927 q 102 821 122 854 l -7 821 z "},"·":{"ha":354,"x_min":71,"x_max":285,"o":"m 71 654 q 98 739 71 709 q 179 768 126 768 q 257 739 229 768 q 285 654 285 710 q 256 569 285 599 q 179 540 228 540 q 100 569 130 540 q 71 654 71 599 z "},"Έ":{"ha":745,"x_min":-10,"x_max":686,"o":"m 686 0 l 240 0 l 240 991 l 686 991 l 686 829 l 431 829 l 431 596 l 668 596 l 668 433 l 431 433 l 431 165 l 686 165 l 686 0 m -10 804 l -10 824 q 1 867 -6 838 q 16 929 8 896 q 29 991 23 962 q 36 1034 35 1019 l 201 1034 l 201 1017 q 172 947 188 983 q 137 874 155 911 q 100 804 119 838 l -10 804 z "},"Ή":{"ha":960,"x_min":-12,"x_max":871,"o":"m 871 0 l 680 0 l 680 433 l 435 433 l 435 0 l 244 0 l 244 991 l 435 991 l 435 599 l 680 599 l 680 991 l 871 991 l 871 0 m -12 804 l -12 824 q 0 867 -7 838 q 14 929 7 896 q 27 991 22 962 q 35 1034 33 1019 l 200 1034 l 200 1017 q 170 947 186 983 q 136 874 154 911 q 98 804 118 838 l -12 804 z "},"Ί":{"ha":530,"x_min":-10,"x_max":442,"o":"m 252 0 l 252 991 l 442 991 l 442 0 l 252 0 m -10 804 l -10 824 q 1 867 -6 838 q 16 929 8 896 q 29 991 23 962 q 36 1034 35 1019 l 201 1034 l 201 1017 q 172 947 188 983 q 137 874 155 911 q 100 804 119 838 l -10 804 z "},"Ό":{"ha":897,"x_min":-10,"x_max":838,"o":"m 838 497 q 816 284 838 379 q 751 123 794 190 q 641 22 707 57 q 486 -14 575 -14 q 330 22 397 -14 q 220 125 264 58 q 155 286 177 192 q 134 498 134 380 q 174 779 134 665 q 292 949 214 892 q 486 1007 371 1007 q 684 945 606 1007 q 800 769 762 884 q 838 497 838 655 m 331 497 q 349 307 331 383 q 401 192 366 231 q 486 154 435 154 q 572 191 538 154 q 624 304 606 229 q 641 497 641 380 q 602 756 641 671 q 486 842 564 842 q 401 803 435 842 q 349 688 366 764 q 331 497 331 611 m -10 804 l -10 824 q 1 867 -6 838 q 16 929 8 896 q 29 991 23 962 q 36 1034 35 1019 l 201 1034 l 201 1017 q 172 947 188 983 q 137 874 155 911 q 100 804 119 838 l -10 804 z "},"Ύ":{"ha":878,"x_min":-10,"x_max":878,"o":"m 550 589 l 682 991 l 878 991 l 644 382 l 644 0 l 454 0 l 454 376 l 220 991 l 417 991 l 550 589 m -10 804 l -10 824 q 1 867 -6 838 q 16 929 8 896 q 29 991 23 962 q 36 1034 35 1019 l 201 1034 l 201 1017 q 172 947 188 983 q 137 874 155 911 q 100 804 119 838 l -10 804 z "},"Ώ":{"ha":911,"x_min":-10,"x_max":881,"o":"m 498 842 q 408 809 444 842 q 354 713 372 777 q 336 550 336 648 q 348 392 336 462 q 386 269 360 321 q 450 178 411 216 l 450 0 l 114 0 l 114 165 l 302 165 q 218 262 253 203 q 163 400 182 321 q 144 576 144 479 q 186 813 144 718 q 307 958 228 909 q 498 1007 387 1007 q 684 959 606 1007 q 806 814 763 910 q 848 576 848 718 q 830 400 848 479 q 775 263 811 321 q 689 165 740 204 l 881 165 l 881 0 l 542 0 l 542 178 q 610 270 585 217 q 647 393 635 323 q 659 551 659 463 q 641 712 659 648 q 588 809 623 777 q 498 842 552 842 m -10 804 l -10 824 q 1 867 -6 838 q 16 929 8 896 q 29 991 23 962 q 36 1034 35 1019 l 201 1034 l 201 1017 q 172 947 188 983 q 137 874 155 911 q 100 804 119 838 l -10 804 z "},"ΐ":{"ha":419,"x_min":-58,"x_max":428,"o":"m 258 760 l 258 221 q 272 163 258 182 q 313 144 286 144 q 356 151 334 144 q 397 168 378 157 l 397 21 q 334 -5 368 3 q 260 -14 300 -14 q 157 10 197 -14 q 97 84 117 33 q 78 218 78 136 l 78 760 l 258 760 m 298 1137 l 298 1124 q 277 1068 290 1099 q 248 1005 264 1038 q 212 937 232 972 l 126 937 l 126 956 q 139 1025 134 992 q 148 1087 144 1059 q 151 1137 151 1116 l 298 1137 m 20 1028 q 79 1003 57 1028 q 101 935 101 979 q 79 867 101 892 q 20 842 57 842 q -37 866 -15 842 q -58 935 -58 891 q -37 1004 -58 979 q 20 1028 -15 1028 m 347 1031 q 406 1006 383 1031 q 428 935 428 981 q 406 869 428 894 q 347 844 383 844 q 290 869 312 844 q 268 936 268 893 q 290 1006 268 982 q 347 1031 312 1031 z "},"Α":{"ha":730,"x_min":0,"x_max":730,"o":"m 528 0 l 476 239 l 256 239 l 204 0 l 0 0 l 240 991 l 486 991 l 730 0 l 528 0 m 447 404 l 393 667 q 383 730 388 699 q 373 790 378 762 q 366 844 369 819 q 359 792 363 821 q 350 732 355 764 q 338 669 345 701 l 285 404 l 447 404 z "},"Β":{"ha":732,"x_min":89,"x_max":673,"o":"m 89 991 l 350 991 q 579 931 503 991 q 656 747 656 871 q 640 643 656 689 q 594 568 624 597 q 522 526 564 538 l 522 519 q 609 475 575 505 q 658 397 642 444 q 673 288 673 351 q 638 135 673 199 q 538 35 604 71 q 380 0 472 0 l 89 0 l 89 991 m 279 590 l 350 590 q 436 623 408 590 q 464 721 464 656 q 435 807 464 777 q 347 836 406 836 l 279 836 l 279 590 m 279 439 l 279 160 l 366 160 q 451 195 422 160 q 479 302 479 231 q 465 377 479 347 q 424 423 451 407 q 358 439 397 439 l 279 439 z "},"Γ":{"ha":572,"x_min":89,"x_max":555,"o":"m 555 991 l 555 827 l 279 827 l 279 0 l 89 0 l 89 991 l 555 991 z "},"Δ":{"ha":726,"x_min":17,"x_max":711,"o":"m 486 991 l 711 113 l 711 0 l 17 0 l 17 115 l 240 991 l 486 991 m 497 165 l 385 688 q 376 730 380 707 q 369 777 372 753 q 363 822 365 801 q 356 775 360 799 q 349 729 353 751 q 340 686 345 707 l 228 165 l 497 165 z "},"Ε":{"ha":593,"x_min":89,"x_max":534,"o":"m 534 0 l 89 0 l 89 991 l 534 991 l 534 829 l 279 829 l 279 596 l 517 596 l 517 433 l 279 433 l 279 165 l 534 165 l 534 0 z "},"Ζ":{"ha":595,"x_min":32,"x_max":566,"o":"m 566 0 l 32 0 l 32 136 l 353 828 l 37 828 l 37 991 l 557 991 l 557 856 l 236 165 l 566 165 l 566 0 z "},"Η":{"ha":804,"x_min":89,"x_max":715,"o":"m 715 0 l 525 0 l 525 433 l 279 433 l 279 0 l 89 0 l 89 991 l 279 991 l 279 599 l 525 599 l 525 991 l 715 991 l 715 0 z "},"Θ":{"ha":823,"x_min":60,"x_max":764,"o":"m 514 581 l 514 428 l 310 428 l 310 581 l 514 581 m 764 497 q 742 284 764 379 q 677 123 720 190 q 567 22 633 57 q 412 -14 501 -14 q 256 22 323 -14 q 146 125 190 58 q 81 286 103 192 q 60 498 60 380 q 100 779 60 665 q 218 949 140 892 q 412 1007 297 1007 q 610 945 532 1007 q 726 769 688 884 q 764 497 764 655 m 257 497 q 275 307 257 383 q 327 192 292 231 q 412 154 361 154 q 498 191 464 154 q 550 304 532 229 q 567 497 567 380 q 528 756 567 671 q 412 842 490 842 q 327 803 361 842 q 275 688 292 764 q 257 497 257 611 z "},"Ι":{"ha":368,"x_min":89,"x_max":279,"o":"m 89 0 l 89 991 l 279 991 l 279 0 l 89 0 z "},"Κ":{"ha":710,"x_min":89,"x_max":720,"o":"m 720 0 l 509 0 l 340 404 l 279 349 l 279 0 l 89 0 l 89 991 l 279 991 l 279 534 q 301 594 286 561 q 339 668 317 627 l 513 991 l 717 991 l 475 550 l 720 0 z "},"Λ":{"ha":715,"x_min":0,"x_max":715,"o":"m 467 991 l 715 0 l 515 0 l 387 572 q 372 656 378 618 q 361 722 366 693 q 357 772 357 751 q 349 707 353 740 q 339 641 345 674 q 326 575 334 608 l 200 0 l 0 0 l 248 991 l 467 991 z "},"Μ":{"ha":1072,"x_min":89,"x_max":983,"o":"m 458 0 l 262 732 l 257 732 q 262 646 260 686 q 266 572 264 606 q 267 511 267 538 l 267 0 l 89 0 l 89 991 l 351 991 l 534 313 l 539 313 l 722 991 l 983 991 l 983 0 l 802 0 l 802 513 q 803 577 802 543 q 805 649 804 610 q 810 730 807 687 l 804 730 l 607 0 l 458 0 z "},"Ν":{"ha":863,"x_min":89,"x_max":775,"o":"m 775 0 l 551 0 l 261 692 l 256 692 q 262 601 260 644 q 266 524 264 559 q 267 460 267 488 l 267 0 l 89 0 l 89 991 l 311 991 l 600 315 l 606 315 q 601 402 603 362 q 597 477 599 443 q 596 541 596 512 l 596 991 l 775 991 l 775 0 z "},"Ξ":{"ha":604,"x_min":47,"x_max":558,"o":"m 47 0 l 47 165 l 558 165 l 558 0 l 47 0 m 104 437 l 104 602 l 501 602 l 501 437 l 104 437 m 65 829 l 65 991 l 539 991 l 539 829 l 65 829 z "},"Ο":{"ha":823,"x_min":60,"x_max":764,"o":"m 764 497 q 742 284 764 379 q 677 123 720 190 q 567 22 633 57 q 412 -14 501 -14 q 256 22 323 -14 q 146 125 190 58 q 81 286 103 192 q 60 498 60 380 q 100 779 60 665 q 218 949 140 892 q 412 1007 297 1007 q 610 945 532 1007 q 726 769 688 884 q 764 497 764 655 m 257 497 q 275 307 257 383 q 327 192 292 231 q 412 154 361 154 q 498 191 464 154 q 550 304 532 229 q 567 497 567 380 q 528 756 567 671 q 412 842 490 842 q 327 803 361 842 q 275 688 292 764 q 257 497 257 611 z "},"Π":{"ha":790,"x_min":89,"x_max":701,"o":"m 89 0 l 89 991 l 701 991 l 701 0 l 511 0 l 511 827 l 279 827 l 279 0 l 89 0 z "},"Ρ":{"ha":681,"x_min":89,"x_max":639,"o":"m 340 991 q 565 913 492 991 q 639 685 639 835 q 620 548 639 610 q 564 443 602 487 q 468 375 526 399 q 332 351 410 351 l 279 351 l 279 0 l 89 0 l 89 991 l 340 991 m 326 829 l 279 829 l 279 514 l 313 514 q 389 531 358 514 q 435 585 419 548 q 450 684 450 623 q 419 794 450 760 q 326 829 389 829 z "},"Σ":{"ha":627,"x_min":40,"x_max":583,"o":"m 40 0 l 40 155 l 258 519 l 53 842 l 53 991 l 557 991 l 557 829 l 380 829 q 335 830 356 829 q 298 831 315 830 q 268 835 281 833 l 468 521 l 249 158 q 310 163 281 161 q 367 165 340 165 l 583 165 l 583 0 l 40 0 z "},"Τ":{"ha":596,"x_min":20,"x_max":575,"o":"m 392 0 l 204 0 l 204 827 l 20 827 l 20 991 l 575 991 l 575 827 l 392 827 l 392 0 z "},"Υ":{"ha":659,"x_min":0,"x_max":659,"o":"m 330 589 l 463 991 l 659 991 l 424 382 l 424 0 l 235 0 l 235 376 l 0 991 l 197 991 l 330 589 z "},"Φ":{"ha":978,"x_min":54,"x_max":925,"o":"m 582 1006 l 582 884 q 771 836 694 884 q 886 704 847 787 q 925 514 925 621 q 903 361 925 430 q 838 242 881 292 q 730 166 794 193 q 582 139 666 139 l 582 -14 l 397 -14 l 397 139 q 248 165 312 138 q 140 241 183 191 q 76 360 98 291 q 54 515 54 430 q 74 658 54 591 q 136 776 94 725 q 242 856 177 827 q 397 884 307 884 l 397 1006 l 582 1006 m 397 725 q 309 702 344 725 q 257 632 274 678 q 240 517 240 586 q 258 390 240 439 q 310 319 275 342 q 397 297 345 297 l 397 725 m 581 725 l 581 297 q 668 321 633 297 q 720 395 703 346 q 737 517 737 444 q 720 631 737 585 q 668 701 703 677 q 581 725 633 725 z "},"Χ":{"ha":657,"x_min":1,"x_max":656,"o":"m 656 0 l 452 0 l 329 332 l 200 0 l 1 0 l 221 504 l 20 991 l 216 991 l 325 679 l 432 991 l 632 991 l 433 505 l 656 0 z "},"Ψ":{"ha":1000,"x_min":77,"x_max":926,"o":"m 926 991 l 926 661 q 907 493 926 565 q 848 374 888 421 q 744 303 808 326 q 593 279 681 279 l 593 0 l 410 0 l 410 279 q 257 302 320 279 q 154 370 193 324 q 95 485 114 415 q 77 648 77 554 l 77 991 l 267 991 l 267 643 q 279 532 267 576 q 322 466 291 488 q 410 444 353 444 l 410 991 l 593 991 l 593 444 q 675 464 644 444 q 721 528 707 484 q 736 640 736 571 l 736 991 l 926 991 z "},"Ω":{"ha":829,"x_min":32,"x_max":799,"o":"m 416 842 q 326 809 362 842 q 272 713 290 777 q 254 550 254 648 q 266 392 254 462 q 303 269 278 321 q 368 178 329 216 l 368 0 l 32 0 l 32 165 l 220 165 q 136 262 171 203 q 81 400 100 321 q 62 576 62 479 q 104 813 62 718 q 225 958 146 909 q 416 1007 304 1007 q 602 959 524 1007 q 724 814 681 910 q 766 576 766 718 q 748 400 766 479 q 693 263 729 321 q 607 165 658 204 l 799 165 l 799 0 l 460 0 l 460 178 q 528 270 503 217 q 565 393 553 323 q 576 551 576 463 q 559 712 576 648 q 506 809 541 777 q 416 842 470 842 z "},"Ϊ":{"ha":368,"x_min":-28,"x_max":393,"o":"m 89 0 l 89 991 l 279 991 l 279 0 l 89 0 m -28 1178 q -5 1247 -28 1224 q 55 1271 18 1271 q 117 1246 94 1271 q 140 1178 140 1222 q 117 1111 140 1135 q 55 1086 94 1086 q -5 1110 18 1086 q -28 1178 -28 1133 m 223 1178 q 246 1247 223 1224 q 308 1271 269 1271 q 370 1246 347 1271 q 393 1178 393 1222 q 370 1111 393 1135 q 308 1086 347 1086 q 246 1111 269 1086 q 223 1178 223 1135 z "},"Ϋ":{"ha":659,"x_min":0,"x_max":659,"o":"m 330 589 l 463 991 l 659 991 l 424 382 l 424 0 l 235 0 l 235 376 l 0 991 l 197 991 l 330 589 m 119 1171 q 142 1241 119 1217 q 203 1264 165 1264 q 264 1240 241 1264 q 288 1171 288 1215 q 264 1104 288 1128 q 203 1080 241 1080 q 142 1103 165 1080 q 119 1171 119 1126 m 371 1171 q 394 1241 371 1217 q 456 1264 417 1264 q 517 1240 494 1264 q 541 1171 541 1215 q 517 1104 541 1128 q 456 1080 494 1080 q 394 1104 417 1080 q 371 1171 371 1128 z "},"ά":{"ha":729,"x_min":50,"x_max":710,"o":"m 336 139 q 396 164 372 139 q 431 239 420 189 q 443 368 443 290 l 443 378 q 416 559 443 502 q 334 616 390 616 q 258 554 282 616 q 233 375 233 492 q 259 197 233 255 q 336 139 284 139 m 277 -14 q 110 89 170 -14 q 50 376 50 191 q 113 670 50 567 q 288 774 176 774 q 390 744 349 774 q 457 654 431 713 l 464 654 q 483 715 472 688 q 505 760 493 742 l 663 760 q 642 670 651 720 q 629 568 633 621 q 624 464 624 515 l 624 231 q 636 164 624 187 q 672 142 649 142 q 693 144 684 142 q 710 149 703 146 l 710 3 q 690 -5 705 -1 q 659 -11 675 -9 q 632 -14 642 -14 q 519 13 559 -14 q 458 102 479 40 l 447 102 q 402 39 428 64 q 345 0 376 13 q 277 -14 313 -14 m 307 842 l 307 861 q 318 904 311 876 q 332 966 325 933 q 346 1028 340 1000 q 353 1071 351 1057 l 518 1071 l 518 1054 q 488 984 505 1021 q 454 912 472 948 q 416 842 436 876 l 307 842 z "},"έ":{"ha":564,"x_min":46,"x_max":529,"o":"m 418 461 l 418 325 l 358 325 q 283 313 311 325 q 242 280 254 302 q 229 228 229 258 q 242 179 229 199 q 280 149 255 159 q 339 139 304 139 q 431 153 383 139 q 522 195 479 168 l 522 36 q 423 -3 473 8 q 307 -14 373 -14 q 108 49 170 -14 q 46 212 46 112 q 84 333 46 283 q 191 396 123 382 l 191 403 q 107 465 136 420 q 78 572 78 510 q 108 678 78 633 q 192 749 138 724 q 318 774 246 774 q 422 761 371 774 q 529 717 473 748 l 468 579 q 401 612 435 601 q 338 624 368 624 q 275 605 296 624 q 253 553 253 587 q 281 482 253 503 q 370 461 309 461 l 418 461 m 254 842 l 254 861 q 265 904 258 876 q 279 966 272 933 q 293 1028 287 1000 q 300 1071 298 1057 l 465 1071 l 465 1054 q 435 984 452 1021 q 401 912 419 948 q 363 842 383 876 l 254 842 z "},"ή":{"ha":696,"x_min":78,"x_max":619,"o":"m 419 774 q 528 743 484 774 q 596 651 572 711 q 619 503 619 591 l 619 -334 l 439 -334 l 439 450 q 422 571 439 530 q 366 611 406 611 q 303 587 327 611 q 269 510 279 564 q 258 366 258 456 l 258 0 l 78 0 l 78 760 l 221 760 l 240 663 l 252 663 q 293 723 269 699 q 349 761 317 748 q 419 774 381 774 m 297 842 l 297 861 q 308 904 301 876 q 323 966 315 933 q 336 1028 330 1000 q 343 1071 342 1057 l 509 1071 l 509 1054 q 479 984 495 1021 q 445 912 463 948 q 407 842 427 876 l 297 842 z "},"ί":{"ha":419,"x_min":78,"x_max":397,"o":"m 258 760 l 258 221 q 272 163 258 182 q 313 144 286 144 q 356 151 334 144 q 397 168 378 157 l 397 21 q 334 -5 368 3 q 260 -14 300 -14 q 157 10 197 -14 q 97 84 117 33 q 78 218 78 136 l 78 760 l 258 760 m 113 842 l 113 861 q 124 904 117 876 q 139 966 132 933 q 152 1028 146 1000 q 159 1071 158 1057 l 325 1071 l 325 1054 q 295 984 311 1021 q 261 912 279 948 q 223 842 243 876 l 113 842 z "},"ΰ":{"ha":693,"x_min":77,"x_max":633,"o":"m 343 -12 q 190 25 249 -12 q 104 138 132 61 q 77 339 77 216 l 77 760 l 257 760 l 257 319 q 276 190 257 233 q 347 147 296 147 q 428 206 403 147 q 453 397 453 265 q 443 573 453 484 q 412 760 433 661 l 591 760 q 617 628 608 686 q 630 516 626 570 q 633 399 633 463 q 558 91 633 193 q 343 -12 484 -12 m 456 1137 l 456 1124 q 435 1068 448 1099 q 406 1005 422 1038 q 370 937 389 972 l 283 937 l 283 956 q 296 1025 291 992 q 305 1087 302 1059 q 309 1137 309 1116 l 456 1137 m 178 1028 q 236 1003 214 1028 q 258 935 258 979 q 236 867 258 892 q 178 842 214 842 q 121 866 142 842 q 99 935 99 891 q 121 1004 99 979 q 178 1028 142 1028 m 505 1031 q 563 1006 541 1031 q 585 935 585 981 q 563 869 585 894 q 505 844 541 844 q 447 869 469 844 q 425 936 425 893 q 447 1006 425 982 q 505 1031 469 1031 z "},"α":{"ha":729,"x_min":50,"x_max":710,"o":"m 336 139 q 396 164 372 139 q 431 239 420 189 q 443 368 443 290 l 443 378 q 416 559 443 502 q 334 616 390 616 q 258 554 282 616 q 233 375 233 492 q 259 197 233 255 q 336 139 284 139 m 277 -14 q 110 89 170 -14 q 50 376 50 191 q 113 670 50 567 q 288 774 176 774 q 390 744 349 774 q 457 654 431 713 l 464 654 q 483 715 472 688 q 505 760 493 742 l 663 760 q 642 670 651 720 q 629 568 633 621 q 624 464 624 515 l 624 231 q 636 164 624 187 q 672 142 649 142 q 693 144 684 142 q 710 149 703 146 l 710 3 q 690 -5 705 -1 q 659 -11 675 -9 q 632 -14 642 -14 q 519 13 559 -14 q 458 102 479 40 l 447 102 q 402 39 428 64 q 345 0 376 13 q 277 -14 313 -14 z "},"β":{"ha":711,"x_min":78,"x_max":664,"o":"m 358 1063 q 500 1030 441 1063 q 590 939 559 998 q 621 799 621 880 q 585 635 621 694 q 476 562 549 577 l 476 557 q 619 477 574 543 q 664 293 664 411 q 634 130 664 199 q 549 24 604 61 q 416 -14 494 -14 q 327 -2 366 -14 q 258 29 288 9 l 258 -334 l 78 -334 l 78 757 q 111 923 78 854 q 207 1027 144 991 q 358 1063 270 1063 m 353 909 q 300 891 321 909 q 269 835 279 872 q 258 743 258 798 l 258 186 q 309 157 277 169 q 366 144 340 144 q 451 185 422 144 q 481 310 481 227 q 467 396 481 361 q 426 451 452 432 q 359 469 399 469 l 330 469 l 330 624 l 350 624 q 417 662 396 624 q 439 771 439 699 q 416 874 439 839 q 353 909 393 909 z "},"γ":{"ha":619,"x_min":4,"x_max":614,"o":"m 614 760 l 412 22 q 387 -94 399 -31 q 369 -218 376 -156 q 363 -334 363 -281 l 170 -334 q 177 -232 170 -293 q 195 -108 184 -171 q 216 0 205 -45 l 4 760 l 197 760 l 261 496 q 282 408 273 452 q 299 321 292 363 q 311 236 307 278 l 315 236 q 327 313 319 273 q 344 397 334 353 q 364 489 354 441 l 428 760 l 614 760 z "},"δ":{"ha":672,"x_min":49,"x_max":624,"o":"m 374 1064 q 501 1046 440 1064 q 615 996 562 1028 l 553 848 q 460 896 503 881 q 380 911 417 911 q 320 895 341 911 q 298 848 298 879 q 309 805 298 826 q 348 759 320 785 q 424 694 375 733 q 535 587 491 642 q 602 464 580 531 q 624 309 624 396 q 590 140 624 213 q 490 27 555 68 q 332 -14 425 -14 q 175 24 237 -14 q 80 133 112 62 q 49 298 49 203 q 72 438 49 376 q 141 546 96 500 q 252 618 186 592 q 181 687 210 652 q 136 761 151 722 q 121 843 121 800 q 189 1007 121 949 q 374 1064 257 1064 m 345 533 q 284 485 310 519 q 245 406 259 452 q 232 309 232 361 q 244 219 232 257 q 278 160 256 181 q 334 139 301 139 q 390 159 367 139 q 426 218 414 179 q 439 313 439 256 q 416 436 439 382 q 345 533 393 490 z "},"ε":{"ha":564,"x_min":46,"x_max":529,"o":"m 418 461 l 418 325 l 358 325 q 283 313 311 325 q 242 280 254 302 q 229 228 229 258 q 242 179 229 199 q 280 149 255 159 q 339 139 304 139 q 431 153 383 139 q 522 195 479 168 l 522 36 q 423 -3 473 8 q 307 -14 373 -14 q 108 49 170 -14 q 46 212 46 112 q 84 333 46 283 q 191 396 123 382 l 191 403 q 107 465 136 420 q 78 572 78 510 q 108 678 78 633 q 192 749 138 724 q 318 774 246 774 q 422 761 371 774 q 529 717 473 748 l 468 579 q 401 612 435 601 q 338 624 368 624 q 275 605 296 624 q 253 553 253 587 q 281 482 253 503 q 370 461 309 461 l 418 461 z "},"ζ":{"ha":551,"x_min":50,"x_max":524,"o":"m 524 -37 q 504 -146 524 -89 q 450 -258 484 -203 l 267 -258 q 306 -193 288 -228 q 335 -127 324 -158 q 346 -81 346 -97 q 338 -46 346 -61 q 306 -16 331 -31 q 228 18 281 -1 q 125 76 164 41 q 68 168 85 110 q 50 317 50 225 q 67 469 50 395 q 120 616 85 543 q 208 763 155 688 q 332 916 260 837 q 300 908 317 911 q 266 904 283 905 q 228 903 248 903 l 77 903 l 77 1055 l 518 1055 l 518 933 q 396 781 450 856 q 307 631 343 705 q 252 481 271 557 q 233 328 233 406 q 244 254 233 283 q 284 203 255 224 q 371 161 314 182 q 451 121 417 146 q 505 58 486 96 q 524 -37 524 19 z "},"η":{"ha":696,"x_min":78,"x_max":619,"o":"m 419 774 q 528 743 484 774 q 596 651 572 711 q 619 503 619 591 l 619 -334 l 439 -334 l 439 450 q 422 571 439 530 q 366 611 406 611 q 303 587 327 611 q 269 510 279 564 q 258 366 258 456 l 258 0 l 78 0 l 78 760 l 221 760 l 240 663 l 252 663 q 293 723 269 699 q 349 761 317 748 q 419 774 381 774 z "},"θ":{"ha":693,"x_min":50,"x_max":643,"o":"m 643 529 q 610 226 643 347 q 511 46 577 106 q 345 -14 445 -14 q 123 119 195 -14 q 50 529 50 252 q 83 831 50 711 q 181 1011 115 951 q 346 1071 247 1071 q 569 938 495 1071 q 643 529 643 804 m 345 134 q 429 214 401 134 q 458 458 456 295 l 233 458 q 263 215 237 296 q 345 134 289 134 m 347 924 q 266 845 292 924 q 236 606 239 767 l 461 606 q 429 845 456 767 q 347 924 401 924 z "},"ι":{"ha":419,"x_min":78,"x_max":397,"o":"m 258 760 l 258 221 q 272 163 258 182 q 313 144 286 144 q 356 151 334 144 q 397 168 378 157 l 397 21 q 334 -5 368 3 q 260 -14 300 -14 q 157 10 197 -14 q 97 84 117 33 q 78 218 78 136 l 78 760 l 258 760 z "},"κ":{"ha":657,"x_min":78,"x_max":660,"o":"m 650 760 l 453 449 l 660 0 l 463 0 l 329 314 l 258 244 l 258 0 l 78 0 l 78 760 l 258 760 l 258 596 q 257 501 258 547 q 250 411 256 455 l 256 411 q 281 463 268 438 q 306 507 294 488 l 456 760 l 650 760 z "},"λ":{"ha":667,"x_min":5,"x_max":661,"o":"m 5 0 l 229 726 l 207 818 q 180 885 198 856 q 121 914 163 914 q 94 912 106 914 q 68 905 81 909 l 68 1055 q 94 1061 81 1059 q 121 1064 106 1063 q 151 1065 136 1065 q 257 1042 212 1065 q 333 964 301 1019 q 390 817 366 910 l 543 228 q 561 180 551 197 q 584 155 570 162 q 615 147 597 147 q 640 149 629 147 q 661 155 652 151 l 661 -3 q 637 -8 650 -6 q 611 -12 625 -11 q 582 -14 597 -14 q 487 7 525 -14 q 422 75 448 28 q 375 203 396 123 l 335 368 q 329 394 332 380 q 324 420 326 407 q 320 447 322 433 q 317 475 318 460 l 311 475 q 307 430 311 451 q 298 392 304 410 l 195 0 l 5 0 z "},"μ":{"ha":696,"x_min":77,"x_max":618,"o":"m 618 760 l 618 0 l 476 0 l 456 97 l 447 97 q 418 38 435 62 q 380 0 401 13 q 335 -14 359 -14 q 288 1 306 -14 q 256 47 269 16 l 252 47 q 255 0 254 25 q 256 -51 256 -24 q 257 -103 257 -77 l 257 -334 l 77 -334 l 77 760 l 257 760 l 257 314 q 274 190 257 232 q 329 147 291 147 q 397 179 374 147 q 429 266 420 210 q 437 393 437 321 l 437 760 l 618 760 z "},"ν":{"ha":643,"x_min":8,"x_max":604,"o":"m 8 760 l 197 760 l 286 317 q 295 272 291 293 q 301 231 298 250 q 306 193 304 212 l 311 193 q 377 367 353 277 q 412 554 401 456 q 422 760 422 652 l 604 760 q 579 482 604 611 q 500 234 554 353 q 361 0 447 116 l 191 0 l 8 760 z "},"ξ":{"ha":551,"x_min":50,"x_max":518,"o":"m 50 286 q 66 402 50 351 q 118 492 83 454 q 210 550 153 530 l 210 555 q 138 589 166 566 q 96 648 109 612 q 82 733 82 684 q 99 812 82 776 q 146 874 117 848 q 212 909 176 899 q 177 905 193 907 q 145 903 160 904 q 115 903 131 903 l 64 903 l 64 1055 l 496 1055 l 496 904 l 436 904 q 362 893 395 904 q 307 863 330 883 q 273 814 284 843 q 261 747 261 785 q 293 654 261 683 q 395 625 325 625 l 463 625 l 463 472 l 392 472 q 305 455 340 472 q 252 404 270 439 q 233 313 233 368 q 245 241 233 269 q 285 194 256 213 q 367 158 314 175 q 451 115 418 142 q 502 50 485 88 q 518 -41 518 11 q 497 -149 518 -93 q 443 -258 477 -205 l 260 -258 q 300 -193 282 -228 q 329 -127 318 -158 q 339 -81 339 -97 q 331 -42 339 -58 q 301 -12 323 -25 q 240 14 280 1 q 131 72 172 35 q 70 163 89 109 q 50 286 50 216 z "},"ο":{"ha":677,"x_min":50,"x_max":628,"o":"m 628 382 q 612 231 628 302 q 562 105 596 160 q 472 18 528 50 q 338 -14 417 -14 q 210 18 264 -14 q 120 103 155 49 q 67 230 85 158 q 50 382 50 301 q 80 585 50 496 q 175 724 111 673 q 340 774 239 774 q 493 728 428 774 q 593 596 557 683 q 628 382 628 509 m 233 379 q 244 247 233 300 q 279 166 256 193 q 339 139 302 139 q 399 166 376 139 q 432 247 422 193 q 443 382 443 301 q 432 515 443 462 q 399 594 422 568 q 339 621 376 621 q 258 562 283 621 q 233 379 233 503 z "},"π":{"ha":781,"x_min":8,"x_max":753,"o":"m 682 146 q 717 151 698 146 q 751 164 736 155 l 751 24 q 692 -3 726 6 q 623 -12 658 -12 q 498 44 538 -12 q 457 216 457 101 l 457 607 l 302 607 l 302 0 l 122 0 l 122 607 l 8 607 l 8 689 l 97 760 l 753 760 l 753 607 l 639 607 l 639 221 q 650 164 639 182 q 682 146 661 146 z "},"ρ":{"ha":689,"x_min":74,"x_max":640,"o":"m 640 379 q 616 178 640 267 q 538 38 592 89 q 393 -14 484 -14 q 316 1 350 -14 q 256 40 281 16 l 248 40 q 253 -58 252 -11 q 254 -144 254 -106 l 254 -334 l 74 -334 l 74 380 q 102 586 74 498 q 192 724 130 675 q 358 774 254 774 q 512 730 450 774 q 608 598 575 686 q 640 379 640 511 m 355 621 q 279 573 304 621 q 254 419 254 526 l 254 180 q 296 150 272 161 q 347 139 320 139 q 429 194 403 139 q 456 379 456 249 q 432 566 456 511 q 355 621 408 621 z "},"ς":{"ha":557,"x_min":50,"x_max":529,"o":"m 346 774 q 438 761 393 774 q 529 724 484 749 l 479 578 q 419 607 448 597 q 353 616 389 616 q 263 555 293 616 q 233 367 233 494 q 244 264 233 302 q 283 204 254 227 q 367 160 312 181 q 453 115 418 142 q 506 49 488 87 q 524 -41 524 11 q 503 -149 524 -93 q 447 -258 481 -205 l 265 -258 q 304 -193 287 -228 q 333 -127 322 -158 q 343 -81 343 -97 q 337 -42 343 -59 q 309 -10 331 -25 q 240 21 287 5 q 153 63 189 39 q 94 125 117 87 q 61 220 71 163 q 50 358 50 277 q 83 589 50 496 q 183 727 117 681 q 346 774 249 774 z "},"σ":{"ha":718,"x_min":50,"x_max":689,"o":"m 639 329 q 603 146 639 223 q 500 28 567 69 q 343 -14 434 -14 q 182 31 248 -14 q 83 157 117 75 q 50 355 50 239 q 90 582 50 492 q 211 715 130 671 q 416 760 292 760 l 689 760 l 689 607 l 550 607 q 616 486 594 555 q 639 329 639 416 m 233 357 q 246 233 233 281 q 284 162 259 185 q 345 139 309 139 q 427 194 399 139 q 454 358 454 249 q 449 445 454 403 q 431 527 443 486 q 399 607 418 567 l 378 607 q 268 547 302 607 q 233 357 233 486 z "},"τ":{"ha":519,"x_min":5,"x_max":493,"o":"m 493 760 l 493 607 l 322 607 l 322 241 q 337 168 322 193 q 386 143 353 143 q 427 148 406 143 q 472 163 449 153 l 472 18 q 408 -6 445 3 q 330 -16 371 -16 q 222 11 264 -16 q 160 92 180 37 q 140 233 140 147 l 140 607 l 5 607 l 5 689 l 94 760 l 493 760 z "},"υ":{"ha":693,"x_min":77,"x_max":633,"o":"m 343 -12 q 190 25 249 -12 q 104 138 132 61 q 77 339 77 216 l 77 760 l 257 760 l 257 319 q 276 190 257 233 q 347 147 296 147 q 428 206 403 147 q 453 397 453 265 q 443 573 453 484 q 412 760 433 661 l 591 760 q 617 628 608 686 q 630 516 626 570 q 633 399 633 463 q 558 91 633 193 q 343 -12 484 -12 z "},"φ":{"ha":901,"x_min":50,"x_max":851,"o":"m 182 772 l 319 690 q 256 541 279 625 q 233 374 233 457 q 248 259 233 307 q 289 183 262 212 q 357 144 317 155 l 357 485 q 413 700 357 629 q 587 771 470 771 q 730 725 671 771 q 820 596 789 679 q 851 406 851 514 q 814 200 851 289 q 707 57 778 111 q 533 -8 636 3 l 533 -334 l 357 -334 l 357 -8 q 190 48 258 1 q 86 179 121 96 q 50 376 50 262 q 83 585 50 487 q 182 772 115 683 m 587 618 q 546 588 557 618 q 534 493 534 559 l 534 144 q 606 181 576 149 q 652 270 635 214 q 668 404 668 326 q 658 521 668 473 q 630 594 648 569 q 587 618 612 618 z "},"χ":{"ha":637,"x_min":-18,"x_max":632,"o":"m 114 771 q 207 752 169 771 q 270 689 244 732 q 315 575 296 646 l 342 467 l 444 760 l 628 760 l 410 233 l 482 -36 q 512 -130 500 -98 q 540 -171 525 -161 q 581 -180 555 -180 q 607 -178 594 -180 q 632 -174 619 -176 l 632 -323 q 590 -331 613 -328 q 534 -334 567 -334 q 441 -314 479 -334 q 375 -246 403 -294 q 325 -115 348 -198 l 292 16 l 174 -334 l -18 -334 l 228 249 l 150 519 q 116 598 134 577 q 71 619 98 619 q 45 617 58 619 q 21 611 31 614 l 21 760 q 62 768 37 765 q 114 771 87 771 z "},"ψ":{"ha":928,"x_min":74,"x_max":865,"o":"m 553 1054 l 553 147 q 629 180 601 154 q 671 259 658 207 q 684 396 684 312 q 672 573 684 483 q 637 760 661 664 l 814 760 q 853 565 842 650 q 865 392 865 479 q 830 178 865 267 q 725 42 795 90 q 553 -12 656 -6 l 553 -334 l 376 -334 l 376 -12 q 209 30 277 -8 q 108 147 142 68 q 74 349 74 225 l 74 760 l 254 760 l 254 358 q 266 244 254 290 q 305 176 278 199 q 376 147 332 152 l 376 1054 l 553 1054 z "},"ω":{"ha":945,"x_min":62,"x_max":882,"o":"m 819 760 q 856 627 842 690 q 876 501 869 564 q 882 368 882 438 q 853 163 882 248 q 772 32 825 77 q 644 -14 719 -14 q 535 20 578 -14 q 475 125 492 54 l 469 125 q 409 20 450 54 q 297 -14 367 -14 q 171 33 223 -14 q 90 164 118 79 q 62 368 62 250 q 68 502 62 440 q 89 626 75 564 q 125 760 102 688 l 307 760 q 259 577 276 673 q 243 376 243 481 q 260 207 243 261 q 318 153 277 153 q 357 170 343 153 q 377 228 372 188 q 383 335 383 269 l 383 519 l 559 519 l 559 335 q 566 227 560 266 q 587 171 572 187 q 627 153 601 154 q 668 177 652 153 q 693 250 684 201 q 701 374 701 299 q 686 571 701 471 q 636 760 670 670 l 819 760 z "},"ϊ":{"ha":419,"x_min":-25,"x_max":397,"o":"m 258 760 l 258 221 q 272 163 258 182 q 313 144 286 144 q 356 151 334 144 q 397 168 378 157 l 397 21 q 334 -5 368 3 q 260 -14 300 -14 q 157 10 197 -14 q 97 84 117 33 q 78 218 78 136 l 78 760 l 258 760 m -25 946 q -2 1016 -25 992 q 58 1039 21 1039 q 120 1015 97 1039 q 143 946 143 990 q 120 879 143 903 q 58 854 97 854 q -2 878 21 854 q -25 946 -25 901 m 227 946 q 250 1016 227 992 q 311 1039 273 1039 q 373 1015 350 1039 q 396 946 396 990 q 373 879 396 903 q 311 854 350 854 q 250 879 273 854 q 227 946 227 903 z "},"ϋ":{"ha":693,"x_min":77,"x_max":633,"o":"m 343 -12 q 190 25 249 -12 q 104 138 132 61 q 77 339 77 216 l 77 760 l 257 760 l 257 319 q 276 190 257 233 q 347 147 296 147 q 428 206 403 147 q 453 397 453 265 q 443 573 453 484 q 412 760 433 661 l 591 760 q 617 628 608 686 q 630 516 626 570 q 633 399 633 463 q 558 91 633 193 q 343 -12 484 -12 m 133 946 q 156 1016 133 992 q 216 1039 179 1039 q 278 1015 255 1039 q 301 946 301 990 q 278 879 301 903 q 216 854 255 854 q 156 878 179 854 q 133 946 133 901 m 385 946 q 408 1016 385 992 q 469 1039 431 1039 q 531 1015 508 1039 q 554 946 554 990 q 531 879 554 903 q 469 854 508 854 q 408 879 431 854 q 385 946 385 903 z "},"ό":{"ha":677,"x_min":50,"x_max":628,"o":"m 628 382 q 612 231 628 302 q 562 105 596 160 q 472 18 528 50 q 338 -14 417 -14 q 210 18 264 -14 q 120 103 155 49 q 67 230 85 158 q 50 382 50 301 q 80 585 50 496 q 175 724 111 673 q 340 774 239 774 q 493 728 428 774 q 593 596 557 683 q 628 382 628 509 m 233 379 q 244 247 233 300 q 279 166 256 193 q 339 139 302 139 q 399 166 376 139 q 432 247 422 193 q 443 382 443 301 q 432 515 443 462 q 399 594 422 568 q 339 621 376 621 q 258 562 283 621 q 233 379 233 503 m 267 842 l 267 861 q 278 904 271 876 q 292 966 285 933 q 306 1028 300 1000 q 313 1071 311 1057 l 478 1071 l 478 1054 q 448 984 465 1021 q 414 912 432 948 q 376 842 396 876 l 267 842 z "},"ύ":{"ha":693,"x_min":77,"x_max":633,"o":"m 343 -12 q 190 25 249 -12 q 104 138 132 61 q 77 339 77 216 l 77 760 l 257 760 l 257 319 q 276 190 257 233 q 347 147 296 147 q 428 206 403 147 q 453 397 453 265 q 443 573 453 484 q 412 760 433 661 l 591 760 q 617 628 608 686 q 630 516 626 570 q 633 399 633 463 q 558 91 633 193 q 343 -12 484 -12 m 271 842 l 271 861 q 282 904 275 876 q 296 966 289 933 q 310 1028 304 1000 q 317 1071 315 1057 l 482 1071 l 482 1054 q 452 984 469 1021 q 418 912 436 948 q 380 842 400 876 l 271 842 z "},"ώ":{"ha":945,"x_min":62,"x_max":882,"o":"m 819 760 q 856 627 842 690 q 876 501 869 564 q 882 368 882 438 q 853 163 882 248 q 772 32 825 77 q 644 -14 719 -14 q 535 20 578 -14 q 475 125 492 54 l 469 125 q 409 20 450 54 q 297 -14 367 -14 q 171 33 223 -14 q 90 164 118 79 q 62 368 62 250 q 68 502 62 440 q 89 626 75 564 q 125 760 102 688 l 307 760 q 259 577 276 673 q 243 376 243 481 q 260 207 243 261 q 318 153 277 153 q 357 170 343 153 q 377 228 372 188 q 383 335 383 269 l 383 519 l 559 519 l 559 335 q 566 227 560 266 q 587 171 572 187 q 627 153 601 154 q 668 177 652 153 q 693 250 684 201 q 701 374 701 299 q 686 571 701 471 q 636 760 670 670 l 819 760 m 399 842 l 399 861 q 411 904 404 876 q 425 966 418 933 q 438 1028 433 1000 q 446 1071 444 1057 l 611 1071 l 611 1054 q 581 984 597 1021 q 547 912 565 948 q 509 842 529 876 l 399 842 z "},"Ё":{"ha":593,"x_min":89,"x_max":534,"o":"m 534 0 l 89 0 l 89 991 l 534 991 l 534 829 l 279 829 l 279 596 l 517 596 l 517 433 l 279 433 l 279 165 l 534 165 l 534 0 m 98 1171 q 121 1241 98 1217 q 182 1264 144 1264 q 243 1240 220 1264 q 267 1171 267 1215 q 243 1104 267 1128 q 182 1080 220 1080 q 121 1103 144 1080 q 98 1171 98 1126 m 350 1171 q 373 1241 350 1217 q 435 1264 396 1264 q 496 1240 473 1264 q 519 1171 519 1215 q 496 1104 519 1128 q 435 1080 473 1080 q 373 1104 396 1080 q 350 1171 350 1128 z "},"Ђ":{"ha":804,"x_min":20,"x_max":741,"o":"m 530 -14 q 487 -10 507 -14 q 447 0 466 -6 l 447 161 q 468 152 456 156 q 492 149 480 149 q 526 158 513 149 q 545 188 538 168 q 551 243 551 209 l 551 370 q 530 444 551 420 q 464 468 509 468 l 379 468 l 379 0 l 191 0 l 191 827 l 20 827 l 20 991 l 557 991 l 557 827 l 379 827 l 379 633 l 489 633 q 677 565 613 633 q 741 370 741 496 l 741 258 q 687 56 740 126 q 530 -14 633 -14 z "},"Ѓ":{"ha":572,"x_min":89,"x_max":562,"o":"m 555 991 l 555 827 l 279 827 l 279 0 l 89 0 l 89 991 l 555 991 m 562 1289 l 562 1276 q 526 1230 548 1257 q 476 1175 503 1204 q 422 1117 450 1145 q 370 1067 395 1089 l 241 1067 l 241 1085 q 286 1157 266 1122 q 324 1225 307 1192 q 355 1289 341 1258 l 562 1289 z "},"Є":{"ha":693,"x_min":61,"x_max":661,"o":"m 437 842 q 361 822 393 842 q 310 767 330 802 q 278 687 290 732 q 260 591 266 642 l 538 591 l 538 428 l 258 428 q 273 315 260 366 q 310 227 286 264 q 367 171 333 191 q 446 151 401 151 q 542 168 498 151 q 629 207 587 184 l 629 37 q 533 -1 586 12 q 421 -14 480 -14 q 226 46 307 -14 q 103 219 146 106 q 61 494 61 333 q 85 699 61 606 q 157 861 110 792 q 272 968 203 930 q 428 1006 340 1006 q 549 990 490 1006 q 661 942 607 974 l 607 785 q 525 827 566 812 q 437 842 484 842 z "},"Ѕ":{"ha":608,"x_min":45,"x_max":567,"o":"m 567 290 q 531 132 567 201 q 430 25 495 64 q 275 -14 364 -14 q 195 -8 234 -14 q 119 8 157 -3 q 45 40 82 20 l 45 235 q 157 181 99 199 q 265 163 216 163 q 326 177 302 163 q 362 216 350 191 q 374 271 374 240 q 363 328 374 303 q 325 377 353 353 q 240 435 296 402 q 162 488 197 460 q 102 548 127 515 q 64 624 77 581 q 52 726 52 667 q 84 873 51 810 q 181 971 118 937 q 334 1006 245 1006 q 452 989 394 1006 q 564 943 510 973 l 511 775 q 420 818 463 804 q 340 832 378 832 q 286 820 308 832 q 253 785 264 807 q 241 736 241 764 q 252 676 241 701 q 293 628 263 652 q 380 572 323 605 q 484 496 442 536 q 546 406 525 456 q 567 290 567 356 z "},"І":{"ha":368,"x_min":89,"x_max":279,"o":"m 89 0 l 89 991 l 279 991 l 279 0 l 89 0 z "},"Ї":{"ha":368,"x_min":-28,"x_max":393,"o":"m 89 0 l 89 991 l 279 991 l 279 0 l 89 0 m -28 1178 q -5 1247 -28 1224 q 55 1271 18 1271 q 117 1246 94 1271 q 140 1178 140 1222 q 117 1111 140 1135 q 55 1086 94 1086 q -5 1110 18 1086 q -28 1178 -28 1133 m 223 1178 q 246 1247 223 1224 q 308 1271 269 1271 q 370 1246 347 1271 q 393 1178 393 1222 q 370 1111 393 1135 q 308 1086 347 1086 q 246 1111 269 1086 q 223 1178 223 1135 z "},"Ј":{"ha":367,"x_min":-78,"x_max":279,"o":"m 28 -294 q -27 -291 0 -294 q -78 -279 -54 -288 l -78 -117 q -42 -127 -61 -123 q -1 -131 -23 -131 q 53 -115 33 -131 q 81 -61 73 -99 q 90 43 90 -23 l 90 991 l 279 991 l 279 46 q 250 -157 279 -83 q 165 -263 221 -232 q 28 -294 109 -294 z "},"Љ":{"ha":1064,"x_min":7,"x_max":1023,"o":"m 96 -12 q 44 -8 66 -12 q 7 1 22 -5 l 7 163 q 31 153 20 156 q 56 150 43 150 q 91 163 77 150 q 115 206 105 177 q 132 279 125 235 q 145 382 138 314 q 163 544 153 450 q 183 752 173 638 q 204 991 194 865 l 668 991 l 668 615 l 694 615 q 874 582 801 615 q 985 482 947 549 q 1023 315 1023 416 q 940 82 1023 164 q 704 0 856 0 l 484 0 l 484 815 l 371 815 q 356 637 364 722 q 341 479 349 553 q 326 347 334 406 q 312 244 319 287 q 298 178 304 201 q 256 70 281 111 q 194 8 232 28 q 96 -12 155 -12 m 667 163 l 694 163 q 797 200 762 163 q 832 310 832 237 q 818 390 832 359 q 773 437 804 422 q 693 453 743 453 l 667 453 l 667 163 z "},"Њ":{"ha":1061,"x_min":89,"x_max":1019,"o":"m 89 0 l 89 991 l 279 991 l 279 607 l 479 607 l 479 991 l 664 991 l 664 607 l 689 607 q 870 574 797 607 q 982 477 944 542 q 1019 315 1019 412 q 935 82 1019 163 q 699 0 850 0 l 479 0 l 479 444 l 279 444 l 279 0 l 89 0 m 664 163 l 690 163 q 793 200 759 163 q 828 310 828 237 q 813 386 828 356 q 768 430 798 415 q 690 444 738 444 l 664 444 l 664 163 z "},"Ћ":{"ha":811,"x_min":20,"x_max":742,"o":"m 557 991 l 557 827 l 379 827 l 379 633 l 489 633 q 677 565 612 633 q 742 370 742 496 l 742 0 l 551 0 l 551 370 q 530 444 551 420 q 464 468 509 468 l 379 468 l 379 0 l 191 0 l 191 827 l 20 827 l 20 991 l 557 991 z "}}}
